SplineFontDB: 3.2
FontName: TDATextCondensed
FullName: TDATextCondensed
FamilyName: TDAText Condensed
Weight: Regular
Copyright: Copyright (c) 2024-2025 Dmitry Tretyakov\n\nBased on Philips SAA52XX/SAA55XX/TDA93XX IC character set:\nCopyright (c) 1993-2001 NXP Semiconductors N.V.

StartChar: exclam
Encoding: 33 33 4
Width: 440
Flags: HW
HStem: 0 100<182 258> 680 20G<182 258>
VStem: 182 75<0 100 200 700>
LayerCount: 2
Back
Fore
SplineSet
182 700 m 29
 258 700 l 25
 258 200 l 25
 182 200 l 25
 182 700 l 29
258 0 m 25
 182 0 l 1
 182 100 l 25
 258 100 l 1
 258 0 l 25
EndSplineSet
EndChar

StartChar: asterisk
Encoding: 42 42 5
Width: 440
Flags: HW
HStem: 0 21G<182 258> 100 100<32 70 370 408> 300 100<145 182 258 295> 500 100<32 70 370 408> 680 20G<182 258>
VStem: 32 75<100 200 500 600> 70 75<200 300 400 500> 182 75<0 300 400 700> 295 75<200 300 400 500> 332 75<100 200 500 600>
LayerCount: 2
Back
Fore
SplineSet
32 600 m 29xfd
 108 600 l 25
 108 500 l 25xfd
 144 500 l 25
 145 400 l 25
 182 400 l 25
 182 700 l 25
 258 700 l 25
 258 400 l 25
 295 400 l 25
 295 500 l 25xfb80
 332 500 l 25
 332 600 l 25
 408 600 l 25
 408 500 l 25xf940
 370 500 l 25
 370 400 l 25xf980
 332 400 l 25
 332 300 l 25xf940
 370 300 l 25
 370 200 l 25xf980
 408 200 l 25
 408 100 l 25
 332 100 l 25
 332 200 l 25xf940
 295 200 l 25
 295 300 l 25
 258 300 l 25
 258 0 l 25
 182 0 l 25
 182 300 l 25
 145 300 l 25
 145 200 l 25xfb80
 108 200 l 25
 108 100 l 25
 32 100 l 25
 32 200 l 25xfd
 70 200 l 25
 70 300 l 25xfb
 108 300 l 25
 108 400 l 25xfd
 70 400 l 25
 70 500 l 25xfb
 32 500 l 25
 32 600 l 29xfd
EndSplineSet
EndChar

StartChar: plus
Encoding: 43 43 6
Width: 440
Flags: HW
HStem: 250 100<70 182 258 370>
VStem: 182 75<50 250 350 550>
LayerCount: 2
Back
Fore
SplineSet
182 550 m 29
 258 550 l 25
 258 350 l 25
 370 350 l 25
 370 250 l 25
 258 250 l 25
 258 50 l 25
 182 50 l 25
 182 250 l 25
 70 250 l 25
 70 350 l 25
 182 350 l 25
 182 550 l 29
EndSplineSet
EndChar

StartChar: comma
Encoding: 44 44 7
Width: 440
Flags: HW
HStem: -200 100<164 201> 0 100<164 201>
VStem: 164 75<-200 -100> 201 75<-100 0>
LayerCount: 2
Back
Fore
SplineSet
164 -100 m 5xe0
 201 -100 l 29
 201 0 l 5xd0
 164 0 l 29
 164 100 l 29xe0
 276 100 l 29
 276 -100 l 29xd0
 239 -100 l 29
 239 -200 l 29
 164 -200 l 29
 164 -100 l 5xe0
EndSplineSet
EndChar

StartChar: hyphen
Encoding: 45 45 8
Width: 440
Flags: HW
HStem: 250 100<70 370>
LayerCount: 2
Back
Fore
SplineSet
70 250 m 29
 70 350 l 25
 370 350 l 25
 370 250 l 25
 70 250 l 29
EndSplineSet
EndChar

StartChar: period
Encoding: 46 46 9
Width: 440
Flags: HW
HStem: 0 100<182 258>
VStem: 182 75<0 100>
LayerCount: 2
Back
Fore
SplineSet
258 0 m 29
 182 0 l 29
 182 100 l 29
 258 100 l 29
 258 0 l 29
EndSplineSet
EndChar

StartChar: slash
Encoding: 47 47 10
Width: 440
Flags: HW
HStem: 0 100<70 108> 600 100<332 370>
VStem: 70 75<0 100> 108 75<100 200> 145 75<200 300> 182 75<300 400> 220 75<400 500> 258 75<500 600> 295 75<600 700>
LayerCount: 2
Back
Fore
SplineSet
295 700 m 29xc080
 370 700 l 25
 370 600 l 25xc080
 332 600 l 25
 332 500 l 25xc1
 295 500 l 25
 295 400 l 25xc2
 258 400 l 25
 258 300 l 25xc4
 220 300 l 25
 220 200 l 25xc8
 182 200 l 25
 182 100 l 25xd0
 145 100 l 25
 145 0 l 25
 70 0 l 25
 70 100 l 25xe0
 108 100 l 25
 108 200 l 25xd0
 145 200 l 25
 145 300 l 25xc8
 182 300 l 25
 182 400 l 25xc4
 220 400 l 25
 220 500 l 25xc2
 258 500 l 25
 258 600 l 25xc1
 295 600 l 25
 295 700 l 29xc080
EndSplineSet
EndChar

StartChar: zero
Encoding: 48 48 11
Width: 440
Flags: HW
HStem: 0 100<164 276> 600 100<164 276>
VStem: 51 112<100 600> 276 112<100 600>
LayerCount: 2
Back
Fore
SplineSet
276 600 m 29
 164 600 l 25
 164 100 l 25
 276 100 l 25
 276 600 l 29
89 700 m 25
 351 700 l 25
 351 600 l 25
 389 600 l 25
 389 100 l 25
 351 100 l 25
 351 0 l 25
 89 0 l 25
 89 100 l 25
 51 100 l 25
 51 600 l 25
 89 600 l 25
 89 700 l 25
EndSplineSet
EndChar

StartChar: one
Encoding: 49 49 12
Width: 440
Flags: HW
HStem: 0 21G<201 314> 500 100<126 201> 680 20G<201 314>
VStem: 201 112<0 500 600 700>
LayerCount: 2
Back
Fore
SplineSet
126 500 m 29
 126 600 l 29
 201 600 l 29
 201 700 l 29
 314 700 l 29
 314 0 l 29
 201 0 l 29
 201 500 l 29
 126 500 l 29
EndSplineSet
EndChar

StartChar: two
Encoding: 50 50 13
Width: 440
Flags: HW
HStem: 0 100<51 89 239 389> 500 100<51 89> 600 100<126 276>
VStem: 51 75<500 600> 239 112<300 400> 276 112<400 600>
LayerCount: 2
Back
Fore
SplineSet
126 500 m 29xd4
 51 500 l 1
 51 600 l 25
 89 600 l 25xd4
 89 700 l 25
 351 700 l 25
 351 600 l 25xb8
 389 600 l 25
 389 400 l 25xb4
 351 400 l 25
 351 300 l 25
 314 300 l 25
 314 200 l 25
 239 200 l 25
 239 100 l 25xb8
 389 100 l 25
 389 0 l 25xb4
 51 0 l 25
 51 100 l 25
 89 100 l 25
 89 200 l 25
 164 200 l 25
 164 300 l 25
 239 300 l 25
 239 400 l 25xb8
 276 400 l 25
 276 600 l 25
 126 600 l 1xb4
 126 500 l 29xd4
EndSplineSet
EndChar

StartChar: three
Encoding: 51 51 14
Width: 440
Flags: HW
HStem: 0 100<51 314> 300 100<164 239> 600 100<51 276 351 389>
VStem: 239 75<400 500> 276 75<500 600> 314 75<100 300>
CounterMasks: 1 e0
LayerCount: 2
Back
Fore
SplineSet
51 700 m 29xe8
 389 700 l 25
 389 600 l 25xe4
 351 600 l 25
 351 500 l 25xe8
 314 500 l 25
 314 400 l 25xf0
 389 400 l 25
 389 100 l 25xe4
 351 100 l 25
 351 0 l 25xe8
 51 0 l 25
 51 100 l 25
 314 100 l 25
 314 300 l 25xe4
 164 300 l 25
 164 400 l 25
 239 400 l 25
 239 500 l 25xf0
 276 500 l 25
 276 600 l 25
 51 601 l 25
 51 700 l 29xe8
EndSplineSet
EndChar

StartChar: four
Encoding: 52 52 15
Width: 440
Flags: HW
HStem: 0 21G<276 389> 100 100<164 276> 600 100<351 389>
VStem: 51 112<200 300> 89 112<300 400> 164 112<400 500> 276 112<0 100 200 300 600 700>
LayerCount: 2
Back
Fore
SplineSet
276 700 m 29xea
 389 700 l 25
 389 600 l 25xea
 351 600 l 25
 351 500 l 25
 276 500 l 25
 276 400 l 25xe4
 201 400 l 25
 201 300 l 25xe8
 164 300 l 25
 164 200 l 25
 276 200 l 25
 276 300 l 25
 389 300 l 25
 389 0 l 25
 276 0 l 25
 276 100 l 25
 51 100 l 25
 51 300 l 25xf2
 89 300 l 25
 89 400 l 25xe8
 164 400 l 25
 164 500 l 25xe4
 201 500 l 25
 201 600 l 25
 276 600 l 25
 276 700 l 29xea
EndSplineSet
EndChar

StartChar: five
Encoding: 53 53 16
Width: 440
Flags: HW
HStem: 0 100<126 276> 100 100<51 89> 300 100<126 276> 600 100<126 351>
VStem: 51 75<100 200 400 600> 276 112<100 300>
LayerCount: 2
Back
Fore
SplineSet
351 700 m 29xbc
 351 600 l 25
 126 600 l 25
 126 400 l 25
 351 400 l 25
 351 300 l 25
 389 300 l 25
 389 100 l 25
 351 100 l 25x7c
 351 0 l 25
 89 0 l 25xbc
 89 100 l 25
 51 100 l 25
 51 200 l 25
 126 200 l 25x7c
 126 100 l 25
 276 100 l 25
 276 300 l 25
 51 300 l 25
 51 700 l 25
 351 700 l 29xbc
EndSplineSet
EndChar

StartChar: six
Encoding: 54 54 17
Width: 440
Flags: HW
HStem: 0 100<163 314> 300 100<201 314> 600 100<239 276>
VStem: 51 112<100 300> 89 112<400 500> 126 112<500 600> 164 112<600 700> 314 75<100 300>
CounterMasks: 1 e0
LayerCount: 2
Back
Fore
SplineSet
314 300 m 29xf1
 163 300 l 25
 163 100 l 25
 314 100 l 25
 314 300 l 29xf1
276 700 m 25xe3
 276 600 l 25xe3
 239 600 l 25
 239 500 l 25xe5
 201 500 l 25
 201 400 l 25
 351 400 l 25
 351 300 l 25
 389 300 l 25
 389 100 l 25
 351 100 l 25
 351 0 l 25
 89 0 l 25
 89 100 l 25xe9
 51 100 l 25
 51 400 l 25xf1
 89 400 l 25
 89 500 l 25xe9
 126 500 l 25
 126 600 l 25xe5
 164 600 l 25
 164 700 l 25
 276 700 l 25xe3
EndSplineSet
EndChar

StartChar: seven
Encoding: 55 55 18
Width: 440
Flags: HW
HStem: 0 100<70 108> 600 100<32 258 370 408>
VStem: 70 112<0 100> 108 112<100 200> 145 112<200 300> 182 112<300 400> 220 112<400 500> 258 112<500 600>
LayerCount: 2
Back
Fore
SplineSet
32 700 m 1xc1
 408 700 l 25
 408 600 l 25
 370 600 l 25
 370 500 l 25xc1
 332 500 l 25
 332 400 l 25xc2
 295 400 l 25
 295 300 l 25xc4
 258 300 l 25
 258 200 l 25xc8
 220 200 l 25
 220 100 l 25xd0
 182 100 l 25
 182 0 l 25
 70 0 l 25
 70 100 l 25xe0
 108 100 l 25
 108 200 l 25xd0
 145 200 l 25
 145 300 l 25xc8
 182 300 l 25
 182 400 l 25xc4
 220 400 l 25
 220 500 l 25xc2
 258 500 l 25
 258 600 l 1
 32 600 l 25
 32 700 l 1xc1
EndSplineSet
EndChar

StartChar: eight
Encoding: 56 56 19
Width: 440
Flags: HW
HStem: 0 100<164 276> 300 100<164 276> 600 100<164 276>
VStem: 51 112<100 300 400 600> 276 112<100 300 400 600>
CounterMasks: 1 e0
LayerCount: 2
Back
Fore
SplineSet
164 100 m 29
 276 100 l 25
 276 300 l 25
 164 300 l 25
 164 100 l 29
164 600 m 25
 164 400 l 25
 276 400 l 25
 276 600 l 25
 164 600 l 25
89 700 m 25
 351 700 l 25
 351 600 l 25
 389 600 l 25
 389 400 l 25
 314 400 l 25
 314 300 l 25
 389 300 l 25
 389 100 l 25
 351 100 l 25
 351 0 l 25
 89 0 l 25
 89 100 l 25
 51 100 l 25
 51 300 l 25
 126 300 l 25
 126 400 l 25
 51 400 l 25
 51 600 l 25
 89 600 l 25
 89 700 l 25
EndSplineSet
EndChar

StartChar: nine
Encoding: 57 57 20
Width: 440
Flags: HW
HStem: 0 100<164 201> 300 100<126 239> 600 100<126 276>
VStem: 51 75<400 600> 164 112<0 100> 201 112<100 200> 239 112<200 300> 276 112<400 600>
CounterMasks: 1 e0
LayerCount: 2
Back
Fore
SplineSet
126 600 m 29xf1
 126 400 l 25
 276 400 l 25
 276 600 l 25
 126 600 l 29xf1
89 600 m 25
 89 700 l 25
 351 700 l 25
 351 600 l 25xf2
 389 600 l 25
 389 300 l 25xf1
 350 300 l 25
 351 200 l 25xf2
 314 200 l 25
 314 100 l 25xf4
 276 100 l 25
 276 0 l 25
 164 0 l 25
 164 100 l 25xf8
 201 100 l 25
 201 200 l 25xf4
 239 200 l 25
 239 300 l 25xf2
 89 300 l 25
 89 400 l 25
 51 400 l 25
 51 600 l 25
 89 600 l 25
EndSplineSet
EndChar

StartChar: colon
Encoding: 58 58 21
Width: 440
Flags: HW
HStem: 0 21G<182 258> 480 20G<182 257>
VStem: 182 75<0 200 300 500>
LayerCount: 2
Back
Fore
SplineSet
182 200 m 29
 258 200 l 25
 258 0 l 25
 182 0 l 25
 182 200 l 29
182 500 m 25
 257 500 l 25
 258 300 l 25
 182 300 l 25
 182 500 l 25
EndSplineSet
EndChar

StartChar: semicolon
Encoding: 59 59 22
Width: 440
Flags: HW
HStem: -200 100<164 201> 480 20G<201 276>
VStem: 164 75<-200 -100> 201 75<-100 100 300 500>
LayerCount: 2
Back
Fore
SplineSet
201 100 m 1xd0
 276 100 l 25
 276 -100 l 1xd0
 239 -100 l 25
 239 -200 l 25
 164 -200 l 25
 164 -100 l 25xe0
 201 -100 l 25
 201 100 l 1xd0
201 500 m 25
 276 500 l 25
 276 300 l 25
 201 300 l 25
 201 500 l 25
EndSplineSet
EndChar

StartChar: less
Encoding: 60 60 23
Width: 440
Flags: HW
HStem: 0 100<314 389> 100 100<239 276> 200 100<164 201> 300 100<51 126> 400 100<164 201> 500 100<239 276> 600 100<314 389>
VStem: 51 112<300 400> 126 112<200 300 400 500> 201 112<100 200 500 600> 276 112<0 100 600 700>
LayerCount: 2
Back
Fore
SplineSet
276 700 m 29x0220
 389 700 l 25
 389 600 l 25x0220
 314 600 l 25x0240
 314 500 l 25x0440
 239 500 l 25x0480
 239 400 l 25x0880
 164 400 l 25
 164 300 l 25x29
 239 300 l 25
 239 200 l 25x5080
 314 200 l 25
 314 100 l 25xa040
 389 100 l 25
 389 0 l 25
 276 0 l 25xa020
 276 100 l 25x4020
 201 100 l 25x4040
 201 200 l 25x2040
 126 200 l 25x2080
 126 300 l 25x1080
 51 300 l 25
 51 400 l 25x11
 126 400 l 25
 126 500 l 25x1480
 201 500 l 25
 201 600 l 25x0a40
 276 600 l 25x0420
 276 700 l 29x0220
EndSplineSet
EndChar

StartChar: equal
Encoding: 61 61 24
Width: 440
Flags: HW
HStem: 200 100<70 370> 400 100<70 370>
LayerCount: 2
Back
Fore
SplineSet
70 500 m 29
 370 500 l 25
 370 400 l 25
 70 400 l 25
 70 500 l 29
70 300 m 25
 370 300 l 25
 370 200 l 25
 70 200 l 25
 70 300 l 25
EndSplineSet
EndChar

StartChar: greater
Encoding: 62 62 25
Width: 440
Flags: HW
HStem: 0 100<51 126> 100 100<164 201> 200 100<239 276> 300 100<314 389> 400 100<239 276> 500 100<164 201> 600 100<51 126>
VStem: 51 112<0 100 600 700> 126 112<100 200 500 600> 201 112<200 300 400 500> 276 112<300 400>
LayerCount: 2
Back
Fore
SplineSet
51 600 m 29x03
 51 700 l 25
 164 700 l 25x03
 164 600 l 25x05
 239 600 l 25
 239 500 l 25x0a80
 314 500 l 25
 314 400 l 25x1440
 389 400 l 25
 389 300 l 25x1420
 314 300 l 25x1440
 314 200 l 25x2040
 239 200 l 25x2080
 239 100 l 25x4080
 164 100 l 25x41
 164 0 l 25
 51 0 l 25
 51 100 l 25x81
 126 100 l 25
 126 200 l 25xa080
 201 200 l 25
 201 300 l 25x5040
 276 300 l 25
 276 400 l 25x2820
 201 400 l 25x2840
 201 500 l 25x0440
 126 500 l 25x0480
 126 600 l 25x0280
 51 600 l 29x03
EndSplineSet
EndChar

StartChar: question
Encoding: 63 63 26
Width: 440
Flags: HW
HStem: 0 100<201 276> 200 100<201 276> 300 100<276 314> 600 100<126 314>
VStem: 51 75<400 600> 201 75<0 100 200 300> 276 75<300 400> 314 75<400 600>
LayerCount: 2
Back
Fore
SplineSet
201 300 m 1xdc
 276 300 l 1
 276 200 l 1
 201 200 l 1
 201 300 l 1xdc
276 0 m 25
 201 0 l 1
 201 100 l 25
 276 100 l 1
 276 0 l 25
51 600 m 25
 89 600 l 25
 89 700 l 25
 351 700 l 25
 351 600 l 25xba
 389 600 l 25
 389 400 l 25xb9
 350 400 l 25
 351 300 l 25xba
 276 300 l 25xdc
 276 400 l 25xba
 314 400 l 25
 314 600 l 25
 126 600 l 25
 126 400 l 25
 51 400 l 25xb9
 51 600 l 25
EndSplineSet
EndChar

StartChar: at
Encoding: 64 64 27
Width: 440
Flags: HW
HStem: -100 100<145 370> 100 100<258 332> 400 100<258 332> 600 100<145 332>
VStem: 32 75<100 500> 70 75<0 100 500 600> 182 75<200 400> 220 188<100 200 400 500> 332 75<200 400 500 600>
LayerCount: 2
Back
Fore
SplineSet
258 400 m 29xf280
 258 200 l 25
 332 200 l 25
 332 400 l 25
 258 400 l 29xf280
108 600 m 25xf8
 108 700 l 25
 370 700 l 25
 370 600 l 25
 408 600 l 25xf880
 408 100 l 25
 220 100 l 25
 220 200 l 25xf1
 182 200 l 25
 182 400 l 25xf2
 220 400 l 25
 220 500 l 25xf1
 332 500 l 25
 332 600 l 25
 145 600 l 25
 145 500 l 25xf480
 108 500 l 25
 108 100 l 25xf8
 145 100 l 25
 145 0 l 25xf4
 370 0 l 25
 370 -100 l 25
 108 -100 l 25
 108 0 l 25xf8
 70 0 l 25
 70 100 l 25xf4
 32 100 l 25
 32 500 l 25xf8
 70 500 l 25
 70 600 l 25xf4
 108 600 l 25xf8
EndSplineSet
EndChar

StartChar: A
Encoding: 65 65 28
Width: 440
Flags: HW
HStem: 0 21G<32 108 332 408> 200 100<108 332> 600 100<182 258>
VStem: 32 75<0 200 300 400> 70 75<400 500> 108 75<500 600> 258 75<500 600> 295 75<400 500> 332 75<0 200 300 400>
LayerCount: 2
Back
Fore
SplineSet
108 400 m 29xf0
 108 300 l 25
 332 300 l 25
 332 400 l 25xf080
 295 400 l 25
 295 500 l 25xe1
 258 500 l 25
 258 600 l 25
 182 600 l 25
 182 500 l 25xe6
 145 500 l 25
 145 400 l 25xe8
 108 400 l 29xf0
108 0 m 25
 32 0 l 25
 32 400 l 25xf080
 70 400 l 25
 70 500 l 25xe8
 108 500 l 25
 108 600 l 25xe4
 145 600 l 25
 145 700 l 25
 294 700 l 25
 295 600 l 25xe9
 332 600 l 25
 332 500 l 25xe2
 370 500 l 25
 370 400 l 25xe1
 408 400 l 25
 408 0 l 25
 332 0 l 25
 332 200 l 25
 108 200 l 25
 108 0 l 25
EndSplineSet
EndChar

StartChar: B
Encoding: 66 66 29
Width: 440
Flags: HW
HStem: 0 100<126 314> 300 100<126 314> 600 100<126 314>
VStem: 51 300<0 100 300 400 600 700> 51 75<100 300 400 600> 314 75<100 300 400 600>
CounterMasks: 1 e0
LayerCount: 2
Back
Fore
SplineSet
126 600 m 29xec
 126 400 l 25
 314 400 l 25
 314 600 l 25
 126 600 l 29xec
126 300 m 25
 126 100 l 25
 314 100 l 25
 314 300 l 25
 126 300 l 25
51 0 m 25xf0
 51 700 l 25
 351 700 l 25
 351 600 l 25xf0
 389 600 l 25
 389 400 l 25xe4
 351 400 l 25
 351 300 l 25xf0
 389 300 l 25
 389 100 l 25xe4
 351 100 l 25
 351 0 l 25
 51 0 l 25xf0
EndSplineSet
EndChar

StartChar: C
Encoding: 67 67 30
Width: 440
Flags: HW
HStem: 0 100<164 314> 100 100<351 389> 500 100<351 389> 600 100<164 314>
VStem: 51 75<200 500> 89 75<100 200 500 600> 126 225<0 100 600 700> 314 75<100 200 500 600>
LayerCount: 2
Back
Fore
SplineSet
126 700 m 29x12
 351 700 l 25x12
 351 600 l 25x22
 389 600 l 25
 389 500 l 25
 314 500 l 25x21
 314 600 l 25
 164 600 l 25x15
 164 500 l 25x25
 126 500 l 25
 126 200 l 25x68
 164 200 l 25x64
 164 100 l 25
 314 100 l 25x85
 314 200 l 25
 389 200 l 25
 389 100 l 25x45
 351 100 l 25x42
 351 0 l 25
 126 0 l 25x82
 126 100 l 25x42
 89 100 l 25
 89 200 l 25x44
 51 200 l 25
 51 500 l 25x68
 89 500 l 25x64
 89 600 l 25x14
 126 600 l 25
 126 700 l 29x12
EndSplineSet
EndChar

StartChar: D
Encoding: 68 68 31
Width: 440
Flags: HW
HStem: 0 100<126 276> 600 100<126 276>
VStem: 51 75<100 600> 276 75<100 200 500 600> 314 75<200 500>
LayerCount: 2
Back
Fore
SplineSet
126 600 m 29xf0
 126 100 l 25
 276 100 l 25
 276 200 l 25xf0
 314 200 l 25
 314 500 l 25xe8
 276 500 l 25
 276 600 l 25
 126 600 l 29xf0
51 700 m 25
 314 700 l 25
 314 600 l 25xe8
 351 600 l 25
 351 500 l 25xf0
 389 500 l 25
 389 200 l 25xe8
 351 200 l 25
 351 100 l 25xf0
 314 100 l 25
 314 0 l 25xe8
 51 0 l 25
 51 700 l 25
EndSplineSet
EndChar

StartChar: E
Encoding: 69 69 32
Width: 440
Flags: HW
HStem: 0 100<126 389> 300 100<126 314> 600 100<126 389>
VStem: 51 75<100 300 400 600>
CounterMasks: 1 e0
LayerCount: 2
Back
Fore
SplineSet
389 600 m 29
 126 600 l 25
 126 400 l 25
 314 400 l 25
 314 300 l 25
 126 300 l 25
 126 100 l 25
 389 100 l 25
 389 0 l 25
 51 0 l 25
 51 700 l 25
 389 700 l 25
 389 600 l 29
EndSplineSet
EndChar

StartChar: F
Encoding: 70 70 33
Width: 440
Flags: HW
HStem: 0 21G<51 126> 300 100<126 314> 600 100<126 389>
VStem: 51 75<0 300 400 600>
LayerCount: 2
Back
Fore
SplineSet
126 0 m 29
 51 0 l 25
 51 700 l 25
 389 700 l 25
 389 600 l 25
 126 600 l 25
 126 400 l 25
 314 400 l 25
 314 300 l 25
 126 300 l 25
 126 0 l 29
EndSplineSet
EndChar

StartChar: G
Encoding: 71 71 34
Width: 440
Flags: HW
HStem: 0 100<126 314> 200 100<201 314> 500 100<351 389> 600 100<126 314>
VStem: 51 75<100 600> 314 75<100 200 500 600>
LayerCount: 2
Back
Fore
SplineSet
314 600 m 29xdc
 126 600 l 25
 126 100 l 25
 314 100 l 25
 314 200 l 25
 201 200 l 25
 201 300 l 25
 389 300 l 25
 389 100 l 25
 351 100 l 25
 351 0 l 25
 89 0 l 25
 89 100 l 25
 51 100 l 25
 51 600 l 25
 89 600 l 25
 89 700 l 25
 351 700 l 25xdc
 351 600 l 25
 389 600 l 25
 389 500 l 25
 314 500 l 25xec
 314 600 l 29xdc
EndSplineSet
EndChar

StartChar: H
Encoding: 72 72 35
Width: 440
Flags: HW
HStem: 0 21G<51 126 314 389> 300 100<126 314> 680 20G<51 126 314 389>
VStem: 51 75<0 300 400 700> 314 75<0 300 400 700>
LayerCount: 2
Back
Fore
SplineSet
51 700 m 29
 126 700 l 25
 126 400 l 25
 314 400 l 25
 314 700 l 25
 389 700 l 25
 389 0 l 25
 314 0 l 25
 314 300 l 25
 126 300 l 25
 126 0 l 25
 51 0 l 25
 51 700 l 29
EndSplineSet
EndChar

StartChar: I
Encoding: 73 73 36
Width: 440
Flags: HW
HStem: 0 100<70 182 258 370> 600 100<70 182 258 370>
VStem: 182 75<100 600>
LayerCount: 2
Back
Fore
SplineSet
70 700 m 29
 370 700 l 25
 370 600 l 25
 258 600 l 25
 258 100 l 25
 370 100 l 25
 370 0 l 25
 70 0 l 25
 70 100 l 25
 182 100 l 25
 182 600 l 25
 70 600 l 25
 70 700 l 29
EndSplineSet
EndChar

StartChar: J
Encoding: 74 74 37
Width: 440
Flags: HW
HStem: 0 100<126 314> 100 100<51 89> 680 20G<314 389>
VStem: 51 75<100 200> 314 75<100 700>
LayerCount: 2
Back
Fore
SplineSet
314 700 m 29xb8
 389 700 l 25
 389 100 l 25
 351 100 l 25x78
 351 0 l 25
 89 0 l 25xb8
 89 100 l 25
 51 100 l 25
 51 200 l 25
 126 200 l 25x78
 126 100 l 25
 314 100 l 25
 314 700 l 29xb8
EndSplineSet
EndChar

StartChar: K
Encoding: 75 75 38
Width: 440
Flags: HW
HStem: 0 100<314 389> 200 100<201 239> 300 100<126 164> 400 100<201 239> 600 100<314 389>
VStem: 51 75<0 300 400 700> 164 112<200 300 400 500> 239 75<100 200 500 600> 276 112<0 100 600 700>
LayerCount: 2
Back
Fore
SplineSet
51 700 m 29xae
 126 700 l 25
 126 400 l 25
 164 400 l 25xae
 164 500 l 25x9e
 239 500 l 25
 239 600 l 25x9d
 276 600 l 25
 276 700 l 25
 389 700 l 25
 389 600 l 25x9c80
 314 600 l 25
 314 500 l 25x9d
 276 500 l 25
 276 400 l 25
 201 400 l 25
 201 300 l 25xde
 276 300 l 25xae
 276 200 l 25xce
 314 200 l 25
 314 100 l 25xcd
 389 100 l 25
 389 0 l 25
 276 0 l 25
 276 100 l 25xcc80
 239 100 l 25
 239 200 l 25xcd
 164 200 l 25xce
 164 300 l 25
 126 300 l 25
 126 0 l 25
 51 0 l 25
 51 700 l 29xae
EndSplineSet
EndChar

StartChar: L
Encoding: 76 76 39
Width: 440
Flags: HW
HStem: 0 100<126 389> 680 20G<51 126>
VStem: 51 75<100 700>
LayerCount: 2
Back
Fore
SplineSet
51 700 m 29
 126 700 l 25
 126 100 l 25
 389 100 l 25
 389 0 l 25
 51 0 l 25
 51 700 l 29
EndSplineSet
EndChar

StartChar: M
Encoding: 77 77 40
Width: 440
Flags: HW
HStem: 0 21G<32 108 332 408> 680 20G<32 145 295 408>
VStem: 32 112<600 700> 32 75<0 500> 182 75<300 400> 295 112<600 700> 332 75<0 500>
LayerCount: 2
Back
Fore
SplineSet
108 0 m 29xd8
 32 0 l 25xd8
 32 700 l 25
 145 700 l 25
 145 600 l 25
 182 600 l 25
 182 500 l 25
 258 500 l 25
 258 600 l 25
 295 600 l 25
 295 700 l 25
 408 700 l 25xec
 408 0 l 25
 332 0 l 25
 332 500 l 25xca
 295 500 l 25
 295 400 l 25
 258 400 l 25
 258 300 l 25
 182 300 l 25
 182 400 l 25
 145 400 l 25
 145 500 l 25xec
 108 500 l 25
 108 0 l 29xd8
EndSplineSet
EndChar

StartChar: N
Encoding: 78 78 41
Width: 440
Flags: HW
HStem: 0 21G<32 108 295 408> 680 20G<32 145 332 408>
VStem: 32 112<600 700> 32 75<0 500> 145 75<400 500> 182 75<300 400> 220 75<200 300> 295 112<0 100> 332 75<200 700>
LayerCount: 2
Back
Fore
SplineSet
32 700 m 29xe0
 145 700 l 25
 145 600 l 25
 182 600 l 25
 182 500 l 25xe4
 220 500 l 25
 220 400 l 25xc8
 258 400 l 25
 258 300 l 25xc4
 295 300 l 25
 295 200 l 25
 332 200 l 25
 332 700 l 25
 408 700 l 25xc280
 408 0 l 25
 295 0 l 25
 295 100 l 25
 258 100 l 25
 258 200 l 25xc5
 220 200 l 25
 220 300 l 25xc2
 182 300 l 25
 182 400 l 25xc4
 145 400 l 25
 145 500 l 25
 108 500 l 25
 108 0 l 25
 32 0 l 25xd8
 32 700 l 29xe0
EndSplineSet
EndChar

StartChar: O
Encoding: 79 79 42
Width: 440
Flags: HW
HStem: 0 100<145 295> 600 100<145 295>
VStem: 32 75<200 500> 70 75<100 200 500 600> 108 225<0 100 600 700> 295 75<100 200 500 600> 332 75<200 500>
LayerCount: 2
Back
Fore
SplineSet
295 100 m 29xd4
 295 200 l 25xd4
 332 200 l 25
 332 500 l 25xc2
 295 500 l 25
 295 600 l 25
 145 600 l 25
 145 500 l 25xd4
 108 500 l 25
 108 200 l 25xe0
 145 200 l 25
 145 100 l 25
 295 100 l 29xd4
332 0 m 25xc8
 108 0 l 25
 108 100 l 25xc8
 70 100 l 25
 70 200 l 25xd0
 32 200 l 25
 32 500 l 25xe0
 70 500 l 25
 70 600 l 25xd0
 108 600 l 25
 108 700 l 25
 332 700 l 25
 332 600 l 25xc8
 370 600 l 25
 370 500 l 25xc4
 408 500 l 25
 408 200 l 25xc2
 370 200 l 25
 370 100 l 25xc4
 332 100 l 25
 332 0 l 25xc8
EndSplineSet
EndChar

StartChar: P
Encoding: 80 80 43
Width: 440
Flags: HW
HStem: 0 21G<51 126> 300 100<126 314> 600 100<126 314>
VStem: 51 75<0 300 400 600> 314 75<400 600>
LayerCount: 2
Back
Fore
SplineSet
126 600 m 29
 126 400 l 25
 314 400 l 25
 314 600 l 25
 126 600 l 29
51 700 m 25
 351 700 l 25
 351 650 l 25
 389 650 l 25
 389 400 l 25
 351 400 l 25
 351 300 l 25
 126 300 l 25
 126 0 l 25
 51 0 l 25
 51 700 l 25
EndSplineSet
EndChar

StartChar: Q
Encoding: 81 81 44
Width: 440
Flags: HW
HStem: -200 100<332 408> 0 100<108 220> 600 100<108 332>
VStem: 32 75<100 600> 220 75<100 200> 258 75<-100 0> 295 112<-200 -100> 332 75<100 600>
LayerCount: 2
Back
Fore
SplineSet
108 600 m 29xf9
 108 100 l 25
 220 100 l 25
 220 200 l 25
 295 200 l 25
 295 100 l 25
 332 100 l 25
 332 600 l 25
 108 600 l 29xf9
70 700 m 25
 370 700 l 25
 370 600 l 25
 408 600 l 25
 408 100 l 25xf1
 370 100 l 25
 370 0 l 25
 332 0 l 25
 332 -100 l 25xf4
 408 -100 l 25
 408 -200 l 25
 295 -200 l 25
 295 -100 l 25xf2
 258 -100 l 25
 258 0 l 25xf4
 70 0 l 25
 70 100 l 25
 32 100 l 25
 32 600 l 25
 70 600 l 25
 70 700 l 25
EndSplineSet
EndChar

StartChar: R
Encoding: 82 82 45
Width: 440
Flags: HW
HStem: 0 100<314 389> 300 100<126 201 276 314> 600 100<126 314>
VStem: 51 75<0 300 400 600> 201 75<200 300> 239 75<100 200> 276 112<0 100> 314 75<400 600>
CounterMasks: 1 e0
LayerCount: 2
Back
Fore
SplineSet
126 600 m 29xf1
 126 400 l 25
 314 400 l 25
 314 600 l 25
 126 600 l 29xf1
51 700 m 25
 351 700 l 25
 351 650 l 25
 389 650 l 25
 389 400 l 25
 351 400 l 25
 351 300 l 25
 276 300 l 25
 276 200 l 25xf9
 314 200 l 25
 314 100 l 25xf4
 389 100 l 25
 389 0 l 25
 276 0 l 25
 276 100 l 25xf2
 239 100 l 25
 239 200 l 25xf4
 201 200 l 25
 201 300 l 25xf8
 126 300 l 25
 126 0 l 25
 51 0 l 25
 51 700 l 25
EndSplineSet
EndChar

StartChar: S
Encoding: 83 83 46
Width: 440
Flags: HW
HStem: 0 100<89 314> 300 100<126 314> 600 100<126 351>
VStem: 51 75<400 600> 89 262<0 100 300 400 600 700> 314 75<100 300>
CounterMasks: 1 e0
LayerCount: 2
Back
Fore
SplineSet
89 600 m 29xe8
 89 700 l 25
 351 700 l 25
 351 600 l 25xe8
 126 600 l 25
 126 400 l 25xf0
 351 400 l 25
 351 300 l 25xe8
 389 300 l 25
 389 100 l 25xe4
 351 100 l 25
 351 0 l 25
 89 0 l 25
 89 100 l 25xe8
 314 100 l 25
 314 300 l 25xe4
 89 300 l 25
 89 400 l 25xe8
 51 400 l 25
 51 600 l 25xf0
 89 600 l 29xe8
EndSplineSet
EndChar

StartChar: T
Encoding: 84 84 47
Width: 440
Flags: HW
HStem: 0 21G<182 258> 600 100<32 182 258 408>
VStem: 182 75<0 600>
LayerCount: 2
Back
Fore
SplineSet
32 700 m 1
 408 700 l 5
 408 600 l 1
 258 600 l 1
 258 0 l 25
 182 0 l 25
 182 600 l 1
 32 600 l 1
 32 700 l 1
EndSplineSet
EndChar

StartChar: U
Encoding: 85 85 48
Width: 440
Flags: HW
HStem: 0 100<126 314> 680 20G<51 126 314 389>
VStem: 51 75<100 700> 314 75<100 700>
LayerCount: 2
Back
Fore
SplineSet
51 700 m 29
 126 700 l 25
 126 100 l 25
 314 100 l 25
 314 700 l 25
 389 700 l 25
 389 100 l 25
 351 100 l 25
 351 0 l 25
 89 0 l 25
 89 100 l 25
 51 100 l 25
 51 700 l 29
EndSplineSet
EndChar

StartChar: V
Encoding: 86 86 49
Width: 440
Flags: HW
HStem: 0 21G<182 258> 680 20G<32 108 332 408>
VStem: 32 75<500 700> 70 75<300 500> 108 75<200 300> 182 75<0 100> 258 75<200 300> 295 75<300 500> 332 75<500 700>
LayerCount: 2
Back
Fore
SplineSet
32 700 m 29xe0
 108 700 l 25
 108 500 l 25xe0
 145 500 l 25
 145 300 l 25xd0
 182 300 l 25
 182 200 l 25
 258 200 l 25
 258 300 l 25xca
 295 300 l 25
 295 500 l 25xc1
 332 500 l 25
 332 700 l 25
 408 700 l 25
 408 500 l 25xc080
 370 500 l 25
 370 300 l 25xc1
 332 300 l 25
 332 200 l 25xc2
 295 200 l 25
 295 100 l 25
 258 100 l 25
 258 0 l 25
 182 0 l 25
 182 100 l 25
 145 100 l 25
 145 200 l 25xd5
 108 200 l 25
 108 300 l 25xc8
 70 300 l 25
 70 500 l 25xd0
 32 500 l 25
 32 700 l 29xe0
EndSplineSet
EndChar

StartChar: W
Encoding: 87 87 50
Width: 440
Flags: HW
HStem: 0 21G<70 145 295 370> 680 20G<32 108 332 408>
VStem: 32 75<200 700> 70 112<100 200> 70 75<0 100> 182 75<300 400> 258 112<100 200> 295 75<0 100> 332 75<200 700>
LayerCount: 2
Back
Fore
SplineSet
32 700 m 29xe0
 108 700 l 25
 108 200 l 25xe0
 145 200 l 25
 145 300 l 25
 182 300 l 25
 182 400 l 25
 258 400 l 25
 258 300 l 25
 295 300 l 25
 295 200 l 25xcd
 332 200 l 25
 332 700 l 25
 408 700 l 25
 408 200 l 25xc080
 370 200 l 25xc2
 370 0 l 25
 295 0 l 25
 295 100 l 25xc1
 258 100 l 25
 258 200 l 25
 182 200 l 25
 182 100 l 25xd2
 145 100 l 25
 145 0 l 25
 70 0 l 25xc8
 70 200 l 25xd0
 32 200 l 25
 32 700 l 29xe0
EndSplineSet
EndChar

StartChar: X
Encoding: 88 88 51
Width: 440
Flags: HW
HStem: 0 100<70 108 332 370> 600 100<70 108 332 370>
VStem: 70 75<0 100 600 700> 108 75<100 200 500 600> 145 150<200 300 400 500> 258 75<100 200 500 600> 295 75<0 100 600 700>
LayerCount: 2
Back
Fore
SplineSet
70 700 m 29xe0
 145 700 l 25
 145 600 l 25xe0
 182 600 l 25
 182 500 l 25
 258 500 l 25
 258 600 l 25xd4
 295 600 l 25
 295 700 l 25
 370 700 l 25
 370 600 l 25xc2
 332 600 l 25
 332 500 l 25xc4
 295 500 l 25
 295 400 l 25xc8
 258 400 l 25
 258 300 l 25xc4
 295 300 l 25
 295 200 l 25xc8
 332 200 l 25
 332 100 l 25xc4
 370 100 l 25
 370 0 l 25
 295 0 l 25
 295 100 l 25xc2
 258 100 l 25
 258 200 l 25
 182 200 l 25
 182 100 l 25xd4
 145 100 l 25
 145 0 l 25
 70 0 l 25
 70 100 l 25xe0
 108 100 l 25
 108 200 l 25xd0
 145 200 l 25
 145 300 l 25xc8
 182 300 l 25
 182 400 l 25xd0
 145 400 l 25
 145 500 l 25xc8
 108 500 l 25
 108 600 l 25xd0
 70 600 l 25
 70 700 l 29xe0
EndSplineSet
EndChar

StartChar: Y
Encoding: 89 89 52
Width: 440
Flags: HW
HStem: 0 21G<182 258> 600 100<32 70 370 408>
VStem: 32 75<600 700> 70 75<500 600> 108 75<400 500> 182 75<0 300> 258 75<400 500> 295 75<500 600> 332 75<600 700>
LayerCount: 2
Back
Fore
SplineSet
32 700 m 29xe0
 108 700 l 25
 108 600 l 25xe0
 145 600 l 25
 145 500 l 25xd0
 182 500 l 25
 182 400 l 25
 258 400 l 25
 258 500 l 25xca
 295 500 l 25
 295 600 l 25xc1
 332 600 l 25
 332 700 l 25
 408 700 l 25
 408 600 l 25xc080
 370 600 l 25
 370 500 l 25xc1
 332 500 l 25
 332 400 l 25xc2
 295 400 l 25
 295 300 l 25
 258 300 l 25
 258 0 l 25
 182 0 l 25
 182 300 l 25
 145 300 l 25
 145 400 l 25xd5
 108 400 l 25
 108 500 l 25xc8
 70 500 l 25
 70 600 l 25xd0
 32 600 l 25
 32 700 l 29xe0
EndSplineSet
EndChar

StartChar: Z
Encoding: 90 90 53
Width: 440
Flags: HW
HStem: 0 100<70 108 182 370> 600 100<70 258 332 370>
VStem: 108 75<100 200> 145 75<200 300> 182 75<300 400> 220 75<400 500> 258 75<500 600>
LayerCount: 2
Back
Fore
SplineSet
70 700 m 29xc2
 370 700 l 25
 370 600 l 25
 332 600 l 25
 332 500 l 25xc2
 295 500 l 25
 295 400 l 25xc4
 258 400 l 25
 258 300 l 25xc8
 220 300 l 25
 220 200 l 25xd0
 182 200 l 25
 182 100 l 25
 370 100 l 25
 370 0 l 25
 70 0 l 25
 70 100 l 25
 108 100 l 25
 108 200 l 25xe0
 145 200 l 25
 145 300 l 25xd0
 182 300 l 25
 182 400 l 25xc8
 220 400 l 25
 220 500 l 25xc4
 258 500 l 25
 258 600 l 25
 70 600 l 25
 70 700 l 29xc2
EndSplineSet
EndChar

StartChar: a
Encoding: 97 97 54
Width: 440
Flags: HW
HStem: 0 100<108 295 370 407> 100 100<32 70> 200 100<108 295> 400 100<70 295>
VStem: 32 75<100 200> 295 75<100 200 300 400>
LayerCount: 2
Back
Fore
SplineSet
108 200 m 29xbc
 108 100 l 25
 295 100 l 25
 295 200 l 25
 108 200 l 29xbc
70 500 m 25
 332 500 l 25
 332 400 l 25
 370 400 l 25
 370 100 l 25
 407 100 l 25
 408 0 l 25
 70 0 l 25xbc
 70 100 l 25
 32 100 l 25
 32 200 l 25
 70 200 l 25x5c
 70 300 l 25
 295 300 l 25
 295 400 l 25
 70 400 l 25
 70 500 l 25
EndSplineSet
EndChar

StartChar: b
Encoding: 98 98 55
Width: 440
Flags: HW
HStem: 0 100<126 314> 300 100<126 164> 400 100<164 314> 680 20G<51 126>
VStem: 51 112<300 400> 51 75<100 300 400 700> 314 75<100 400>
LayerCount: 2
Back
Fore
SplineSet
314 400 m 29xb6
 164 400 l 25
 164 300 l 25xda
 126 300 l 25xd6
 126 100 l 25
 314 100 l 25
 314 400 l 29xb6
51 700 m 25xb6
 126 700 l 25
 126 400 l 25xd6
 164 400 l 25xda
 164 500 l 25xba
 351 500 l 25
 351 400 l 25
 389 400 l 25
 389 100 l 25
 351 100 l 25
 351 0 l 25
 51 0 l 25
 51 700 l 25xb6
EndSplineSet
EndChar

StartChar: c
Encoding: 99 99 56
Width: 440
Flags: HW
HStem: 0 100<164 389> 200 100<51 89> 400 100<164 389>
VStem: 51 75<200 300> 89 75<100 200 300 400>
CounterMasks: 1 e0
LayerCount: 2
Back
Fore
SplineSet
126 500 m 29xf0
 389 500 l 25
 389 400 l 25
 164 400 l 25
 164 300 l 25xe8
 126 300 l 25
 126 200 l 25xf0
 164 200 l 25
 164 100 l 25xe8
 389 100 l 25
 389 0 l 25
 126 0 l 25
 126 100 l 25xf0
 89 100 l 25
 89 200 l 25xe8
 51 200 l 25
 51 300 l 25xf0
 89 300 l 25
 89 400 l 25xe8
 126 400 l 25
 126 500 l 29xf0
EndSplineSet
EndChar

StartChar: d
Encoding: 100 100 57
Width: 440
Flags: HW
HStem: 0 100<126 314> 300 100<276 314> 400 100<126 276> 680 20G<314 389>
VStem: 51 75<100 400> 276 112<300 400> 314 75<100 300 400 700>
LayerCount: 2
Back
Fore
SplineSet
126 100 m 29xbc
 314 100 l 25
 314 300 l 25xda
 276 300 l 25
 276 400 l 25xdc
 126 400 l 25
 126 100 l 29xbc
314 700 m 25
 389 700 l 25
 389 0 l 25xda
 89 0 l 25
 89 100 l 25
 51 100 l 25
 51 400 l 25
 89 400 l 25
 89 500 l 25
 276 500 l 25xbc
 276 400 l 25xdc
 314 400 l 25
 314 700 l 25
EndSplineSet
EndChar

StartChar: e
Encoding: 101 101 58
Width: 440
Flags: HW
HStem: 0 100<126 351> 200 100<126 314> 400 100<126 314>
VStem: 51 75<100 200 300 400> 314 75<300 400>
CounterMasks: 1 e0
LayerCount: 2
Back
Fore
SplineSet
126 400 m 1
 126 300 l 1
 314 300 l 1
 314 400 l 1
 126 400 l 1
89 400 m 1
 89 500 l 1
 350 500 l 1
 351 400 l 25
 389 400 l 25
 389 200 l 1
 126 200 l 1
 126 100 l 1
 351 100 l 1
 351 0 l 1
 89 0 l 1
 89 100 l 1
 51 100 l 1
 51 400 l 5
 89 400 l 1
EndSplineSet
EndChar

StartChar: f
Encoding: 102 102 59
Width: 440
Flags: HW
HStem: 0 21G<126 201> 300 100<51 126 201 314> 600 100<201 389>
VStem: 126 75<0 300 400 600>
LayerCount: 2
Back
Fore
SplineSet
164 600 m 29
 164 700 l 25
 389 700 l 25
 389 600 l 25
 201 600 l 25
 201 400 l 25
 314 400 l 25
 314 300 l 25
 201 300 l 25
 201 0 l 25
 126 0 l 25
 126 300 l 25
 51 300 l 25
 51 400 l 25
 126 400 l 25
 126 600 l 25
 164 600 l 29
EndSplineSet
EndChar

StartChar: g
Encoding: 103 103 60
Width: 440
Flags: HW
HStem: -200 100<89 314> 0 100<126 276> 100 100<276 314> 300 100<276 314> 400 100<126 276>
VStem: 51 75<100 400> 89 188<0 100 400 498> 276 112<100 200 300 400> 314 75<-100 100 200 300 400 500>
LayerCount: 2
Back
Fore
SplineSet
126 400 m 29x8c
 126 100 l 25xcc
 276 100 l 25xca
 276 200 l 25xa1
 314 200 l 25
 314 300 l 25xb080
 276 300 l 25xb1
 276 400 l 25xb2
 126 400 l 29x8c
89 400 m 25xaa
 89 498 l 25xaa
 276 500 l 25xa9
 276 400 l 25
 314 400 l 25x9280
 314 500 l 25
 389 500 l 25
 389 -100 l 25
 351 -100 l 25
 351 -200 l 25
 89 -200 l 25
 89 -100 l 25
 314 -100 l 25
 314 100 l 25xaa80
 276 100 l 25
 276 0 l 25
 89 0 l 25xc280
 89 100 l 25xa280
 51 100 l 25
 51 400 l 25xac
 89 400 l 25xaa
EndSplineSet
EndChar

StartChar: h
Encoding: 104 104 61
Width: 440
Flags: HW
HStem: 0 21G<51 126 314 389> 300 100<126 164> 400 100<164 314> 680 20G<51 126>
VStem: 51 112<300 400> 51 75<0 300 400 700> 314 75<0 400>
LayerCount: 2
Back
Fore
SplineSet
51 700 m 29xd6
 126 700 l 25
 126 400 l 25xd6
 164 400 l 25xda
 164 500 l 25
 351 500 l 25
 351 400 l 25
 389 400 l 25
 389 0 l 25
 314 0 l 25
 314 400 l 25xba
 164 400 l 25
 164 300 l 25xda
 126 300 l 25
 126 0 l 25
 51 0 l 25
 51 700 l 29xd6
EndSplineSet
EndChar

StartChar: i
Encoding: 105 105 62
Width: 440
Flags: HW
HStem: 0 100<108 182 257 332> 400 100<145 182> 600 100<145 258>
VStem: 145 112<400 500 600 700> 182 75<100 400>
LayerCount: 2
Back
Fore
SplineSet
145 500 m 1xf0
 258 500 l 25xf0
 257 100 l 25
 332 100 l 25
 332 0 l 25
 108 0 l 25
 108 100 l 25
 182 100 l 25
 182 400 l 1xe8
 145 400 l 29
 145 500 l 1xf0
145 700 m 25
 258 700 l 25
 258 600 l 25
 145 600 l 25
 145 700 l 25
EndSplineSet
EndChar

StartChar: j
Encoding: 106 106 63
Width: 440
Flags: HW
HStem: -200 100<126 314> -100 100<51 89> 400 100<276 314> 600 100<276 388>
VStem: 51 75<-100 0> 276 112<400 500 600 700> 314 75<-100 400>
LayerCount: 2
Back
Fore
SplineSet
276 400 m 29xbc
 276 500 l 25
 389 500 l 25xbc
 389 -100 l 25
 351 -100 l 25x7a
 351 -200 l 25
 89 -200 l 25xba
 89 -100 l 25
 51 -100 l 25
 51 0 l 25
 126 0 l 25x7a
 126 -100 l 25
 314 -100 l 25
 314 400 l 25xba
 276 400 l 29xbc
276 700 m 25
 388 700 l 25
 389 600 l 25
 276 600 l 25
 276 700 l 25
EndSplineSet
EndChar

StartChar: k
Encoding: 107 107 64
Width: 440
Flags: HW
HStem: 0 100<295 370> 200 100<145 220> 400 100<295 370> 680 20G<70 145>
VStem: 70 75<0 200 300 700> 220 75<100 200 300 400> 258 112<0 100 400 500>
LayerCount: 2
Back
Fore
SplineSet
70 700 m 29xfc
 145 700 l 25
 145 300 l 25
 220 300 l 25
 220 400 l 25xfc
 258 400 l 25
 258 500 l 25
 370 500 l 25
 370 400 l 25xfa
 295 400 l 25
 295 300 l 25xfc
 258 300 l 25
 258 200 l 25xfa
 295 200 l 25
 295 100 l 25xfc
 370 100 l 25
 370 0 l 25
 258 0 l 25
 258 100 l 25xfa
 220 100 l 25
 220 200 l 25
 145 200 l 25
 145 0 l 25
 70 0 l 25
 70 700 l 29xfc
EndSplineSet
EndChar

StartChar: l
Encoding: 108 108 65
Width: 440
Flags: HW
HStem: 0 100<70 182 258 370> 650 100<108 182>
VStem: 182 75<100 650>
LayerCount: 2
Back
Fore
SplineSet
108 750 m 29
 258 750 l 25
 258 100 l 25
 370 100 l 25
 370 0 l 25
 70 0 l 25
 70 100 l 25
 182 100 l 25
 182 650 l 25
 108 650 l 25
 108 750 l 29
EndSplineSet
EndChar

StartChar: m
Encoding: 109 109 66
Width: 440
Flags: HW
HStem: 0 21G<32 108 182 258 332 408> 400 100<108 182 258 332>
VStem: 32 75<0 400> 182 75<0 400> 332 75<0 400>
CounterMasks: 1 38
LayerCount: 2
Back
Fore
SplineSet
32 0 m 29
 32 500 l 25
 369 500 l 25
 370 400 l 25
 408 400 l 25
 408 0 l 25
 332 0 l 25
 332 400 l 25
 258 400 l 25
 258 0 l 25
 182 0 l 25
 182 400 l 25
 108 400 l 25
 108 0 l 25
 32 0 l 29
EndSplineSet
EndChar

StartChar: n
Encoding: 110 110 67
Width: 440
Flags: HW
HStem: 0 21G<51 126 314 389> 300 100<126 164> 400 100<164 314>
VStem: 51 112<300 400> 51 75<0 300 400 500> 314 75<0 400>
LayerCount: 2
Back
Fore
SplineSet
51 0 m 29xcc
 51 500 l 25
 126 500 l 25xac
 126 400 l 25xcc
 164 400 l 25xd4
 164 500 l 25
 351 500 l 25
 351 400 l 25
 389 400 l 25
 389 0 l 25
 314 0 l 25
 314 400 l 25xb4
 164 400 l 25
 164 300 l 25xd4
 126 300 l 25
 126 0 l 25
 51 0 l 29xcc
EndSplineSet
EndChar

StartChar: o
Encoding: 111 111 68
Width: 440
Flags: HW
HStem: 0 100<126 314> 400 100<126 314>
VStem: 51 75<100 400> 314 75<100 400>
LayerCount: 2
Back
Fore
SplineSet
126 400 m 29
 126 100 l 25
 314 100 l 25
 314 400 l 25
 126 400 l 29
89 500 m 25
 351 500 l 25
 351 400 l 25
 389 400 l 25
 389 100 l 25
 351 100 l 25
 351 0 l 25
 89 0 l 25
 89 100 l 25
 51 100 l 25
 51 400 l 25
 89 400 l 25
 89 500 l 25
EndSplineSet
EndChar

StartChar: p
Encoding: 112 112 69
Width: 440
Flags: HW
HStem: -200 21G<51 126> 0 100<164 314> 100 100<126 164> 300 100<126 164> 400 100<164 314>
VStem: 51 112<100 200 300 400> 51 75<-200 100 200 300 400 500> 164 188<0 100 400 500> 314 75<100 400>
LayerCount: 2
Back
Fore
SplineSet
164 300 m 29x9480
 126 300 l 25
 126 200 l 25xb2
 164 200 l 25xb4
 164 100 l 25
 314 100 l 25
 314 400 l 25xcc80
 164 400 l 25
 164 300 l 29x9480
51 500 m 25xaa
 126 500 l 25xaa
 126 400 l 25x92
 164 400 l 25x94
 164 500 l 25
 351 500 l 25
 351 400 l 25x89
 389 400 l 25
 389 100 l 25xa880
 351 100 l 25xa9
 351 0 l 25
 164 0 l 25xc1
 164 100 l 25xc4
 126 100 l 25
 126 -200 l 25
 51 -200 l 25
 51 500 l 25xaa
EndSplineSet
EndChar

StartChar: q
Encoding: 113 113 70
Width: 440
Flags: HW
HStem: -200 21G<314 389> 0 100<126 276> 100 100<276 314> 300 100<276 314> 400 100<126 276>
VStem: 51 75<100 400> 89 188<0 100 400 500> 276 112<100 200 300 400> 314 75<-200 100 200 300 400 500>
LayerCount: 2
Back
Fore
SplineSet
126 400 m 29x8c
 126 100 l 25xcc
 276 100 l 25xca
 276 200 l 25xa1
 314 200 l 25
 314 300 l 25xb080
 276 300 l 25xb1
 276 400 l 25xb2
 126 400 l 29x8c
89 500 m 25xaa
 276 500 l 25xaa
 276 400 l 25
 314 400 l 25x9280
 314 500 l 25
 389 500 l 25
 389 -200 l 25
 314 -200 l 25
 314 100 l 25xaa80
 276 100 l 25
 276 0 l 25
 89 0 l 25xc280
 89 100 l 25xa280
 51 100 l 25
 51 400 l 25xac
 89 400 l 25
 89 500 l 25xaa
EndSplineSet
EndChar

StartChar: r
Encoding: 114 114 71
Width: 440
Flags: HW
HStem: 0 21G<51 126> 300 100<126 201> 400 100<201 389>
VStem: 51 75<0 300 400 500>
LayerCount: 2
Back
Fore
SplineSet
51 0 m 29xd0
 51 500 l 25
 126 500 l 25xb0
 126 400 l 25
 201 400 l 25xd0
 201 500 l 25
 389 500 l 25
 389 400 l 25xb0
 201 400 l 25
 201 300 l 25
 126 300 l 25
 126 0 l 25
 51 0 l 29xd0
EndSplineSet
EndChar

StartChar: s
Encoding: 115 115 72
Width: 440
Flags: HW
HStem: 0 100<89 314> 100 100<351 389> 200 100<126 314> 300 100<51 89> 400 100<126 351>
VStem: 51 75<300 400> 89 262<0 100 200 300 400 500> 314 75<100 200>
LayerCount: 2
Back
Fore
SplineSet
351 400 m 1x0a
 126 400 l 1
 126 300 l 1x2c
 351 300 l 1
 351 200 l 25x52
 389 200 l 25
 389 100 l 25x51
 351 100 l 25x52
 351 0 l 1
 89 0 l 5
 89 100 l 1x82
 314 100 l 1
 314 200 l 1xa1
 89 200 l 1xa2
 89 300 l 1x12
 51 300 l 1
 51 400 l 1x14
 89 400 l 1x12
 89 500 l 1
 351 500 l 1
 351 400 l 1x0a
EndSplineSet
EndChar

StartChar: t
Encoding: 116 116 73
Width: 440
Flags: HW
HStem: 0 100<201 389> 400 100<51 126 201 314> 680 20G<126 201>
VStem: 126 75<100 400 500 700>
LayerCount: 2
Back
Fore
SplineSet
126 700 m 25
 201 700 l 25
 201 500 l 1
 314 500 l 5
 314 400 l 1
 201 400 l 1
 201 100 l 25
 389 100 l 25
 389 0 l 25
 164 0 l 25
 164 100 l 25
 126 100 l 25
 126 400 l 25
 51 400 l 25
 51 500 l 25
 126 500 l 25
 126 700 l 25
EndSplineSet
EndChar

StartChar: u
Encoding: 117 117 74
Width: 440
Flags: HW
HStem: 0 100<126 276> 100 100<276 314> 480 20G<51 126 314 389>
VStem: 51 75<100 500> 276 112<100 200> 314 75<0 100 200 500>
LayerCount: 2
Back
Fore
SplineSet
51 500 m 29x78
 126 500 l 25
 126 100 l 25
 276 100 l 25xb8
 276 200 l 25x78
 314 200 l 25x74
 314 500 l 25
 389 500 l 25
 389 0 l 25
 314 0 l 25xb4
 314 100 l 25x74
 276 100 l 25
 276 0 l 25
 89 0 l 25xb8
 89 100 l 25
 51 100 l 25
 51 500 l 29x78
EndSplineSet
EndChar

StartChar: v
Encoding: 118 118 75
Width: 440
Flags: HW
HStem: 0 21G<182 258> 400 100<32 70 370 408>
VStem: 32 75<400 500> 70 75<300 400> 108 75<200 300> 182 75<0 100> 258 75<200 300> 295 75<300 400> 332 75<400 500>
LayerCount: 2
Back
Fore
SplineSet
32 500 m 29xe0
 108 500 l 25
 108 400 l 25xe0
 145 400 l 25
 145 300 l 25xd0
 182 300 l 25
 182 200 l 25
 258 200 l 25
 258 300 l 25xca
 295 300 l 25
 295 400 l 25xc1
 332 400 l 25
 332 500 l 25
 408 500 l 25
 408 400 l 25xc080
 370 400 l 25
 370 300 l 25xc1
 332 300 l 25
 332 200 l 25xc2
 295 200 l 25
 295 100 l 25
 258 100 l 25
 258 0 l 25
 182 0 l 25
 182 100 l 25
 145 100 l 25
 145 200 l 25xd5
 108 200 l 25
 108 300 l 25xc8
 70 300 l 25
 70 400 l 25xd0
 32 400 l 25
 32 500 l 29xe0
EndSplineSet
EndChar

StartChar: w
Encoding: 119 119 76
Width: 440
Flags: HW
HStem: 0 100<145 182 258 295> 480 20G<32 108 332 408>
VStem: 32 75<200 500> 70 75<100 200> 182 75<100 400> 295 75<100 200> 332 75<200 500>
LayerCount: 2
Back
Fore
SplineSet
332 500 m 29xca
 408 500 l 25
 408 200 l 25xca
 370 200 l 25
 370 100 l 25xcc
 332 100 l 25
 332 0 l 25
 258 0 l 25
 258 100 l 25
 182 100 l 25
 182 0 l 25
 108 0 l 25
 108 100 l 25xea
 70 100 l 25
 70 200 l 25xd8
 32 200 l 25
 32 500 l 25
 108 500 l 25
 108 200 l 25xe8
 145 200 l 25
 145 100 l 25
 182 100 l 25
 182 400 l 25
 258 400 l 25
 258 100 l 25
 295 100 l 25
 295 200 l 25xdc
 332 200 l 25
 332 500 l 29xca
EndSplineSet
EndChar

StartChar: x
Encoding: 120 120 77
Width: 440
Flags: HW
HStem: 0 100<32 108 332 408> 200 100<182 258> 400 100<32 108 332 408>
VStem: 32 112<0 100 400 500> 108 75<100 200 300 400> 258 75<100 200 300 400> 295 112<0 100 400 500>
CounterMasks: 1 e0
LayerCount: 2
Back
Fore
SplineSet
32 500 m 29xf0
 145 500 l 25
 145 400 l 25xf0
 182 400 l 25
 182 300 l 25
 258 300 l 25
 258 400 l 25xec
 295 400 l 25
 295 500 l 25
 408 500 l 25
 408 400 l 25xe2
 332 400 l 25
 332 300 l 25xe4
 295 300 l 25
 295 200 l 25xe2
 332 200 l 25
 332 100 l 25xe4
 408 100 l 25
 408 0 l 25
 295 0 l 25
 295 100 l 25xe2
 258 100 l 25
 258 200 l 25
 182 200 l 25
 182 100 l 25xec
 145 100 l 25
 145 0 l 25
 32 0 l 25
 32 100 l 25xf0
 108 100 l 25
 108 200 l 25xe8
 145 200 l 25
 145 300 l 25xf0
 108 300 l 25
 108 400 l 25xe8
 32 400 l 25
 32 500 l 29xf0
EndSplineSet
EndChar

StartChar: y
Encoding: 121 121 78
Width: 440
Flags: HW
HStem: -200 100<51 126> 400 100<51 89 351 389>
VStem: 51 75<400 500> 89 75<300 400> 126 75<-100 0 200 300> 164 112<100 200> 164 75<0 100> 239 75<200 300> 276 75<300 400> 314 75<400 500>
LayerCount: 2
Back
Fore
SplineSet
51 500 m 29xe0
 126 500 l 25
 126 400 l 25xe0
 164 400 l 25
 164 300 l 25xd0
 201 300 l 25
 201 200 l 25
 239 200 l 25
 239 300 l 25xc9
 276 300 l 25
 276 400 l 25xc080
 314 400 l 25
 314 500 l 25
 389 500 l 25
 389 400 l 25xc040
 351 400 l 25
 351 300 l 25xc080
 314 300 l 25
 314 200 l 25xc1
 276 200 l 25
 276 100 l 25xc4
 239 100 l 25
 239 0 l 25xc2
 201 0 l 25
 201 -100 l 25xc8
 164 -100 l 25
 164 -200 l 25
 51 -200 l 25
 51 -100 l 25xe2
 126 -100 l 25
 126 0 l 25xc8
 164 0 l 25xc2
 164 200 l 25xc4
 126 200 l 25
 126 300 l 25xc8
 89 300 l 25
 89 400 l 25xd0
 51 400 l 25
 51 500 l 29xe0
EndSplineSet
EndChar

StartChar: z
Encoding: 122 122 79
Width: 440
Flags: HW
HStem: 0 100<70 145 220 370> 400 100<70 220 295 370>
VStem: 145 75<100 200> 182 75<200 300> 220 75<300 400>
LayerCount: 2
Back
Fore
SplineSet
70 500 m 29xc8
 370 500 l 25
 370 400 l 25
 295 400 l 25
 295 300 l 25xc8
 258 300 l 25
 258 200 l 25xd0
 220 200 l 25
 220 100 l 25
 370 100 l 25
 370 0 l 25
 70 0 l 25
 70 100 l 25
 145 100 l 25
 145 200 l 25xe0
 182 200 l 25
 182 300 l 25xd0
 220 300 l 25
 220 400 l 25
 70 400 l 25
 70 500 l 29xc8
EndSplineSet
EndChar

StartChar: edieresis
Encoding: 235 235 82
Width: 440
Flags: HW
HStem: 0 100<126 351> 200 100<126 314> 400 100<126 314> 600 100<89 164 276 351>
VStem: 51 75<100 200 300 400> 89 75<600 700> 276 75<600 700> 314 75<300 400>
LayerCount: 2
Back
Fore
SplineSet
276 700 m 25xf2
 351 700 l 25
 351 600 l 25
 276 600 l 25
 276 700 l 25xf2
89 700 m 25xf4
 164 700 l 25
 164 600 l 25
 89 600 l 25
 89 700 l 25xf4
126 400 m 1xf9
 126 300 l 1
 314 300 l 1
 314 400 l 1
 126 400 l 1xf9
89 400 m 1xf4
 90 500 l 1
 350 500 l 1
 351 400 l 25xf6
 389 400 l 25
 389 200 l 1
 126 200 l 1
 126 100 l 1xf9
 351 100 l 1
 351 0 l 1
 89 0 l 1
 89 100 l 1xf6
 51 100 l 1
 51 400 l 5xf8
 89 400 l 1xf4
EndSplineSet
EndChar

StartChar: uni0401
Encoding: 1025 1025 97
Width: 440
Flags: HW
HStem: 0 100<126 389> 300 100<126 314> 500 100<126 389> 700 100<89 164 276 351>
VStem: 51 75<100 300 400 500> 89 75<700 800> 276 75<700 800>
LayerCount: 2
Back
Fore
SplineSet
276 700 m 25xf2
 276 800 l 25
 351 800 l 25
 351 700 l 25
 276 700 l 25xf2
89 700 m 25xf6
 89 800 l 25
 164 800 l 25
 164 700 l 25
 89 700 l 25xf6
389 500 m 1
 126 500 l 1
 126 400 l 1
 314 400 l 25
 314 300 l 25
 126 300 l 25
 126 100 l 25
 389 100 l 25
 389 0 l 25
 51 0 l 1
 51 600 l 1xfa
 389 600 l 1
 389 500 l 1
EndSplineSet
EndChar

StartChar: uni0402
Encoding: 1026 1026 98
Width: 440
Flags: HW
HStem: 0 100<239 351> 300 100<201 351> 600 100<14 126 201 314>
VStem: 126 75<0 300 400 600> 351 75<100 300>
CounterMasks: 1 e0
LayerCount: 2
Back
Fore
SplineSet
126 0 m 29
 126 600 l 25
 14 600 l 25
 14 700 l 25
 314 700 l 25
 314 600 l 25
 201 600 l 25
 201 400 l 25
 389 400 l 25
 389 300 l 25
 426 300 l 25
 426 100 l 25
 389 100 l 25
 389 0 l 25
 239 0 l 25
 239 100 l 25
 351 100 l 25
 351 300 l 25
 201 300 l 25
 201 0 l 25
 126 0 l 29
EndSplineSet
EndChar

StartChar: uni0403
Encoding: 1027 1027 99
Width: 440
Flags: HW
HStem: 0 21G<51 126> 500 100<126 164 239 389> 700 100<239 276>
VStem: 51 75<0 500> 164 75<600 700> 201 75<700 800>
LayerCount: 2
Back
Fore
SplineSet
51 0 m 29xf8
 51 600 l 25
 164 600 l 25
 164 700 l 25xf8
 201 700 l 25
 201 800 l 25
 276 800 l 25
 276 700 l 25xf4
 239 700 l 25
 239 600 l 25
 389 600 l 25
 389 500 l 25
 126 500 l 25
 126 0 l 25
 51 0 l 29xf8
EndSplineSet
EndChar

StartChar: uni0404
Encoding: 1028 1028 100
Width: 440
Flags: HW
HStem: 0 100<164 314> 100 100<351 389> 300 100<126 276> 500 100<351 389> 600 100<164 314>
VStem: 51 75<200 300 400 500> 89 75<100 200 500 600> 126 225<0 100 600 700> 314 75<100 200 500 600>
LayerCount: 2
Back
Fore
SplineSet
164 500 m 29x3280
 126 500 l 25
 126 400 l 25
 276 400 l 25
 276 300 l 25
 126 300 l 25
 126 200 l 25x74
 164 200 l 25x72
 164 100 l 25
 314 100 l 25xa280
 314 200 l 25
 389 200 l 25
 389 100 l 25x6280
 351 100 l 25x61
 351 0 l 25
 126 0 l 25xa1
 126 100 l 25x61
 89 100 l 25
 89 200 l 25x62
 51 200 l 25
 51 500 l 25x74
 89 500 l 25x72
 89 600 l 25x2a
 126 600 l 25
 126 700 l 25
 351 700 l 25x29
 351 600 l 25x31
 389 600 l 25
 389 500 l 25
 314 500 l 25x3080
 314 600 l 25
 164 600 l 25x2a80
 164 500 l 29x3280
EndSplineSet
EndChar

StartChar: uni0405
Encoding: 1029 1029 101
Width: 440
Flags: HW
HStem: 0 100<89 314> 300 100<126 314> 600 100<126 351>
VStem: 51 75<400 600> 89 262<0 100 300 400 600 700> 314 75<100 300>
CounterMasks: 1 e0
LayerCount: 2
Back
Fore
SplineSet
89 600 m 29xe8
 89 700 l 25
 351 700 l 25
 351 600 l 25xe8
 126 600 l 25
 126 400 l 25xf0
 351 400 l 25
 351 300 l 25xe8
 389 300 l 25
 389 100 l 25xe4
 351 100 l 25
 351 0 l 25
 89 0 l 25
 89 100 l 25xe8
 314 100 l 25
 314 300 l 25xe4
 89 300 l 25
 89 400 l 25xe8
 51 400 l 25
 51 600 l 25xf0
 89 600 l 29xe8
EndSplineSet
EndChar

StartChar: uni0406
Encoding: 1030 1030 102
Width: 440
Flags: HW
HStem: 0 100<70 182 258 370> 600 100<70 182 258 370>
VStem: 182 75<100 600>
LayerCount: 2
Back
Fore
SplineSet
70 700 m 29
 370 700 l 25
 370 600 l 25
 258 600 l 25
 258 100 l 25
 370 100 l 25
 370 0 l 25
 70 0 l 25
 70 100 l 25
 182 100 l 25
 182 600 l 25
 70 600 l 25
 70 700 l 29
EndSplineSet
EndChar

StartChar: uni0407
Encoding: 1031 1031 103
Width: 440
Flags: HMW
LayerCount: 2
Back
Fore
SplineSet
258 650 m 29
 258 750 l 25
 332 750 l 25
 332 650 l 25
 258 650 l 29
108 650 m 25
 108 750 l 25
 182 750 l 25
 182 650 l 25
 108 650 l 25
70 500 m 25
 70 600 l 25
 370 600 l 25
 370 500 l 25
 258 500 l 25
 258 100 l 25
 370 100 l 25
 370 0 l 25
 70 0 l 25
 70 100 l 25
 182 100 l 25
 182 500 l 25
 70 500 l 25
EndSplineSet
EndChar

StartChar: uni0408
Encoding: 1032 1032 104
Width: 440
Flags: HW
HStem: 0 100<126 314> 100 100<51 89> 680 20G<314 389>
VStem: 51 75<100 200> 314 75<100 700>
LayerCount: 2
Back
Fore
SplineSet
314 700 m 29xb8
 389 700 l 25
 389 100 l 25
 351 100 l 25x78
 351 0 l 25
 89 0 l 25xb8
 89 100 l 25
 51 100 l 25
 51 200 l 25
 126 200 l 25x78
 126 100 l 25
 314 100 l 25
 314 700 l 29xb8
EndSplineSet
EndChar

StartChar: uni0409
Encoding: 1033 1033 105
Width: 440
Flags: HW
HStem: 0 100<14 51 276 351> 300 100<276 351> 600 100<126 201>
VStem: 14 75<0 100> 51 75<100 600> 201 188<0 50 300 400> 201 75<100 300 400 600> 351 75<100 300>
CounterMasks: 1 e0
LayerCount: 2
Back
Fore
SplineSet
276 100 m 29xe3
 351 100 l 25
 351 300 l 25
 276 300 l 25
 276 100 l 29xe3
14 0 m 25xf0
 14 100 l 25xf0
 51 100 l 25
 51 600 l 25xe8
 89 600 l 25
 89 700 l 25
 276 700 l 25
 276 400 l 25xf2
 389 400 l 25
 389 300 l 25xe4
 426 300 l 25
 426 50 l 25xe1
 389 50 l 25
 389 0 l 25
 201 0 l 25xe4
 201 600 l 25
 126 600 l 25
 126 100 l 25xea
 89 100 l 25
 89 0 l 25
 14 0 l 25xf0
EndSplineSet
EndChar

StartChar: uni040A
Encoding: 1034 1034 106
Width: 440
Flags: HW
HStem: 0 100<276 351> 300 100<89 201 276 351> 680 20G<14 89 201 276>
VStem: 14 75<0 300 400 700> 201 75<100 300 400 700> 351 75<100 300>
LayerCount: 2
Back
Fore
SplineSet
276 300 m 29
 276 100 l 25
 351 100 l 25
 351 300 l 25
 276 300 l 29
14 700 m 25
 89 700 l 25
 89 400 l 25
 201 400 l 25
 201 700 l 25
 276 700 l 25
 276 400 l 25
 389 400 l 25
 389 300 l 25
 426 300 l 25
 426 50 l 25
 389 50 l 25
 389 0 l 25
 201 0 l 25
 201 300 l 25
 89 300 l 25
 89 0 l 25
 14 0 l 25
 14 700 l 25
EndSplineSet
EndChar

StartChar: uni040B
Encoding: 1035 1035 107
Width: 440
Flags: HW
HStem: 0 21G<126 201 351 426> 300 100<201 351> 600 100<14 126 201 314>
VStem: 126 75<0 300 400 600> 351 75<0 300>
LayerCount: 2
Back
Fore
SplineSet
14 600 m 29
 14 700 l 25
 314 700 l 25
 314 600 l 25
 201 600 l 25
 201 400 l 25
 389 400 l 25
 389 300 l 25
 426 300 l 25
 426 0 l 25
 351 0 l 25
 351 300 l 25
 201 300 l 25
 201 0 l 25
 126 0 l 25
 126 600 l 25
 14 600 l 29
EndSplineSet
EndChar

StartChar: uni040C
Encoding: 1036 1036 108
Width: 440
Flags: HW
HStem: 0 100<295 370> 100 100<220 258> 400 100<220 258> 500 100<295 370> 600 100<182 220> 700 100<258 295>
VStem: 70 150<200 400> 70 75<0 200 400 600> 182 75<600 700> 220 75<700 800> 258 112<0 100 500 600>
LayerCount: 2
Back
Fore
SplineSet
70 0 m 29x8180
 70 600 l 25
 145 600 l 25
 145 400 l 25
 182 400 l 25xa980
 182 500 l 25x1180
 258 500 l 25x2020
 258 600 l 25x2880
 370 600 l 25
 370 500 l 25x1020
 295 500 l 25x1040
 295 400 l 25x2040
 220 400 l 25
 220 200 l 25x62
 295 200 l 25x6040
 295 100 l 25x8040
 370 100 l 25
 370 0 l 25
 258 0 l 25x8020
 258 100 l 25x4020
 182 100 l 25
 182 200 l 25
 145 200 l 25x4180
 145 0 l 25
 70 0 l 29x8180
182 600 m 25
 182 700 l 25x0880
 220 700 l 25x0840
 220 800 l 25
 295 800 l 25
 295 700 l 25x0440
 258 700 l 25x0480
 258 600 l 25
 182 600 l 25
EndSplineSet
EndChar

StartChar: uni040E
Encoding: 1038 1038 109
Width: 440
Flags: HW
HStem: 0 100<126 314> 100 100<51 89> 300 100<126 314> 680 20G<51 126 314 389> 700 100<201 239>
VStem: 51 75<100 200 400 700> 201 38<700 800> 314 75<100 300 400 700>
CounterMasks: 1 07
LayerCount: 2
Back
Fore
SplineSet
201 700 m 29x2f
 201 800 l 25
 239 800 l 25
 239 700 l 25
 201 700 l 29x2f
51 700 m 25xb7
 126 700 l 25
 126 400 l 25
 314 400 l 25
 314 700 l 25
 389 700 l 25
 389 100 l 25
 351 100 l 25x77
 351 0 l 25
 89 0 l 25xa7
 89 100 l 25
 51 100 l 25
 51 200 l 25
 126 200 l 25x67
 126 100 l 25
 314 100 l 25
 314 300 l 25
 89 300 l 25
 89 400 l 25
 51 400 l 25
 51 700 l 25xb7
EndSplineSet
EndChar

StartChar: uni040F
Encoding: 1039 1039 110
Width: 440
Flags: HW
HStem: -200 21G<182 258> 0 100<108 182 258 332> 680 20G<32 108 332 408>
VStem: 32 75<100 700> 182 75<-200 0> 332 75<100 700>
CounterMasks: 1 1c
LayerCount: 2
Back
Fore
SplineSet
32 0 m 29
 32 700 l 25
 108 700 l 25
 108 100 l 25
 332 100 l 25
 332 700 l 25
 408 700 l 25
 408 0 l 25
 258 0 l 25
 258 -200 l 25
 182 -200 l 25
 182 0 l 25
 32 0 l 29
EndSplineSet
EndChar

StartChar: uni0410
Encoding: 1040 1040 111
Width: 440
Flags: HW
HStem: 0 21G<32 108 332 408> 200 100<108 332> 600 100<182 258>
VStem: 32 75<0 200 300 400> 70 75<400 500> 108 75<500 600> 258 75<500 600> 295 75<400 500> 332 75<0 200 300 400>
LayerCount: 2
Back
Fore
SplineSet
108 400 m 29xf0
 108 300 l 25
 332 300 l 25
 332 400 l 25xf080
 295 400 l 25
 295 500 l 25xe1
 258 500 l 25
 258 600 l 25
 182 600 l 25
 182 500 l 25xe6
 145 500 l 25
 145 400 l 25xe8
 108 400 l 29xf0
108 0 m 25
 32 0 l 25
 32 400 l 25xf080
 70 400 l 25
 70 500 l 25xe8
 108 500 l 25
 108 600 l 25xe4
 145 600 l 25
 145 700 l 25
 294 700 l 25
 295 600 l 25xe9
 332 600 l 25
 332 500 l 25xe2
 370 500 l 25
 370 400 l 25xe1
 408 400 l 25
 408 0 l 25
 332 0 l 25
 332 200 l 25
 108 200 l 25
 108 0 l 25
EndSplineSet
EndChar

StartChar: uni0411
Encoding: 1041 1041 112
Width: 440
Flags: HW
HStem: 0 100<126 314> 300 100<126 314> 600 100<126 351>
VStem: 51 300<0 100 300 400 600 700> 51 75<100 300 400 600> 314 75<100 300>
CounterMasks: 1 e0
LayerCount: 2
Back
Fore
SplineSet
126 100 m 29xec
 314 100 l 25
 314 300 l 25
 126 300 l 25
 126 100 l 29xec
51 700 m 25xf0
 351 700 l 25
 351 600 l 25xf0
 126 600 l 25
 126 400 l 25xe8
 351 400 l 25
 351 300 l 25xf0
 389 300 l 25
 389 100 l 25xe4
 351 100 l 25
 351 0 l 25
 51 0 l 25
 51 700 l 25xf0
EndSplineSet
EndChar

StartChar: uni0412
Encoding: 1042 1042 113
Width: 440
Flags: HW
HStem: 0 100<126 314> 300 100<126 314> 600 100<126 314>
VStem: 51 300<0 100 300 400 600 700> 51 75<100 300 400 600> 314 75<100 300 400 600>
CounterMasks: 1 e0
LayerCount: 2
Back
Fore
SplineSet
126 600 m 29xec
 126 400 l 25
 314 400 l 25
 314 600 l 25
 126 600 l 29xec
126 300 m 25
 126 100 l 25
 314 100 l 25
 314 300 l 25
 126 300 l 25
51 0 m 25xf0
 51 700 l 25
 351 700 l 25
 351 600 l 25xf0
 389 600 l 25
 389 400 l 25xe4
 351 400 l 25
 351 300 l 25xf0
 389 300 l 25
 389 100 l 25xe4
 351 100 l 25
 351 0 l 25
 51 0 l 25xf0
EndSplineSet
EndChar

StartChar: uni0413
Encoding: 1043 1043 114
Width: 440
Flags: HW
HStem: 0 21G<51 126> 600 100<126 389>
VStem: 51 75<0 600>
LayerCount: 2
Back
Fore
SplineSet
51 700 m 29
 389 700 l 25
 389 600 l 25
 126 600 l 25
 126 0 l 25
 51 0 l 25
 51 700 l 29
EndSplineSet
EndChar

StartChar: uni0414
Encoding: 1044 1044 115
Width: 440
Flags: HW
HStem: 0 100<164 276> 600 100<201 276>
VStem: 51 75<-100 0> 89 75<100 500> 126 75<500 600> 276 75<100 600> 314 75<-100 0>
LayerCount: 2
Back
Fore
SplineSet
201 600 m 29xcc
 201 500 l 25xcc
 164 500 l 25
 164 100 l 25xd0
 276 100 l 25
 276 600 l 25
 201 600 l 29xcc
126 500 m 25
 126 600 l 25xc8
 164 600 l 25
 164 700 l 25
 351 700 l 25
 351 100 l 25xd4
 389 100 l 25
 389 -100 l 25
 314 -100 l 25
 314 0 l 25
 126 0 l 25
 126 -100 l 25
 51 -100 l 25
 51 100 l 25xe2
 89 100 l 25
 89 500 l 25xd0
 126 500 l 25
EndSplineSet
EndChar

StartChar: uni0415
Encoding: 1045 1045 116
Width: 440
Flags: HW
HStem: 0 100<126 389> 300 100<126 314> 600 100<126 389>
VStem: 51 75<100 300 400 600>
CounterMasks: 1 e0
LayerCount: 2
Back
Fore
SplineSet
389 600 m 29
 126 600 l 29
 126 400 l 29
 314 400 l 29
 314 300 l 29
 126 300 l 29
 126 100 l 29
 389 100 l 29
 389 0 l 29
 51 0 l 29
 51 700 l 29
 389 700 l 29
 389 600 l 29
EndSplineSet
EndChar

StartChar: uni0416
Encoding: 1046 1046 117
Width: 440
Flags: HW
HStem: 0 21G<32 108 182 258 332 408> 300 100<145 182 258 295> 680 20G<32 107 182 258 332 408>
VStem: 32 75<0 200 500 700> 70 75<200 300 400 500> 182 75<0 300 400 700> 295 75<200 300 400 500> 332 75<0 200 500 700>
LayerCount: 2
Back
Fore
SplineSet
32 700 m 29xf4
 107 700 l 25
 108 500 l 25xf4
 144 500 l 25
 145 400 l 25
 182 400 l 25
 182 700 l 25
 258 700 l 25
 258 400 l 25
 295 400 l 25
 295 500 l 25xee
 332 500 l 25
 332 700 l 25
 408 700 l 25
 408 500 l 25xe5
 370 500 l 25
 370 400 l 25xe6
 332 400 l 25xe5
 332 300 l 25
 370 300 l 25
 370 200 l 25xe6
 408 200 l 25
 408 0 l 25
 332 0 l 25
 332 200 l 25xe5
 295 200 l 25
 295 300 l 25
 258 300 l 25
 258 0 l 25
 182 0 l 25
 182 300 l 25
 145 300 l 25
 145 200 l 25xee
 108 200 l 25
 108 0 l 25
 32 0 l 25
 32 200 l 25xf4
 70 200 l 25
 70 300 l 25xec
 108 300 l 25
 108 400 l 25xf4
 70 400 l 25
 70 500 l 25xec
 32 500 l 25
 32 700 l 29xf4
EndSplineSet
EndChar

StartChar: uni0417
Encoding: 1047 1047 118
Width: 440
Flags: HW
HStem: 0 100<126 314> 100 100<51 89> 300 100<164 314> 500 100<51 89> 600 100<126 314>
VStem: 51 75<100 200 500 600> 314 75<100 300 400 600>
LayerCount: 2
Back
Fore
SplineSet
51 500 m 29x36
 51 600 l 1
 89 600 l 25x36
 89 700 l 25
 351 700 l 25
 351 600 l 25
 389 600 l 25
 389 400 l 25
 351 400 l 25
 351 300 l 25
 389 300 l 25
 389 100 l 25
 351 100 l 25x6e
 351 0 l 25
 89 0 l 25xa6
 89 100 l 25
 51 100 l 25
 51 200 l 25
 126 200 l 25x66
 126 100 l 25
 314 100 l 25
 314 300 l 25
 164 300 l 25
 164 400 l 25
 314 400 l 25
 314 600 l 25
 126 600 l 25xae
 126 500 l 1
 51 500 l 29x36
EndSplineSet
EndChar

StartChar: uni0418
Encoding: 1048 1048 119
Width: 440
Flags: HW
HStem: 0 21G<32 145 332 408> 680 20G<32 108 295 408>
VStem: 32 112<0 100> 32 75<200 700> 145 75<200 300> 182 75<300 400> 220 75<400 500> 295 112<600 700> 332 75<0 500>
LayerCount: 2
Back
Fore
SplineSet
32 700 m 29xd0
 108 700 l 29
 108 200 l 29
 145 200 l 29
 145 300 l 29xd8
 182 300 l 29
 182 400 l 29xc4
 220 400 l 29
 220 500 l 29xc2
 258 500 l 29
 258 600 l 29
 295 600 l 29
 295 700 l 29
 408 700 l 29xc5
 408 0 l 29
 332 0 l 29
 332 500 l 29
 295 500 l 29
 295 400 l 29xc280
 258 400 l 29
 258 300 l 29xc4
 220 300 l 29
 220 200 l 29xc8
 182 200 l 29
 182 100 l 29
 145 100 l 29
 145 0 l 29
 32 0 l 29xe4
 32 700 l 29xd0
EndSplineSet
EndChar

StartChar: uni0419
Encoding: 1049 1049 120
Width: 440
Flags: HW
HStem: 0 21G<32 145 332 408> 680 20G<32 108 295 408> 700 100<182 220>
VStem: 32 112<0 100> 32 75<200 700> 145 75<200 300> 182 75<300 400> 182 38<700 800> 220 75<400 500> 295 112<600 700> 332 75<0 500>
LayerCount: 2
Back
Fore
SplineSet
182 700 m 29xa1
 182 800 l 25
 220 800 l 25
 220 700 l 25
 182 700 l 29xa1
32 700 m 25xc8
 108 700 l 25
 108 200 l 25
 145 200 l 25
 145 300 l 25xcc
 182 300 l 25
 182 400 l 25xc2
 220 400 l 25
 220 500 l 25xc080
 258 500 l 25
 258 600 l 25
 295 600 l 25
 295 700 l 25
 408 700 l 25xc240
 408 0 l 25
 332 0 l 25
 332 500 l 25
 295 500 l 25
 295 400 l 25xc0a0
 258 400 l 25
 258 300 l 25xc2
 220 300 l 25
 220 200 l 25xc4
 182 200 l 25
 182 100 l 25
 145 100 l 25
 145 0 l 25
 32 0 l 25xd1
 32 700 l 25xc8
EndSplineSet
EndChar

StartChar: uni041A
Encoding: 1050 1050 121
Width: 440
Flags: HW
HStem: 0 100<314 389> 200 100<201 239> 300 100<126 164> 400 100<201 239> 600 100<314 389>
VStem: 51 75<0 300 400 700> 164 112<200 300 400 500> 239 75<100 200 500 600> 276 112<0 100 600 700>
LayerCount: 2
Back
Fore
SplineSet
51 700 m 29xae
 126 700 l 25
 126 400 l 25
 164 400 l 25xae
 164 500 l 25x9e
 239 500 l 25
 239 600 l 25x9d
 276 600 l 25
 276 700 l 25
 389 700 l 25
 389 600 l 25x9c80
 314 600 l 25
 314 500 l 25x9d
 276 500 l 25
 276 400 l 25
 201 400 l 25
 201 300 l 25xde
 276 300 l 25xae
 276 200 l 25xce
 314 200 l 25
 314 100 l 25xcd
 389 100 l 25
 389 0 l 25
 276 0 l 25
 276 100 l 25xcc80
 239 100 l 25
 239 200 l 25xcd
 164 200 l 25xce
 164 300 l 25
 126 300 l 25
 126 0 l 25
 51 0 l 25
 51 700 l 29xae
EndSplineSet
EndChar

StartChar: uni041B
Encoding: 1051 1051 122
Width: 440
Flags: HW
HStem: 0 100<51 89> 600 100<201 314>
VStem: 51 75<0 100> 89 75<100 200> 126 75<200 600> 314 75<0 600>
LayerCount: 2
Back
Fore
SplineSet
51 0 m 29xe4
 51 100 l 25xe4
 89 100 l 25
 89 200 l 25xd4
 126 200 l 25
 126 600 l 25xcc
 164 600 l 25
 164 700 l 25xd4
 389 700 l 25
 389 0 l 25
 314 0 l 25
 314 600 l 25
 201 600 l 25
 201 200 l 25xcc
 164 200 l 25
 164 100 l 25xd4
 126 100 l 25
 126 0 l 25
 51 0 l 29xe4
EndSplineSet
EndChar

StartChar: uni041C
Encoding: 1052 1052 123
Width: 440
Flags: HW
HStem: 0 21G<32 108 332 408> 680 20G<32 145 295 408>
VStem: 32 112<600 700> 32 75<0 500> 182 75<300 400> 295 112<600 700> 332 75<0 500>
LayerCount: 2
Back
Fore
SplineSet
108 0 m 29xd8
 32 0 l 25xd8
 32 700 l 25
 145 700 l 25
 145 600 l 25
 182 600 l 25
 182 500 l 25
 258 500 l 25
 258 600 l 25
 295 600 l 25
 295 700 l 25
 408 700 l 25xec
 408 0 l 25
 332 0 l 25
 332 500 l 25xca
 295 500 l 25
 295 400 l 25
 258 400 l 25
 258 300 l 25
 182 300 l 25
 182 400 l 25
 145 400 l 25
 145 500 l 25xec
 108 500 l 25
 108 0 l 29xd8
EndSplineSet
EndChar

StartChar: uni041D
Encoding: 1053 1053 124
Width: 440
Flags: HW
HStem: 0 21G<51 126 314 389> 300 100<126 314> 680 20G<51 126 314 389>
VStem: 51 75<0 300 400 700> 314 75<0 300 400 700>
LayerCount: 2
Back
Fore
SplineSet
51 700 m 29
 126 700 l 25
 126 400 l 25
 314 400 l 25
 314 700 l 25
 389 700 l 25
 389 0 l 25
 314 0 l 25
 314 300 l 25
 126 300 l 25
 126 0 l 25
 51 0 l 25
 51 700 l 29
EndSplineSet
EndChar

StartChar: uni041E
Encoding: 1054 1054 125
Width: 440
Flags: HW
HStem: 0 100<145 295> 600 100<145 295>
VStem: 32 75<200 500> 70 75<100 200 500 600> 108 225<0 100 600 700> 295 75<100 200 500 600> 332 75<200 500>
LayerCount: 2
Back
Fore
SplineSet
295 100 m 29xd4
 295 200 l 25xd4
 332 200 l 25
 332 500 l 25xc2
 295 500 l 25
 295 600 l 25
 145 600 l 25
 145 500 l 25xd4
 108 500 l 25
 108 200 l 25xe0
 145 200 l 25
 145 100 l 25
 295 100 l 29xd4
332 0 m 25xc8
 108 0 l 25
 108 100 l 25xc8
 70 100 l 25
 70 200 l 25xd0
 32 200 l 25
 32 500 l 25xe0
 70 500 l 25
 70 600 l 25xd0
 108 600 l 25
 108 700 l 25
 332 700 l 25
 332 600 l 25xc8
 370 600 l 25
 370 500 l 25xc4
 408 500 l 25
 408 200 l 25xc2
 370 200 l 25
 370 100 l 25xc4
 332 100 l 25
 332 0 l 25xc8
EndSplineSet
EndChar

StartChar: uni041F
Encoding: 1055 1055 126
Width: 440
Flags: HW
HStem: 0 21G<51 126 314 389> 600 100<126 314>
VStem: 51 75<0 600> 314 75<0 600>
LayerCount: 2
Back
Fore
SplineSet
51 700 m 29
 389 700 l 25
 389 0 l 25
 314 0 l 25
 314 600 l 25
 126 600 l 25
 126 0 l 25
 51 0 l 25
 51 700 l 29
EndSplineSet
EndChar

StartChar: uni0420
Encoding: 1056 1056 127
Width: 440
Flags: HW
HStem: 0 21G<51 126> 300 100<126 314> 600 100<126 314>
VStem: 51 75<0 300 400 600> 314 75<400 600>
LayerCount: 2
Back
Fore
SplineSet
126 600 m 29
 126 400 l 25
 314 400 l 25
 314 600 l 25
 126 600 l 29
51 700 m 25
 351 700 l 25
 351 650 l 25
 389 650 l 25
 389 400 l 25
 351 400 l 25
 351 300 l 25
 126 300 l 25
 126 0 l 25
 51 0 l 25
 51 700 l 25
EndSplineSet
EndChar

StartChar: uni0421
Encoding: 1057 1057 128
Width: 440
Flags: HW
HStem: 0 100<164 314> 100 100<351 389> 500 100<351 389> 600 100<164 314>
VStem: 51 75<200 500> 89 75<100 200 500 600> 126 225<0 100 600 700> 314 75<100 200 500 600>
LayerCount: 2
Back
Fore
SplineSet
126 700 m 29x12
 351 700 l 25x12
 351 600 l 25x22
 389 600 l 25
 389 500 l 25
 314 500 l 25x21
 314 600 l 25
 164 600 l 25x15
 164 500 l 25x25
 126 500 l 25
 126 200 l 25x68
 164 200 l 25x64
 164 100 l 25
 314 100 l 25x85
 314 200 l 25
 389 200 l 25
 389 100 l 25x45
 351 100 l 25x42
 351 0 l 25
 126 0 l 25x82
 126 100 l 25x42
 89 100 l 25
 89 200 l 25x44
 51 200 l 25
 51 500 l 25x68
 89 500 l 25x64
 89 600 l 25x14
 126 600 l 25
 126 700 l 29x12
EndSplineSet
EndChar

StartChar: uni0422
Encoding: 1058 1058 129
Width: 440
Flags: HW
HStem: 0 21G<182 258> 600 100<32 182 258 408>
VStem: 182 75<0 600>
LayerCount: 2
Back
Fore
SplineSet
32 700 m 1
 408 700 l 5
 408 600 l 1
 258 600 l 1
 258 0 l 25
 182 0 l 25
 182 600 l 1
 32 600 l 1
 32 700 l 1
EndSplineSet
EndChar

StartChar: uni0423
Encoding: 1059 1059 130
Width: 440
Flags: HW
HStem: 0 100<126 314> 100 100<51 89> 300 100<126 314> 680 20G<51 126 314 389>
VStem: 51 75<100 200 400 700> 314 75<100 300 400 700>
LayerCount: 2
Back
Fore
SplineSet
51 700 m 29xbc
 126 700 l 25
 126 400 l 25
 314 400 l 25
 314 700 l 25
 389 700 l 25
 389 100 l 25
 351 100 l 25x7c
 351 0 l 25
 89 0 l 25xbc
 89 100 l 25
 51 100 l 25
 51 200 l 25
 126 200 l 25x7c
 126 100 l 25
 314 100 l 25
 314 300 l 25
 89 300 l 25
 89 400 l 25
 51 400 l 25
 51 700 l 29xbc
EndSplineSet
EndChar

StartChar: uni0424
Encoding: 1060 1060 131
Width: 440
Flags: HW
HStem: 0 21G<182 258> 100 100<108 182 258 332> 500 100<108 182 258 332> 680 20G<182 258>
VStem: 32 75<200 500> 182 75<0 100 200 500 600 700> 332 75<200 500>
CounterMasks: 1 0e
LayerCount: 2
Back
Fore
SplineSet
258 500 m 29
 258 200 l 25
 332 200 l 25
 332 500 l 25
 258 500 l 29
108 500 m 25
 108 200 l 25
 182 200 l 25
 182 500 l 25
 108 500 l 25
182 600 m 25
 182 700 l 1
 258 700 l 25
 258 600 l 25
 370 600 l 25
 370 500 l 25
 408 500 l 25
 408 200 l 25
 370 200 l 25
 370 100 l 25
 258 100 l 25
 258 0 l 25
 182 0 l 25
 182 100 l 25
 70 100 l 25
 70 200 l 25
 32 200 l 25
 32 500 l 25
 70 500 l 25
 70 600 l 1
 182 600 l 25
EndSplineSet
EndChar

StartChar: uni0425
Encoding: 1061 1061 132
Width: 440
Flags: HW
HStem: 0 100<70 108 332 370> 600 100<70 108 332 370>
VStem: 70 75<0 100 600 700> 108 75<100 200 500 600> 145 150<200 300 400 500> 258 75<100 200 500 600> 295 75<0 100 600 700>
LayerCount: 2
Back
Fore
SplineSet
70 700 m 29xe0
 145 700 l 25
 145 600 l 25xe0
 182 600 l 25
 182 500 l 25
 258 500 l 25
 258 600 l 25xd4
 295 600 l 25
 295 700 l 25
 370 700 l 25
 370 600 l 25xc2
 332 600 l 25
 332 500 l 25xc4
 295 500 l 25
 295 400 l 25xc8
 258 400 l 25
 258 300 l 25xc4
 295 300 l 25
 295 200 l 25xc8
 332 200 l 25
 332 100 l 25xc4
 370 100 l 25
 370 0 l 25
 295 0 l 25
 295 100 l 25xc2
 258 100 l 25
 258 200 l 25
 182 200 l 25
 182 100 l 25xd4
 145 100 l 25
 145 0 l 25
 70 0 l 25
 70 100 l 25xe0
 108 100 l 25
 108 200 l 25xd0
 145 200 l 25
 145 300 l 25xc8
 182 300 l 25
 182 400 l 25xd0
 145 400 l 25
 145 500 l 25xc8
 108 500 l 25
 108 600 l 25xd0
 70 600 l 25
 70 700 l 29xe0
EndSplineSet
EndChar

StartChar: uni0426
Encoding: 1062 1062 133
Width: 440
Flags: HW
HStem: 0 100<126 239> 680 20G<51 126 239 314>
VStem: 51 75<100 700> 239 75<100 700> 314 75<-100 0>
LayerCount: 2
Back
Fore
SplineSet
51 700 m 29xe8
 126 700 l 25
 126 100 l 25
 239 100 l 25
 239 700 l 25
 314 700 l 25
 314 100 l 25xf0
 389 100 l 25
 389 -100 l 25
 314 -100 l 25
 314 0 l 25
 51 0 l 25
 51 700 l 29xe8
EndSplineSet
EndChar

StartChar: uni0427
Encoding: 1063 1063 134
Width: 440
Flags: HW
HStem: 0 21G<314 389> 300 100<164 314> 680 20G<51 126 314 389>
VStem: 51 75<500 700> 89 75<400 500> 314 75<0 300 400 700>
LayerCount: 2
Back
Fore
SplineSet
51 700 m 29xf4
 126 700 l 25
 126 500 l 25xf4
 164 500 l 25
 164 400 l 25xec
 314 400 l 25
 314 700 l 25
 389 700 l 25
 389 0 l 25
 314 0 l 25
 314 300 l 25
 126 300 l 25
 126 400 l 25xf4
 89 400 l 25
 89 500 l 25xec
 51 500 l 25
 51 700 l 29xf4
EndSplineSet
EndChar

StartChar: uni0428
Encoding: 1064 1064 135
Width: 440
Flags: HW
HStem: 0 100<108 182 258 332> 680 20G<32 108 182 258 332 408>
VStem: 32 75<100 700> 182 75<100 700> 332 75<100 700>
CounterMasks: 1 38
LayerCount: 2
Back
Fore
SplineSet
32 700 m 29
 108 700 l 25
 108 100 l 25
 182 100 l 25
 182 700 l 25
 258 700 l 25
 258 100 l 25
 332 100 l 25
 332 700 l 25
 408 700 l 25
 408 0 l 25
 32 0 l 25
 32 700 l 29
EndSplineSet
EndChar

StartChar: uni0429
Encoding: 1065 1065 136
Width: 440
Flags: HW
HStem: 0 100<89 164 239 314> 680 20G<14 89 164 239 314 389>
VStem: 14 75<100 700> 164 75<100 700> 314 75<100 700> 351 75<-100 0>
LayerCount: 2
Back
Fore
SplineSet
14 700 m 29xf4
 89 700 l 25
 89 100 l 25
 164 100 l 25
 164 700 l 25
 239 700 l 25
 239 100 l 25
 314 100 l 25
 314 700 l 25
 389 700 l 25
 389 100 l 25xf8
 426 100 l 25
 426 -100 l 25
 351 -100 l 25
 351 0 l 25
 14 0 l 25
 14 700 l 29xf4
EndSplineSet
EndChar

StartChar: uni042A
Encoding: 1066 1066 137
Width: 440
Flags: HW
HStem: 0 100<182 332> 300 100<182 332> 600 100<32 108>
VStem: 108 75<100 300 400 600> 332 75<100 300>
CounterMasks: 1 e0
LayerCount: 2
Back
Fore
SplineSet
182 300 m 29
 182 100 l 25
 332 100 l 25
 332 300 l 25
 182 300 l 29
32 700 m 25
 182 700 l 25
 182 400 l 25
 370 400 l 25
 370 300 l 25
 408 300 l 25
 408 100 l 25
 370 100 l 25
 370 0 l 25
 108 0 l 25
 108 600 l 25
 32 600 l 25
 32 700 l 25
EndSplineSet
EndChar

StartChar: uni042B
Encoding: 1067 1067 138
Width: 440
Flags: HW
HStem: 0 100<108 220> 300 100<108 220> 680 20G<32 108 332 408>
VStem: 32 225<0 100 300 400> 32 75<100 300 400 700> 220 75<100 300> 332 75<0 700>
LayerCount: 2
Back
Fore
SplineSet
220 300 m 29xee
 108 300 l 25
 108 100 l 25
 220 100 l 25
 220 300 l 29xee
332 700 m 25
 408 700 l 25
 408 0 l 25
 332 0 l 25
 332 700 l 25
32 700 m 25
 108 700 l 25
 108 400 l 25xea
 258 400 l 25
 258 300 l 25xf2
 295 300 l 25
 295 100 l 25xe6
 258 100 l 25
 258 0 l 25
 32 0 l 25xf2
 32 700 l 25
EndSplineSet
EndChar

StartChar: uni042C
Encoding: 1068 1068 139
Width: 440
Flags: HW
HStem: 0 100<145 295> 300 100<145 295> 680 20G<70 144>
VStem: 70 74<100 300 400 700> 295 75<101 300>
LayerCount: 2
Back
Fore
SplineSet
145 100 m 29
 295 100 l 25
 295 300 l 25
 145 300 l 25
 145 100 l 29
70 700 m 25
 144 700 l 25
 144 400 l 25
 332 400 l 25
 332 300 l 25
 368 300 l 25
 370 101 l 25
 332 100 l 25
 332 0 l 25
 70 0 l 25
 70 700 l 25
EndSplineSet
EndChar

StartChar: uni042D
Encoding: 1069 1069 140
Width: 440
Flags: HW
HStem: 0 100<126 276> 100 100<51 89> 300 100<164 314> 500 100<51 89> 600 100<126 276>
VStem: 51 75<100 200 500 600> 89 225<0 100 600 700> 276 75<100 200 500 600> 314 75<200 300 400 500>
LayerCount: 2
Back
Fore
SplineSet
51 500 m 29x35
 51 600 l 25x35
 89 600 l 25x32
 89 700 l 25
 314 700 l 25
 314 600 l 25x2a
 351 600 l 25x29
 351 500 l 25x31
 389 500 l 25
 389 200 l 25x7080
 351 200 l 25
 351 100 l 25x71
 314 100 l 25x72
 314 0 l 25
 89 0 l 25xa2
 89 100 l 25x62
 51 100 l 25
 51 200 l 25
 126 200 l 25x64
 126 100 l 25
 276 100 l 25xa5
 276 200 l 25x65
 314 200 l 25
 314 300 l 25
 164 300 l 25
 164 400 l 25
 314 400 l 25
 314 500 l 25x7080
 276 500 l 25x71
 276 600 l 25
 126 600 l 25x2d
 126 500 l 25
 51 500 l 29x35
EndSplineSet
EndChar

StartChar: uni042E
Encoding: 1070 1070 141
Width: 440
Flags: HW
HStem: 0 100<239 314> 300 100<126 164> 600 100<239 314>
VStem: 51 75<0 300 400 700> 164 75<100 300 400 600> 201 150<0 100 600 700> 314 75<100 600>
CounterMasks: 1 e0
LayerCount: 2
Back
Fore
SplineSet
239 600 m 29xfa
 239 100 l 25
 314 100 l 25
 314 600 l 25
 239 600 l 29xfa
51 700 m 25
 126 700 l 25
 126 400 l 25
 164 400 l 25
 164 600 l 25xf8
 201 600 l 25
 201 700 l 25
 351 700 l 25
 351 600 l 25xf4
 389 600 l 25
 389 100 l 25xf2
 351 100 l 25
 351 0 l 25
 201 0 l 25
 201 100 l 25xf4
 164 100 l 25
 164 300 l 25
 126 300 l 25
 126 0 l 25
 51 0 l 25
 51 700 l 25
EndSplineSet
EndChar

StartChar: uni042F
Encoding: 1071 1071 142
Width: 440
Flags: HW
HStem: 0 100<51 126> 300 100<126 201> 600 100<126 314>
VStem: 51 75<400 600> 126 112<100 200> 314 75<0 200 400 600>
CounterMasks: 1 e0
LayerCount: 2
Back
Fore
SplineSet
126 600 m 29xf4
 126 400 l 25
 314 400 l 25
 314 600 l 25
 126 600 l 29xf4
89 700 m 25
 389 700 l 25
 389 0 l 25
 314 0 l 25
 314 200 l 25
 239 200 l 25
 239 100 l 25xec
 201 100 l 25
 201 0 l 25
 51 0 l 25
 51 100 l 25xf4
 126 100 l 25
 126 200 l 25xec
 201 200 l 25
 201 300 l 25
 89 300 l 25
 89 400 l 25
 51 400 l 25
 51 600 l 25
 89 600 l 25
 89 700 l 25
EndSplineSet
EndChar

StartChar: uni0430
Encoding: 1072 1072 143
Width: 440
Flags: HW
HStem: 0 100<108 295 370 407> 100 100<32 70> 200 100<108 295> 400 100<70 295>
VStem: 32 75<100 200> 295 75<100 200 300 400>
LayerCount: 2
Back
Fore
SplineSet
108 200 m 29xbc
 108 100 l 25
 295 100 l 25
 295 200 l 25
 108 200 l 29xbc
70 500 m 25
 332 500 l 25
 332 400 l 25
 370 400 l 25
 370 100 l 25
 407 100 l 25
 408 0 l 25
 70 0 l 25xbc
 70 100 l 25
 32 100 l 25
 32 200 l 25
 70 200 l 25x5c
 70 300 l 25
 295 300 l 25
 295 400 l 25
 70 400 l 25
 70 500 l 25
EndSplineSet
EndChar

StartChar: uni0431
Encoding: 1073 1073 144
Width: 440
Flags: HW
HStem: 0 100<126 314> 300 200<201 314> 300 100<126 201> 600 100<89 126 201 389>
VStem: 51 75<100 300> 126 75<500 600> 201 112<400 500> 314 75<100 300>
LayerCount: 2
Back
Fore
SplineSet
126 300 m 29xb9
 126 100 l 25
 314 100 l 25
 314 300 l 25xd9
 126 300 l 29xb9
89 700 m 25
 389 700 l 25
 389 600 l 25
 201 600 l 25
 201 500 l 25xd5
 314 500 l 25xd2
 314 400 l 25xb2
 351 400 l 25
 351 300 l 25
 389 300 l 25
 389 100 l 25xb1
 351 100 l 25
 351 0 l 25
 89 0 l 25
 89 100 l 25
 51 100 l 25
 51 300 l 25
 89 300 l 25
 89 400 l 25
 201 400 l 25xba
 201 500 l 25
 126 500 l 25
 126 600 l 25xd4
 89 600 l 25
 89 700 l 25
EndSplineSet
EndChar

StartChar: uni0432
Encoding: 1074 1074 145
Width: 440
Flags: HW
HStem: 0 100<126 314> 100 100<351 389> 200 100<126 314> 300 100<351 389> 400 100<126 314>
VStem: 51 300<0 100 200 300 400 500> 51 75<100 200 300 400> 314 75<100 200 300 400>
LayerCount: 2
Back
Fore
SplineSet
126 200 m 29xa3
 126 100 l 25
 314 100 l 25
 314 200 l 25
 126 200 l 29xa3
126 400 m 25x2b
 126 300 l 25
 314 300 l 25
 314 400 l 25
 126 400 l 25x2b
51 500 m 25x8c
 351 500 l 25x8c
 351 400 l 25x14
 389 400 l 25
 389 300 l 25x11
 351 300 l 25
 351 200 l 25x54
 389 200 l 25
 389 100 l 25x51
 351 100 l 25x54
 351 0 l 25
 51 0 l 25
 51 500 l 25x8c
EndSplineSet
EndChar

StartChar: uni0433
Encoding: 1075 1075 146
Width: 440
Flags: HW
HStem: 0 21G<51 126> 400 100<126 389>
VStem: 51 75<0 400>
LayerCount: 2
Back
Fore
SplineSet
51 0 m 29
 51 500 l 25
 389 500 l 25
 389 401 l 25
 126 400 l 25
 126 0 l 25
 51 0 l 29
EndSplineSet
EndChar

StartChar: uni0434
Encoding: 1076 1076 147
Width: 440
Flags: HW
HStem: -100 200<32 107 332 408> -1 101<107 108 182 258> 400 100<182 258>
VStem: 32 75<-100 -1> 108 75<100 400> 258 75<100 400> 332 75<-100 0>
LayerCount: 2
Back
Fore
SplineSet
182 400 m 29x6c
 182 100 l 25
 258 100 l 25
 258 400 l 25
 182 400 l 29x6c
145 500 m 25
 332 500 l 25x6a
 332 100 l 25xa4
 408 100 l 25
 408 -100 l 25
 332 -100 l 25xa2
 332 0 l 25
 107 -1 l 25x62
 108 -100 l 25
 32 -100 l 25
 32 100 l 25xb2
 108 100 l 25
 108 400 l 25
 145 400 l 25
 145 500 l 25
EndSplineSet
EndChar

StartChar: uni0435
Encoding: 1077 1077 148
Width: 440
Flags: HW
HStem: 0 100<126 351> 200 100<126 314> 400 100<126 314>
VStem: 51 75<100 200 300 400> 314 75<300 400>
CounterMasks: 1 e0
LayerCount: 2
Back
Fore
SplineSet
126 400 m 1
 126 300 l 1
 314 300 l 1
 314 400 l 1
 126 400 l 1
89 400 m 1
 89 500 l 1
 350 500 l 1
 351 400 l 25
 389 400 l 25
 389 200 l 1
 126 200 l 1
 126 100 l 1
 351 100 l 1
 351 0 l 1
 89 0 l 1
 89 100 l 1
 51 100 l 1
 51 400 l 5
 89 400 l 1
EndSplineSet
EndChar

StartChar: uni0436
Encoding: 1078 1078 149
Width: 440
Flags: HW
HStem: 0 100<32 70 370 408> 200 100<145 182 258 295> 400 100<32 70 370 408>
VStem: 32 75<0 100 400 500> 70 75<100 200 300 400> 182 75<0 200 300 500> 295 75<100 200 300 400> 332 75<0 100 400 500>
CounterMasks: 1 e0
LayerCount: 2
Back
Fore
SplineSet
32 500 m 29xf4
 108 500 l 25
 108 400 l 25xf4
 145 400 l 25
 145 300 l 25
 182 300 l 25
 182 500 l 25
 258 500 l 25
 258 300 l 25
 295 300 l 25
 295 400 l 25xee
 332 400 l 25
 332 500 l 25
 408 500 l 25
 408 400 l 25xe5
 370 400 l 25
 370 300 l 25xe6
 332 300 l 25
 332 200 l 25xe5
 370 200 l 25
 370 100 l 25xe6
 408 100 l 25
 408 0 l 25
 332 0 l 25
 332 100 l 25xe5
 295 100 l 25
 295 200 l 25
 258 200 l 25
 258 0 l 25
 182 0 l 25
 182 200 l 25
 145 200 l 25
 145 100 l 25xee
 108 100 l 25
 108 0 l 25
 32 0 l 25
 32 100 l 25xf4
 70 100 l 25
 70 200 l 25xec
 108 200 l 25
 108 300 l 25xf4
 70 300 l 25
 70 400 l 25xec
 32 400 l 25
 32 500 l 29xf4
EndSplineSet
EndChar

StartChar: uni0437
Encoding: 1079 1079 150
Width: 440
Flags: HW
HStem: 0 100<126 314> 100 100<51 89 351 389> 300 100<51 89 351 389> 400 100<126 314>
VStem: 51 75<100 200 300 400> 314 75<100 200 300 400>
LayerCount: 2
Back
Fore
SplineSet
51 400 m 29x2c
 89 400 l 1x2c
 89 500 l 25
 351 500 l 25x1c
 351 400 l 25
 389 400 l 25
 389 300 l 25
 351 300 l 25
 351 200 l 25
 389 200 l 25
 389 100 l 25
 351 100 l 25x6c
 351 0 l 25
 89 0 l 25x8c
 89 100 l 25
 51 100 l 25
 51 200 l 25
 126 200 l 25x4c
 126 100 l 25
 314 100 l 25x8c
 314 200 l 25
 201 200 l 25
 201 300 l 25
 314 300 l 25x6c
 314 400 l 25
 126 400 l 25x1c
 126 300 l 25
 51 300 l 1
 51 400 l 29x2c
EndSplineSet
EndChar

StartChar: uni0438
Encoding: 1080 1080 151
Width: 440
Flags: HW
HStem: 0 100<126 164> 100 100<164 201> 200 100<201 239> 300 100<239 276> 400 100<276 314>
VStem: 51 112<0 100> 51 75<100 500> 164 38<100 200> 201 38<200 300> 239 38<300 400> 276 112<400 500> 314 75<0 400>
LayerCount: 2
Back
Fore
SplineSet
51 0 m 29x84
 51 500 l 5
 126 500 l 29
 126 100 l 29x8a
 164 100 l 29x8c
 164 200 l 29
 201 200 l 29x41
 201 300 l 29
 239 300 l 29x2080
 239 400 l 29
 276 400 l 29x1040
 276 500 l 29
 389 500 l 29x0820
 389 0 l 29
 314 0 l 29
 314 400 l 29x8810
 276 400 l 29
 276 300 l 29x1050
 239 300 l 29
 239 200 l 29x2080
 201 200 l 29
 201 100 l 29x41
 164 100 l 29
 164 0 l 5
 51 0 l 29x84
EndSplineSet
EndChar

StartChar: uni0439
Encoding: 1081 1081 152
Width: 440
Flags: HW
HStem: 0 100<126 164> 100 100<164 201> 200 100<201 239> 300 100<239 276> 400 100<276 314> 600 100<164 276> 700 100<89 126 314 351>
VStem: 51 75<100 500> 89 75<700 800> 164 38<100 200> 201 38<200 300> 239 38<300 400> 276 75<700 800> 314 75<0 400>
LayerCount: 2
Back
Fore
SplineSet
89 800 m 29x0280
 164 800 l 29x0280
 164 700 l 29
 276 700 l 29x0488
 276 800 l 29
 351 800 l 29
 351 700 l 29x0288
 314 700 l 29x0204
 314 600 l 29
 126 600 l 29x0504
 126 700 l 29x0304
 89 700 l 29
 89 800 l 29x0280
51 0 m 25x8140
 51 500 l 1
 126 500 l 25
 126 100 l 25
 164 100 l 25x8940
 164 200 l 25
 201 200 l 25x4140
 201 300 l 25
 239 300 l 25x2020
 239 400 l 25
 276 400 l 25x1010
 276 500 l 25x0808
 389 500 l 25
 389 0 l 25
 314 0 l 25
 314 400 l 25x8804
 276 400 l 25
 276 300 l 25x1014
 239 300 l 25
 239 200 l 25x2020
 201 200 l 25
 201 100 l 25x4040
 164 100 l 25
 164 0 l 1
 51 0 l 25x8140
EndSplineSet
EndChar

StartChar: uni043A
Encoding: 1082 1082 153
Width: 440
Flags: HW
HStem: 0 100<314 389> 200 100<126 239> 400 100<314 389>
VStem: 51 75<0 200 300 500> 239 75<100 200 300 400> 276 112<0 100 400 500>
CounterMasks: 1 e0
LayerCount: 2
Back
Fore
SplineSet
51 500 m 29xf8
 126 500 l 25
 126 300 l 25
 239 300 l 25
 239 400 l 25xf8
 276 400 l 25
 276 500 l 25
 389 500 l 25
 389 400 l 25xf4
 314 400 l 25
 314 300 l 25xf8
 276 300 l 25
 276 200 l 25xf4
 314 200 l 25
 314 100 l 25xf8
 389 100 l 25
 389 0 l 25
 276 0 l 25
 276 100 l 25xf4
 239 100 l 25
 239 200 l 25
 126 200 l 25
 126 0 l 25
 51 0 l 25
 51 500 l 29xf8
EndSplineSet
EndChar

StartChar: uni043B
Encoding: 1083 1083 154
Width: 440
Flags: HW
HStem: 0 100<51 89> 400 100<164 314>
VStem: 51 75<0 100> 89 75<100 400> 314 75<0 400>
LayerCount: 2
Back
Fore
SplineSet
51 100 m 29xe8
 89 100 l 25
 89 400 l 25xd8
 126 400 l 25
 126 500 l 25xe8
 389 500 l 25
 389 0 l 25
 314 0 l 25
 314 400 l 25
 164 400 l 25
 164 100 l 25xd8
 126 100 l 25
 126 0 l 25
 51 0 l 25
 51 100 l 29xe8
EndSplineSet
EndChar

StartChar: uni043C
Encoding: 1084 1084 155
Width: 440
Flags: HW
HStem: 0 21G<51 126 314 389> 480 20G<51 164 276 389>
VStem: 51 112<400 500> 51 75<0 300> 164 112<200 300> 276 112<400 500> 314 75<0 300>
LayerCount: 2
Back
Fore
SplineSet
51 0 m 29xda
 51 500 l 25
 164 500 l 25
 164 400 l 25
 201 400 l 25
 201 300 l 25
 239 300 l 25
 239 400 l 25
 276 400 l 25
 276 500 l 25
 389 500 l 25xe4
 389 0 l 25
 314 0 l 25
 314 300 l 25
 276 300 l 25
 276 200 l 25
 239 200 l 25
 239 100 l 25
 201 100 l 25
 201 200 l 25
 164 200 l 25
 164 300 l 25
 126 300 l 25
 126 0 l 25
 51 0 l 29xda
EndSplineSet
EndChar

StartChar: uni043D
Encoding: 1085 1085 156
Width: 440
Flags: HW
HStem: 0 21G<70 145 295 370> 200 100<145 295> 480 20G<70 145 295 370>
VStem: 70 75<0 200 300 500> 295 75<0 200 300 500>
LayerCount: 2
Back
Fore
SplineSet
70 500 m 25
 145 500 l 25
 145 300 l 1
 295 300 l 1
 295 500 l 5
 370 500 l 1
 370 0 l 1
 295 0 l 1
 295 200 l 1
 145 200 l 1
 145 0 l 25
 70 0 l 25
 70 500 l 25
EndSplineSet
EndChar

StartChar: uni043E
Encoding: 1086 1086 157
Width: 440
Flags: HW
HStem: 0 100<126 314> 400 100<126 314>
VStem: 51 75<100 400> 314 75<100 400>
LayerCount: 2
Back
Fore
SplineSet
126 400 m 29
 126 100 l 25
 314 100 l 25
 314 400 l 25
 126 400 l 29
89 500 m 25
 351 500 l 25
 351 400 l 25
 389 400 l 25
 389 100 l 25
 351 100 l 25
 351 0 l 25
 89 0 l 25
 89 100 l 25
 51 100 l 25
 51 400 l 25
 89 400 l 25
 89 500 l 25
EndSplineSet
EndChar

StartChar: uni043F
Encoding: 1087 1087 158
Width: 440
Flags: HW
HStem: 0 21G<51 126 314 389> 400 100<126 314>
VStem: 51 75<0 400> 314 75<0 400>
LayerCount: 2
Back
Fore
SplineSet
51 0 m 29
 51 500 l 25
 389 500 l 25
 389 0 l 25
 314 0 l 25
 314 400 l 25
 126 400 l 25
 126 0 l 25
 51 0 l 29
EndSplineSet
EndChar

StartChar: uni0440
Encoding: 1088 1088 159
Width: 440
Flags: HW
HStem: -200 21G<51 126> 0 100<164 314> 100 100<126 164> 300 100<126 164> 400 100<164 314>
VStem: 51 112<100 200 300 400> 51 75<-200 100 200 300 400 500> 164 188<0 100 400 500> 314 75<100 400>
LayerCount: 2
Back
Fore
SplineSet
164 300 m 29x9480
 126 300 l 25
 126 200 l 25xb2
 164 200 l 25xb4
 164 100 l 25
 314 100 l 25
 314 400 l 25xcc80
 164 400 l 25
 164 300 l 29x9480
51 500 m 25xaa
 126 500 l 25xaa
 126 400 l 25x92
 164 400 l 25x94
 164 500 l 25
 351 500 l 25
 351 400 l 25x89
 389 400 l 25
 389 100 l 25xa880
 351 100 l 25xa9
 351 0 l 25
 164 0 l 25xc1
 164 100 l 25xc4
 126 100 l 25
 126 -200 l 25
 51 -200 l 25
 51 500 l 25xaa
EndSplineSet
EndChar

StartChar: uni0441
Encoding: 1089 1089 160
Width: 440
Flags: HW
HStem: 0 100<164 389> 200 100<51 89> 400 100<164 389>
VStem: 51 75<200 300> 89 75<100 200 300 400>
CounterMasks: 1 e0
LayerCount: 2
Back
Fore
SplineSet
126 500 m 29xf0
 389 500 l 25
 389 400 l 25
 164 400 l 25
 164 300 l 25xe8
 126 300 l 25
 126 200 l 25xf0
 164 200 l 25
 164 100 l 25xe8
 389 100 l 25
 389 0 l 25
 126 0 l 25
 126 100 l 25xf0
 89 100 l 25
 89 200 l 25xe8
 51 200 l 25
 51 300 l 25xf0
 89 300 l 25
 89 400 l 25xe8
 126 400 l 25
 126 500 l 29xf0
EndSplineSet
EndChar

StartChar: uni0442
Encoding: 1090 1090 161
Width: 440
Flags: HW
HStem: 0 21G<182 258> 400 100<32 182 258 408>
VStem: 182 75<0 400>
LayerCount: 2
Back
Fore
SplineSet
32 500 m 1
 408 500 l 1
 408 400 l 5
 258 400 l 1
 258 0 l 25
 182 0 l 25
 182 400 l 1
 32 400 l 1
 32 500 l 1
EndSplineSet
EndChar

StartChar: uni0443
Encoding: 1091 1091 162
Width: 440
Flags: HW
HStem: -200 100<51 126> 400 100<51 89 351 389>
VStem: 51 75<400 500> 89 75<300 400> 126 75<-100 0 200 300> 164 112<100 200> 164 75<0 100> 239 75<200 300> 276 75<300 400> 314 75<400 500>
LayerCount: 2
Back
Fore
SplineSet
51 500 m 29xe0
 126 500 l 25
 126 400 l 25xe0
 164 400 l 25
 164 300 l 25xd0
 201 300 l 25
 201 200 l 25
 239 200 l 25
 239 300 l 25xc9
 276 300 l 25
 276 400 l 25xc080
 314 400 l 25
 314 500 l 25
 389 500 l 25
 389 400 l 25xc040
 351 400 l 25
 351 300 l 25xc080
 314 300 l 25
 314 200 l 25xc1
 276 200 l 25
 276 100 l 25xc4
 239 100 l 25
 239 0 l 25xc2
 201 0 l 25
 201 -100 l 25xc8
 164 -100 l 25
 164 -200 l 25
 51 -200 l 25
 51 -100 l 25xe2
 126 -100 l 25
 126 0 l 25xc8
 164 0 l 25xc2
 164 200 l 25xc4
 126 200 l 25
 126 300 l 25xc8
 89 300 l 25
 89 400 l 25xd0
 51 400 l 25
 51 500 l 29xe0
EndSplineSet
EndChar

StartChar: uni0444
Encoding: 1092 1092 163
Width: 440
Flags: HW
HStem: -200 21G<182 258> 0 100<108 182 258 332> 400 100<108 182 258 332> 680 20G<182 258>
VStem: 32 75<100 400> 182 75<-200 0 100 400 500 700> 332 75<100 400>
CounterMasks: 1 0e
LayerCount: 2
Back
Fore
SplineSet
182 400 m 29
 108 400 l 25
 108 100 l 25
 182 100 l 25
 182 400 l 29
258 400 m 25
 258 100 l 25
 332 100 l 25
 332 400 l 25
 258 400 l 25
182 700 m 25
 258 700 l 25
 258 500 l 25
 370 500 l 25
 370 400 l 25
 408 400 l 25
 408 100 l 25
 370 100 l 25
 370 0 l 25
 258 0 l 25
 258 -200 l 25
 182 -200 l 25
 182 0 l 25
 70 0 l 25
 70 100 l 25
 32 100 l 25
 32 400 l 25
 70 400 l 25
 70 500 l 25
 182 500 l 25
 182 700 l 25
EndSplineSet
EndChar

StartChar: uni0445
Encoding: 1093 1093 164
Width: 440
Flags: HW
HStem: 0 100<32 108 332 408> 200 100<182 258> 400 100<32 108 332 408>
VStem: 32 112<0 100 400 500> 108 75<100 200 300 400> 258 75<100 200 300 400> 295 112<0 100 400 500>
CounterMasks: 1 e0
LayerCount: 2
Back
Fore
SplineSet
32 500 m 29xf0
 145 500 l 25
 145 400 l 25xf0
 182 400 l 25
 182 300 l 25
 258 300 l 25
 258 400 l 25xec
 295 400 l 25
 295 500 l 25
 408 500 l 25
 408 400 l 25xe2
 332 400 l 25
 332 300 l 25xe4
 295 300 l 25
 295 200 l 25xe2
 332 200 l 25
 332 100 l 25xe4
 408 100 l 25
 408 0 l 25
 295 0 l 25
 295 100 l 25xe2
 258 100 l 25
 258 200 l 25
 182 200 l 25
 182 100 l 25xec
 145 100 l 25
 145 0 l 25
 32 0 l 25
 32 100 l 25xf0
 108 100 l 25
 108 200 l 25xe8
 145 200 l 25
 145 300 l 25xf0
 108 300 l 25
 108 400 l 25xe8
 32 400 l 25
 32 500 l 29xf0
EndSplineSet
EndChar

StartChar: uni0446
Encoding: 1094 1094 165
Width: 440
Flags: HW
HStem: 0 100<126 239> 480 20G<51 126 239 314>
VStem: 51 75<100 500> 239 75<100 500> 314 75<-100 0>
LayerCount: 2
Back
Fore
SplineSet
51 500 m 29xe8
 126 500 l 25
 126 100 l 25
 239 100 l 25
 239 500 l 25
 314 500 l 25
 314 100 l 25xf0
 389 100 l 25
 389 -100 l 25
 314 -100 l 25
 314 0 l 25
 51 0 l 25
 51 500 l 29xe8
EndSplineSet
EndChar

StartChar: uni0447
Encoding: 1095 1095 166
Width: 440
Flags: HW
HStem: 0 21G<314 389> 200 100<126 314> 480 20G<51 126 314 389>
VStem: 51 75<300 500> 314 75<0 200 300 500>
LayerCount: 2
Back
Fore
SplineSet
51 500 m 29
 126 500 l 25
 126 300 l 25
 314 300 l 25
 314 500 l 25
 389 500 l 25
 389 0 l 25
 314 0 l 25
 314 200 l 25
 89 200 l 25
 89 300 l 25
 51 300 l 25
 51 500 l 29
EndSplineSet
EndChar

StartChar: uni0448
Encoding: 1096 1096 167
Width: 440
Flags: HW
HStem: 0 100<108 182 258 332> 480 20G<32 108 182 258 332 408>
VStem: 32 75<100 500> 182 75<100 500> 332 75<100 500>
CounterMasks: 1 38
LayerCount: 2
Back
Fore
SplineSet
32 500 m 29
 108 500 l 25
 108 100 l 25
 182 100 l 25
 182 500 l 25
 258 500 l 25
 258 100 l 25
 332 100 l 25
 332 500 l 25
 408 500 l 25
 408 0 l 25
 32 0 l 25
 32 500 l 29
EndSplineSet
EndChar

StartChar: uni0449
Encoding: 1097 1097 168
Width: 440
Flags: HW
HStem: 0 100<89 164 239 314> 480 20G<14 89 164 239 314 389>
VStem: 14 75<100 500> 164 75<100 500> 314 75<100 500> 351 75<-100 0>
LayerCount: 2
Back
Fore
SplineSet
14 500 m 29xf4
 89 500 l 25
 89 100 l 25
 164 100 l 25
 164 500 l 25
 239 500 l 25
 239 100 l 25
 314 100 l 25
 314 500 l 25
 389 500 l 25
 389 100 l 25xf8
 426 100 l 25
 426 -100 l 25
 351 -100 l 25
 351 0 l 25
 14 0 l 25
 14 500 l 29xf4
EndSplineSet
EndChar

StartChar: uni044A
Encoding: 1098 1098 169
Width: 440
Flags: HW
HStem: 0 100<182 332> 100 100<370 408> 200 100<182 332> 400 100<32 108>
VStem: 108 75<100 200 300 400> 332 75<100 200>
LayerCount: 2
Back
Fore
SplineSet
182 200 m 29xbc
 182 100 l 25
 332 100 l 25
 332 200 l 25
 182 200 l 29xbc
32 500 m 25
 182 500 l 25
 182 300 l 25
 370 300 l 25xbc
 370 200 l 25
 408 200 l 25
 408 100 l 25
 370 100 l 25x5c
 370 0 l 25
 108 0 l 25
 108 400 l 25
 32 400 l 25
 32 500 l 25
EndSplineSet
EndChar

StartChar: uni044B
Encoding: 1099 1099 170
Width: 440
Flags: HW
HStem: 0 100<108 220> 100 100<258 295> 200 100<108 220> 480 20G<32 108 332 408>
VStem: 32 225<0 100 200 300> 32 75<100 200 300 500> 220 75<100 200> 332 75<0 500>
LayerCount: 2
Back
Fore
SplineSet
332 0 m 29x91
 332 500 l 25
 408 500 l 25
 408 0 l 25
 332 0 l 29x91
108 200 m 25xb7
 108 100 l 25
 220 100 l 25
 220 200 l 25
 108 200 l 25xb7
32 500 m 25
 108 500 l 25
 108 300 l 25xb5
 258 300 l 25xb9
 258 200 l 25x59
 295 200 l 25
 295 100 l 25x53
 258 100 l 25x59
 258 0 l 25
 32 0 l 25x99
 32 500 l 25
EndSplineSet
EndChar

StartChar: uni044C
Encoding: 1100 1100 171
Width: 440
Flags: HW
HStem: 0 100<126 314> 100 100<351 389> 200 100<126 314> 480 20G<51 126>
VStem: 51 75<100 200 300 500> 314 75<100 200>
LayerCount: 2
Back
Fore
SplineSet
126 100 m 1xbc
 314 100 l 1
 314 200 l 1
 126 200 l 1
 126 100 l 1xbc
51 500 m 1
 126 500 l 1
 126 300 l 5
 351 300 l 1xbc
 351 200 l 25
 389 200 l 25
 389 100 l 25
 351 100 l 25x5c
 351 0 l 1
 51 0 l 1
 51 500 l 1
EndSplineSet
EndChar

StartChar: uni044D
Encoding: 1101 1101 172
Width: 440
Flags: HW
HStem: 0 100<126 314> 100 100<51 89> 200 100<201 314> 300 100<51 89> 400 100<126 314>
VStem: 51 75<100 200 300 400> 314 75<100 200 300 400>
LayerCount: 2
Back
Fore
SplineSet
51 300 m 29x16
 51 400 l 25
 89 400 l 25x16
 89 500 l 25
 351 500 l 25
 351 400 l 25
 389 400 l 25
 389 100 l 25
 351 100 l 25x4e
 351 0 l 25
 89 0 l 25x86
 89 100 l 25
 51 100 l 25
 51 200 l 25x46
 126 200 l 25
 126 100 l 25
 314 100 l 25
 314 200 l 25
 201 200 l 25
 201 300 l 25
 314 300 l 25
 314 400 l 25
 126 400 l 25xae
 126 300 l 25
 51 300 l 29x16
EndSplineSet
EndChar

StartChar: uni044E
Encoding: 1102 1102 173
Width: 440
Flags: HW
HStem: 0 100<239 314> 200 100<126 164> 400 100<239 314>
VStem: 51 75<0 200 300 500> 164 75<100 200 300 400> 201 150<0 100 400 500> 314 75<100 400>
CounterMasks: 1 e0
LayerCount: 2
Back
Fore
SplineSet
239 100 m 29xfa
 314 100 l 25
 314 400 l 25
 239 400 l 25
 239 100 l 29xfa
51 0 m 25
 51 500 l 25
 126 500 l 25
 126 300 l 25
 164 300 l 25
 164 400 l 25xf8
 201 400 l 25
 201 500 l 25
 351 500 l 25
 351 400 l 25xf4
 389 400 l 25
 389 100 l 25xf2
 351 100 l 25
 351 0 l 25
 201 0 l 25
 201 100 l 25xf4
 164 100 l 25
 164 200 l 25
 126 200 l 25
 126 0 l 25
 51 0 l 25
EndSplineSet
EndChar

StartChar: uni044F
Encoding: 1103 1103 174
Width: 440
Flags: HW
HStem: 0 100<89 164> 200 100<126 164 276 314> 300 100<51 89> 400 100<126 314>
VStem: 51 75<300 400> 89 112<0 100> 164 112<100 200> 314 75<0 200 300 400>
LayerCount: 2
Back
Fore
SplineSet
126 400 m 29xd9
 126 300 l 25
 314 300 l 25
 314 400 l 25
 126 400 l 29xd9
51 400 m 25xa9
 89 400 l 25xa5
 89 500 l 25x95
 389 500 l 25
 389 0 l 25
 314 0 l 25
 314 200 l 25
 276 200 l 25
 276 100 l 25xd3
 201 100 l 25
 201 0 l 25
 89 0 l 25
 89 100 l 25xd5
 164 100 l 25
 164 200 l 25xd3
 89 200 l 25xd5
 89 300 l 25xa5
 51 300 l 25
 51 400 l 25xa9
EndSplineSet
EndChar

StartChar: uni2116
Encoding: 8470 8470 175
Width: 440
Flags: HW
HStem: 0 21G<-5 70 145 220> 200 100<258 445> 400 100<332 370> 500 100<258 295 408 445> 600 100<332 370>
VStem: -5 112<400 600> -5 75<0 250 600 700> 108 112<100 250> 145 75<0 100 400 700> 258 75<500 600> 295 112<400 500 600 700> 370 75<500 600>
LayerCount: 2
Back
Fore
SplineSet
258 300 m 29xc050
 445 300 l 25
 445 200 l 25
 258 200 l 25
 258 300 l 29xc050
332 600 m 25xe850
 332 500 l 25
 370 500 l 25
 370 600 l 25
 332 600 l 25xe850
295 600 m 25xd020
 295 700 l 25
 408 700 l 25xc820
 408 600 l 25xd020
 445 600 l 25
 445 500 l 25xd010
 408 500 l 25xd020
 408 400 l 25
 295 400 l 25xe020
 295 500 l 25xd020
 258 500 l 25
 258 600 l 25xd040
 295 600 l 25xd020
-5 0 m 25xeb
 -5 700 l 25
 70 700 l 25
 70 600 l 25xeb
 108 600 l 25
 108 400 l 25
 145 400 l 25
 145 700 l 25
 220 700 l 25
 220 0 l 25
 145 0 l 25
 145 100 l 25xec80
 108 100 l 25
 108 250 l 25
 70 250 l 25
 70 0 l 25
 -5 0 l 25xeb
EndSplineSet
EndChar

StartChar: asciitilde
Encoding: 126 126 176
Width: 440
Flags: HW
HStem: 500 100<51 89 239 314> 600 100<126 201 351 389>
VStem: 51 75<501 600> 314 75<600 700>
LayerCount: 2
Back
Fore
SplineSet
51 600 m 29xb0
 89 600 l 25xb0
 89 700 l 25
 239 700 l 25x70
 239 600 l 25
 314 600 l 25xb0
 314 700 l 25
 389 700 l 25
 389 600 l 25
 351 600 l 25x70
 351 500 l 25
 201 500 l 25xb0
 201 600 l 25
 126 600 l 25x70
 126 500 l 25
 51 501 l 25
 51 600 l 29xb0
EndSplineSet
EndChar

StartChar: section
Encoding: 167 167 177
Width: 440
Flags: HW
HStem: 0 100<108 220> 100 100<32 70> 200 100<182 220> 300 100<108 145 295 332> 400 100<220 258> 500 100<370 408> 600 100<220 332>
VStem: 32 75<100 200> 108 75<300 400> 145 75<500 600> 220 75<100 200> 258 75<300 400> 332 75<500 600>
LayerCount: 2
Back
Fore
SplineSet
258 400 m 29x0890
 182 400 l 25
 182 300 l 25x2890
 258 300 l 25x1090
 258 400 l 29x0890
332 500 m 25x0488
 332 600 l 25
 220 600 l 25
 220 500 l 25x0a48
 295 500 l 25
 295 400 l 25x1420
 332 400 l 25
 332 300 l 25x1410
 295 300 l 25
 295 100 l 25x5420
 258 100 l 25x5410
 258 0 l 25
 70 0 l 25x8010
 70 100 l 25
 32 100 l 25
 32 200 l 25x4110
 108 200 l 25
 108 100 l 25
 220 100 l 25
 220 200 l 25xa120
 145 200 l 25xa040
 145 300 l 25x1040
 108 300 l 25
 108 400 l 25x1080
 145 400 l 25
 145 600 l 25x1240
 182 600 l 25
 182 700 l 25
 370 700 l 25x1280
 370 600 l 25
 408 600 l 25
 408 500 l 25
 332 500 l 25x0488
EndSplineSet
EndChar

StartChar: parenleft
Encoding: 40 40 178
Width: 440
Flags: HW
HStem: 0 100<239 314> 600 100<239 314>
VStem: 126 75<200 500> 164 75<100 200 500 600> 201 112<0 100 600 700>
LayerCount: 2
Back
Fore
SplineSet
201 600 m 29xc8
 201 700 l 25
 314 700 l 25
 314 600 l 25xc8
 239 600 l 25
 239 500 l 25xd0
 201 500 l 25
 201 200 l 25xe0
 239 200 l 25
 239 100 l 25xd0
 314 100 l 25
 314 0 l 25
 201 0 l 25
 201 100 l 25xc8
 164 100 l 25
 164 200 l 25xd0
 126 200 l 25
 126 500 l 25xe0
 164 500 l 25
 164 600 l 25xd0
 201 600 l 29xc8
EndSplineSet
EndChar

StartChar: quotedbl
Encoding: 34 34 179
Width: 440
Flags: HW
HStem: 400 100<70 108 258 295> 600 100<70 108 258 295>
VStem: 70 75<400 500> 108 75<500 600> 258 75<400 500> 295 75<500 600>
LayerCount: 2
Back
Fore
SplineSet
258 400 m 29xc8
 258 500 l 29xc8
 295 500 l 29
 295 600 l 29xc4
 258 600 l 29
 258 700 l 29xc8
 370 700 l 29
 370 500 l 29xc4
 332 500 l 29
 332 400 l 29
 258 400 l 29xc8
70 600 m 29xe0
 70 700 l 29xe0
 182 700 l 29
 182 500 l 29xd0
 145 500 l 29
 145 400 l 29
 70 400 l 29
 70 500 l 29xe0
 108 500 l 29
 108 600 l 29xd0
 70 600 l 29xe0
EndSplineSet
EndChar

StartChar: numbersign
Encoding: 35 35 180
Width: 440
Flags: HW
HStem: 0 21G<108 182 258 332> 200 100<32 108 182 258 332 408> 400 100<32 108 182 258 332 408> 680 20G<108 182 258 332>
VStem: 108 75<0 200 300 400 500 700> 258 75<0 200 300 400 500 700>
LayerCount: 2
Back
Fore
SplineSet
182 300 m 29
 258 300 l 25
 258 400 l 25
 182 400 l 25
 182 300 l 29
108 700 m 25
 182 700 l 25
 182 500 l 25
 258 500 l 25
 258 700 l 25
 332 700 l 25
 332 500 l 25
 408 500 l 25
 408 400 l 25
 332 400 l 25
 332 300 l 25
 408 300 l 25
 408 200 l 25
 332 200 l 25
 332 0 l 25
 258 0 l 25
 258 200 l 25
 182 200 l 25
 182 0 l 25
 108 0 l 25
 108 200 l 25
 32 200 l 25
 32 300 l 25
 108 300 l 25
 108 400 l 25
 32 400 l 25
 32 500 l 25
 108 500 l 25
 108 700 l 25
EndSplineSet
EndChar

StartChar: dollar
Encoding: 36 36 181
Width: 440
Flags: HW
HStem: 0 100<108 182 258 332> 100 100<32 70> 300 100<108 182 258 332> 500 100<370 408> 600 100<108 182 258 332>
VStem: 32 75<100 200 400 600> 70 300<0 100 300 400 600 700> 182 75<-100 0 100 300 400 600 700 800> 332 75<100 300 500 600>
LayerCount: 2
Back
Fore
SplineSet
332 100 m 29xa180
 332 300 l 25
 258 300 l 25
 258 100 l 25
 332 100 l 29xa180
182 600 m 25x2d
 108 600 l 25
 108 400 l 25
 182 400 l 25
 182 600 l 25x2d
258 800 m 25
 258 700 l 1xa9
 370 700 l 25xaa
 370 600 l 25x32
 408 600 l 25
 408 500 l 25
 332 500 l 25x3080
 332 600 l 25
 258 600 l 25
 258 400 l 25x2980
 370 400 l 25
 370 300 l 25x2a
 408 300 l 25
 408 100 l 25x6880
 370 100 l 25x6a
 370 0 l 25xa2
 258 0 l 25
 258 -100 l 25
 182 -100 l 25
 182 0 l 25xa1
 70 0 l 25xa2
 70 100 l 25x62
 32 100 l 25
 32 200 l 25
 108 200 l 25x64
 108 100 l 25
 182 100 l 25
 182 300 l 25xa5
 70 300 l 25
 70 400 l 25xa2
 32 400 l 25
 32 600 l 25xac
 70 600 l 25
 70 700 l 25xaa
 182 700 l 25
 182 800 l 1
 258 800 l 25
EndSplineSet
EndChar

StartChar: percent
Encoding: 37 37 182
Width: 440
Flags: HW
HStem: 0 100<70 108 332 370> 100 100<258 295 408 445> 200 100<332 370> 400 100<70 108> 500 100<-5 32 145 182> 600 100<70 108 332 370>
VStem: -5 75<500 600> 32 112<400 500 600 700> 70 75<0 100> 108 75<100 200 500 600> 145 75<200 300> 182 75<300 400> 220 75<400 500> 258 75<100 200 500 600> 295 112<0 100 200 300> 295 75<600 700> 370 75<100 200>
LayerCount: 2
Back
Fore
SplineSet
295 700 m 29x0401
 370 700 l 25
 370 600 l 25x0401
 332 600 l 25x0404
 332 500 l 25x0804
 295 500 l 25x0808
 295 400 l 25x1008
 258 400 l 25
 258 300 l 25x3010
 220 300 l 25
 220 200 l 25x3020
 182 200 l 25x3040
 182 100 l 25x4040
 145 100 l 25x4080
 145 0 l 25
 70 0 l 25
 70 100 l 25x8080
 108 100 l 25
 108 200 l 25xa040
 145 200 l 25
 145 300 l 25xa020
 182 300 l 25
 182 400 l 25xb010
 220 400 l 25xb008
 220 500 l 25x0808
 258 500 l 25x0804
 258 600 l 25x0404
 295 600 l 25
 295 700 l 29x0401
332 100 m 25xa00480
 370 100 l 25
 370 200 l 25
 332 200 l 25
 332 100 l 25xa00480
295 300 m 25x2002
 408 300 l 25x2002
 408 200 l 25x4002
 445 200 l 25
 445 100 l 25x400080
 408 100 l 25x4002
 408 0 l 25
 295 0 l 25x8002
 295 100 l 25x4002
 258 100 l 25
 258 200 l 25x4004
 295 200 l 25x4002
 295 300 l 25x2002
70 600 m 25x1640
 70 500 l 25
 108 500 l 25
 108 600 l 25
 70 600 l 25x1640
-5 600 m 25x0a
 32 600 l 25x09
 32 700 l 25
 145 700 l 25x05
 145 600 l 25x09
 182 600 l 25
 182 500 l 25x0840
 145 500 l 25x09
 145 400 l 25
 32 400 l 25x11
 32 500 l 25x09
 -5 500 l 25
 -5 600 l 25x0a
EndSplineSet
EndChar

StartChar: ampersand
Encoding: 38 38 183
Width: 440
Flags: HW
HStem: 0 100<89 239 351 426> 100 100<14 51 276 314> 200 100<351 389> 300 100<126 201> 600 100<126 201>
VStem: 14 75<100 200> 51 75<200 300 400 600> 89 150<300 400 600 700> 201 75<200 300 400 600> 314 112<0 100> 314 75<200 300>
LayerCount: 2
Back
Fore
SplineSet
126 300 m 29x1a80
 126 200 l 25x2a80
 89 200 l 25
 89 100 l 25xac
 239 100 l 25
 239 200 l 25xa9
 201 200 l 25xa880
 201 300 l 25
 126 300 l 29x1a80
126 600 m 25
 126 400 l 25
 201 400 l 25x1a80
 201 600 l 25
 126 600 l 25
89 700 m 25x59
 239 700 l 25
 239 600 l 25x59
 276 600 l 25
 276 400 l 25x5880
 239 400 l 25
 239 300 l 25x59
 276 300 l 25
 276 200 l 25
 314 200 l 25
 314 300 l 25x58a0
 389 300 l 25
 389 200 l 25x28a0
 351 200 l 25
 351 100 l 25
 426 100 l 25
 426 0 l 25
 314 0 l 25xa840
 314 100 l 25
 276 100 l 25x48c0
 276 0 l 25
 51 0 l 25x8ac0
 51 100 l 25x4ac0
 14 100 l 25
 14 200 l 25x4c
 51 200 l 25
 51 300 l 25x5a
 89 300 l 25
 89 400 l 25x59
 51 400 l 25
 51 600 l 25x5a
 89 600 l 25
 89 700 l 25x59
EndSplineSet
EndChar

StartChar: quotesingle
Encoding: 39 39 184
Width: 440
Flags: HW
HStem: 400 100<70 108 258 295> 600 100<70 108 258 295>
VStem: 70 75<400 500> 108 75<500 600> 258 75<400 500> 295 75<500 600>
LayerCount: 2
Back
Fore
SplineSet
258 400 m 29xc8
 258 500 l 29xc8
 295 500 l 29
 295 600 l 29xc4
 258 600 l 29
 258 700 l 29xc8
 370 700 l 29
 370 500 l 29xc4
 332 500 l 29
 332 400 l 29
 258 400 l 29xc8
70 600 m 29xe0
 70 700 l 29xe0
 182 700 l 29
 182 500 l 29xd0
 145 500 l 29
 145 400 l 29
 70 400 l 29
 70 500 l 29xe0
 108 500 l 29
 108 600 l 29xd0
 70 600 l 29xe0
EndSplineSet
EndChar

StartChar: parenright
Encoding: 41 41 185
Width: 440
Flags: HW
HStem: 0 100<126 201> 600 100<126 201>
VStem: 126 112<0 100 600 700> 201 75<100 200 500 600> 239 75<200 500>
LayerCount: 2
Back
Fore
SplineSet
126 700 m 29xe0
 239 700 l 25
 239 600 l 25xe0
 276 600 l 25
 276 500 l 25xd0
 314 500 l 25
 314 200 l 25xc8
 276 200 l 25
 276 100 l 25xd0
 239 100 l 25
 239 0 l 25
 126 0 l 25
 126 100 l 25xe0
 201 100 l 25
 201 200 l 25xd0
 239 200 l 25
 239 500 l 25xc8
 201 500 l 25
 201 600 l 25xd0
 126 600 l 25
 126 700 l 29xe0
EndSplineSet
EndChar

StartChar: braceleft
Encoding: 123 123 186
Width: 440
Flags: HW
HStem: 0 100<258 332> 300 100<108 182> 600 100<258 332>
VStem: 108 112<300 400> 182 75<100 300 400 600> 220 112<0 100 600 700>
CounterMasks: 1 e0
LayerCount: 2
Back
Fore
SplineSet
332 700 m 29xe4
 332 600 l 1xe4
 258 600 l 25
 258 400 l 25xe8
 220 400 l 25
 220 300 l 25xf0
 258 300 l 25
 258 100 l 25xe8
 332 100 l 25
 332 0 l 25
 220 0 l 25
 220 100 l 25xe4
 182 100 l 25
 182 300 l 25xe8
 108 300 l 25
 108 400 l 25xf0
 182 400 l 25
 182 600 l 25xe8
 220 600 l 25
 220 700 l 1
 332 700 l 29xe4
EndSplineSet
EndChar

StartChar: bar
Encoding: 124 124 187
Width: 440
Flags: HW
HStem: 0 21G<182 258> 680 20G<182 258>
VStem: 182 75<0 700>
LayerCount: 2
Back
Fore
SplineSet
182 700 m 29
 258 700 l 25
 258 0 l 25
 182 0 l 25
 182 700 l 29
EndSplineSet
EndChar

StartChar: braceright
Encoding: 125 125 188
Width: 440
Flags: HW
HStem: 0 100<108 182> 300 100<258 332> 600 100<108 182>
VStem: 108 112<0 100 600 700> 182 75<100 300 400 600> 220 112<300 400>
CounterMasks: 1 e0
LayerCount: 2
Back
Fore
SplineSet
108 700 m 29xf0
 220 700 l 25
 220 600 l 25xf0
 258 600 l 25
 258 400 l 25xe8
 332 400 l 25
 332 300 l 25xe4
 258 300 l 25
 258 100 l 25xe8
 220 100 l 25
 220 0 l 25
 108 0 l 25
 108 100 l 25xf0
 182 100 l 25
 182 300 l 25xe8
 220 300 l 25
 220 400 l 25xe4
 182 400 l 25
 182 600 l 25xe8
 108 600 l 25
 108 700 l 29xf0
EndSplineSet
EndChar

StartChar: uni0451
Encoding: 1105 1105 189
Width: 440
Flags: HW
HStem: 0 100<126 351> 200 100<126 314> 400 100<126 314> 600 100<89 164 276 351>
VStem: 51 75<100 200 300 400> 89 75<600 700> 276 75<600 700> 314 75<300 400>
LayerCount: 2
Back
Fore
SplineSet
276 700 m 25xf2
 351 700 l 25
 351 600 l 25
 276 600 l 25
 276 700 l 25xf2
89 700 m 25xf4
 164 700 l 25
 164 600 l 25
 89 600 l 25
 89 700 l 25xf4
126 400 m 1xf9
 126 300 l 1
 314 300 l 1
 314 400 l 1
 126 400 l 1xf9
89 400 m 1xf4
 90 500 l 1
 350 500 l 1
 351 400 l 25xf6
 389 400 l 25
 389 200 l 1
 126 200 l 1
 126 100 l 1xf9
 351 100 l 1
 351 0 l 1
 89 0 l 1
 89 100 l 1xf6
 51 100 l 1
 51 400 l 5xf8
 89 400 l 1xf4
EndSplineSet
EndChar

StartChar: underscore
Encoding: 95 95 190
Width: 440
Flags: HW
HStem: -100 100<32 408>
LayerCount: 2
Back
Fore
SplineSet
32 -100 m 29
 32 0 l 1
 408 0 l 25
 408 -100 l 1
 32 -100 l 29
EndSplineSet
EndChar

StartChar: asciicircum
Encoding: 94 94 191
Width: 440
Flags: HW
HStem: 400 100<89 126 314 351> 600 100<201 239>
VStem: 89 75<400 500> 126 75<500 600> 239 75<500 600> 276 75<400 500>
LayerCount: 2
Back
Fore
SplineSet
89 400 m 29xe0
 89 500 l 25xe0
 126 500 l 25
 126 600 l 25xd0
 164 600 l 25
 164 700 l 25
 276 700 l 25
 276 600 l 25xe4
 314 600 l 25
 314 500 l 25xc8
 351 500 l 25
 351 400 l 25
 276 400 l 25
 276 500 l 25xc4
 239 500 l 25
 239 600 l 25
 201 600 l 25
 201 500 l 25xd8
 164 500 l 25
 164 400 l 25
 89 400 l 29xe0
EndSplineSet
EndChar

StartChar: grave
Encoding: 96 96 192
Width: 440
Flags: HW
HStem: 400 100<258 295> 600 100<145 182>
VStem: 145 75<600 700> 182 75<500 600> 220 75<400 500>
LayerCount: 2
Back
Fore
SplineSet
145 700 m 29xe0
 220 700 l 25
 220 600 l 25xe0
 258 600 l 25
 258 500 l 25xd0
 295 500 l 25
 295 400 l 25
 220 400 l 25
 220 500 l 25xc8
 182 500 l 25
 182 600 l 25xd0
 145 600 l 25
 145 700 l 29xe0
EndSplineSet
EndChar

StartChar: bracketleft
Encoding: 91 91 193
Width: 440
Flags: HW
HStem: 0 100<220 295> 600 100<220 295>
VStem: 145 150<0 100 600 700> 145 75<100 600>
LayerCount: 2
Back
Fore
SplineSet
295 600 m 29xe0
 220 600 l 25
 220 100 l 25xd0
 295 100 l 25
 295 0 l 25
 145 0 l 25
 145 700 l 25
 295 700 l 25
 295 600 l 29xe0
EndSplineSet
EndChar

StartChar: bracketright
Encoding: 93 93 194
Width: 440
Flags: HW
HStem: 0 100<145 220> 600 100<145 220>
VStem: 145 150<0 100 600 700> 220 75<100 600>
LayerCount: 2
Back
Fore
SplineSet
145 700 m 29xe0
 294 700 l 1
 295 0 l 25
 145 0 l 25
 145 100 l 25xe0
 220 100 l 25
 220 600 l 25xd0
 145 600 l 1
 145 700 l 29xe0
EndSplineSet
EndChar

StartChar: backslash
Encoding: 92 92 195
Width: 440
Flags: HW
HStem: 0 100<332 370> 600 100<70 108>
VStem: 70 75<600 700> 108 75<500 600> 145 75<400 500> 182 75<300 400> 220 75<200 300> 258 75<100 200> 295 75<0 100>
LayerCount: 2
Back
Fore
SplineSet
70 600 m 29xe0
 70 700 l 25
 145 700 l 25
 145 600 l 25xe0
 182 600 l 25
 182 500 l 25xd0
 220 500 l 25
 220 400 l 25xc8
 258 400 l 25
 258 300 l 25xc4
 295 300 l 25
 295 200 l 25xc2
 332 200 l 25
 332 100 l 25xc1
 370 100 l 25
 370 0 l 25
 295 0 l 25
 295 100 l 25xc080
 258 100 l 25
 258 200 l 25xc1
 220 200 l 25
 220 300 l 25xc2
 182 300 l 25
 182 400 l 25xc4
 145 400 l 25
 145 500 l 25xc8
 108 500 l 25
 108 600 l 25xd0
 70 600 l 29xe0
EndSplineSet
EndChar

StartChar: Odieresis
Encoding: 214 214 196
Width: 440
Flags: HMW
LayerCount: 2
Back
Fore
SplineSet
145 500 m 29
 145 400 l 25
 108 400 l 25
 108 200 l 25
 145 200 l 25
 145 100 l 25
 295 100 l 25
 295 200 l 25
 332 200 l 25
 332 400 l 25
 295 400 l 25
 295 500 l 25
 145 500 l 29
108 600 m 25
 332 600 l 25
 332 500 l 25
 370 500 l 25
 370 400 l 25
 408 400 l 25
 408 200 l 25
 370 200 l 25
 370 100 l 25
 332 100 l 25
 332 0 l 25
 108 0 l 25
 108 100 l 25
 70 100 l 25
 70 200 l 25
 32 200 l 25
 32 400 l 25
 70 400 l 25
 70 500 l 25
 108 500 l 25
 108 600 l 25
258 700 m 25
 258 800 l 25
 332 800 l 25
 332 700 l 25
 258 700 l 25
108 700 m 25
 108 800 l 25
 182 800 l 25
 182 700 l 25
 108 700 l 25
EndSplineSet
EndChar

StartChar: acute
Encoding: 180 180 197
Width: 440
Flags: HW
HStem: 400 100<145 182> 600 100<258 295>
VStem: 145 75<400 500> 182 75<500 600> 220 75<600 700>
LayerCount: 2
Back
Fore
SplineSet
220 600 m 29xc8
 220 700 l 25
 295 700 l 25
 295 600 l 25xc8
 258 600 l 25
 258 500 l 25xd0
 220 500 l 25
 220 400 l 25
 145 400 l 25
 145 500 l 25xe0
 182 500 l 25
 182 600 l 25xd0
 220 600 l 29xc8
EndSplineSet
EndChar

StartChar: plusminus
Encoding: 177 177 198
Width: 440
Flags: HW
HStem: 100 100<70 370> 451 99<70 182 258 370> 680 20G<182 258>
VStem: 182 75<300 450 550 700>
LayerCount: 2
Back
Fore
SplineSet
70 200 m 29
 370 200 l 25
 370 101 l 25
 70 100 l 25
 70 200 l 29
70 550 m 25
 182 550 l 25
 182 700 l 25
 258 700 l 25
 258 550 l 25
 370 551 l 25
 370 450 l 25
 258 450 l 25
 258 300 l 25
 182 300 l 25
 182 451 l 25
 70 451 l 25
 70 550 l 25
EndSplineSet
EndChar

StartChar: uni20BD
Encoding: 8381 8381 199
Width: 440
Flags: HW
HStem: 0 21G<89 164> 150 100<14 89 164 314> 300 100<14 89 164 351> 600 100<164 351>
VStem: 89 75<0 150 250 300 400 600> 351 75<400 600>
LayerCount: 2
Back
Fore
SplineSet
164 400 m 25
 351 400 l 25
 351 600 l 25
 164 600 l 25
 164 400 l 25
89 700 m 25
 389 700 l 25
 389 650 l 25
 426 650 l 25
 426 400 l 25
 389 400 l 25
 389 300 l 25
 164 300 l 25
 164 250 l 1
 314 250 l 5
 314 150 l 1
 164 150 l 1
 164 0 l 25
 89 0 l 25
 89 150 l 25
 14 150 l 25
 14 250 l 25
 89 250 l 25
 89 300 l 25
 14 300 l 25
 14 400 l 25
 89 400 l 25
 89 700 l 25
EndSplineSet
EndChar

StartChar: Udieresis
Encoding: 220 220 200
Width: 440
Flags: HW
HStem: 0 100<126 314> 700 100<89 164 276 351>
VStem: 51 75<100 600> 89 75<700 800> 276 75<700 800> 314 75<100 600>
LayerCount: 2
Back
Fore
SplineSet
276 800 m 29xc8
 351 800 l 25
 351 700 l 25
 276 700 l 25
 276 800 l 29xc8
89 700 m 25xd0
 89 800 l 25
 164 800 l 25
 164 700 l 25
 89 700 l 25xd0
51 600 m 1xe0
 126 600 l 1
 126 100 l 1
 314 100 l 1
 314 600 l 1
 389 600 l 1
 389 100 l 1xe4
 351 100 l 25
 351 0 l 25
 89 0 l 25
 89 100 l 25xd8
 51 100 l 1
 51 600 l 1xe0
EndSplineSet
EndChar

StartChar: Adieresis
Encoding: 196 196 201
Width: 440
Flags: HW
HStem: 0 21G<32 108 332 408> 200 100<108 332> 500 100<145 295> 700 100<108 182 258 332>
VStem: 32 75<0 200 300 400> 70 75<400 500> 108 75<700 800> 258 75<700 800> 295 75<400 500> 332 75<0 200 300 400>
LayerCount: 2
Back
Fore
SplineSet
258 700 m 25xf1
 258 800 l 25
 332 800 l 25
 332 700 l 25
 258 700 l 25xf1
108 700 m 25xf2
 108 800 l 25
 182 800 l 25
 182 700 l 25
 108 700 l 25xf2
108 300 m 25xf8
 332 300 l 25
 332 400 l 25xf840
 295 400 l 1
 295 500 l 25
 145 500 l 1
 145 400 l 29xf480
 108 400 l 1
 108 300 l 25xf8
32 0 m 25
 32 400 l 1xf840
 70 400 l 25
 70 500 l 25xf4
 108 500 l 25
 108 600 l 25
 332 600 l 25
 332 500 l 25xf240
 370 500 l 25
 370 400 l 25xf080
 408 400 l 25
 408 0 l 25
 332 0 l 25
 332 200 l 25
 108 200 l 25
 108 0 l 1
 32 0 l 25
EndSplineSet
EndChar

StartChar: adieresis
Encoding: 228 228 202
Width: 440
Flags: HW
HStem: 0 100<108 295 370 407> 100 100<32 70> 200 100<108 295> 400 100<70 295> 600 100<108 182 258 332>
VStem: 32 75<100 200> 108 75<600 700> 258 75<600 700> 295 75<100 200 300 400>
LayerCount: 2
Back
Fore
SplineSet
258 600 m 29x19
 258 700 l 29
 332 700 l 29
 332 600 l 29
 258 600 l 29x19
108 600 m 29x1a
 108 700 l 29
 182 700 l 29
 182 600 l 29
 108 600 l 29x1a
108 200 m 25xbc80
 108 100 l 25
 295 100 l 25
 295 200 l 25
 108 200 l 25xbc80
70 500 m 25
 332 500 l 25
 332 400 l 25x39
 370 400 l 25
 370 100 l 25
 407 100 l 25
 408 0 l 25
 70 0 l 25xb880
 70 100 l 25
 32 100 l 25
 32 200 l 25
 70 200 l 25x5c80
 70 300 l 25
 295 300 l 25
 295 400 l 25
 70 400 l 25
 70 500 l 25
EndSplineSet
EndChar

StartChar: odieresis
Encoding: 246 246 203
Width: 440
Flags: HW
HStem: 0 100<126 314> 400 100<126 314> 600 100<89 164 276 351>
VStem: 51 75<100 400> 89 75<600 700> 276 75<600 700> 314 75<100 400>
LayerCount: 2
Back
Fore
SplineSet
276 600 m 29xe4
 276 700 l 29
 351 700 l 29
 351 600 l 29
 276 600 l 29xe4
89 600 m 25xe8
 89 700 l 25
 164 700 l 25
 164 600 l 25
 89 600 l 25xe8
126 400 m 25xf2
 126 100 l 25
 314 100 l 25
 314 400 l 25
 126 400 l 25xf2
89 500 m 25xe8
 351 500 l 25
 351 400 l 25xec
 389 400 l 25
 389 100 l 25xe2
 351 100 l 25
 351 0 l 25
 89 0 l 25
 89 100 l 25xec
 51 100 l 25
 51 400 l 25xf0
 89 400 l 25
 89 500 l 25xe8
EndSplineSet
EndChar

StartChar: germandbls
Encoding: 223 223 204
Width: 440
Flags: HW
HStem: 0 100<164 314> 300 100<201 276> 600 100<164 276>
VStem: 51 75<0 500> 89 75<500 600> 201 112<300 400> 276 75<400 600> 314 75<100 300>
CounterMasks: 1 e0
LayerCount: 2
Back
Fore
SplineSet
126 600 m 25xf0
 126 700 l 1
 314 700 l 25
 314 600 l 25xf1
 351 600 l 25
 351 400 l 25xe2
 314 400 l 25
 314 300 l 25xe4
 389 300 l 25
 389 100 l 25xe1
 351 100 l 25
 351 0 l 25xe2
 164 0 l 25
 164 100 l 25
 314 100 l 25xe9
 314 300 l 25
 201 300 l 25
 201 400 l 25xe4
 276 400 l 25
 276 600 l 25
 164 600 l 25
 164 500 l 25xea
 126 500 l 25
 126 0 l 25
 51 0 l 25
 51 500 l 25xf0
 89 500 l 25
 89 600 l 1xe8
 126 600 l 25xf0
EndSplineSet
EndChar

StartChar: uniFFFD
Encoding: 65533 65533 205
Width: 440
Flags: HW
HStem: -200 21G<145 295> 100 100<182 258> 480 20G<182 258> 600 200<145 295>
VStem: 32 75<400 500> 70 112<0 100> 70 75<500 600> 108 225<-100 0 600 700> 145 150<-200 -100 700 800> 182 75<400 500> 258 112<0 100> 295 75<500 600> 332 112<300 400> 332 75<400 500>
LayerCount: 2
Back
Fore
SplineSet
182 200 m 29xf040
 295 200 l 25
 295 300 l 25xf050
 332 300 l 25xf008
 332 500 l 25xf004
 295 500 l 25
 295 600 l 25
 145 600 l 25
 145 500 l 25xf210
 108 500 l 25
 108 400 l 25
 182 400 l 25
 182 500 l 25
 258 500 l 25xf840
 258 300 l 25xf020
 182 300 l 25
 182 200 l 29xf040
182 0 m 25xf420
 258 0 l 25
 258 100 l 25
 182 100 l 25
 182 0 l 25xf420
-5 200 m 25
 -5 400 l 25
 32 400 l 25
 32 500 l 25xf8
 70 500 l 25
 70 600 l 25xf2
 108 600 l 25
 108 700 l 25xf1
 145 700 l 25
 145 800 l 25
 295 800 l 25
 295 700 l 25xf080
 332 700 l 25
 332 600 l 25xf1
 370 600 l 25
 370 500 l 25xf010
 408 500 l 25
 408 400 l 25xf004
 445 400 l 25
 445 200 l 25xf008
 408 200 l 25
 408 100 l 25xf004
 370 100 l 25
 370 0 l 25xf020
 332 0 l 25
 332 -100 l 25xf1
 295 -100 l 25
 295 -200 l 25
 145 -200 l 25
 145 -100 l 25xf080
 108 -100 l 25
 108 0 l 25xf1
 70 0 l 25
 70 100 l 25xf4
 32 100 l 25
 32 200 l 25xf8
 -5 200 l 25
EndSplineSet
EndChar

StartChar: Oslash
Encoding: 216 216 206
Width: 440
Flags: HW
HStem: 0 100<145 295> 600 100<145 295>
VStem: 32 75<200 500> 70 75<100 200 500 600> 108 225<0 100 600 700> 295 75<100 200 500 600> 332 75<200 500>
LayerCount: 2
Back
Fore
SplineSet
295 100 m 29xd4
 295 200 l 25xd4
 332 200 l 25
 332 500 l 25xc2
 295 500 l 25
 295 600 l 25
 145 600 l 25
 145 500 l 25xd4
 108 500 l 25
 108 200 l 25xe0
 145 200 l 25
 145 100 l 25
 295 100 l 29xd4
332 0 m 25xc8
 108 0 l 25
 108 100 l 25xc8
 70 100 l 25
 70 200 l 25xd0
 32 200 l 25
 32 500 l 25xe0
 70 500 l 25
 70 600 l 25xd0
 108 600 l 25
 108 700 l 25
 332 700 l 25
 332 600 l 25xc8
 370 600 l 25
 370 500 l 25xc4
 408 500 l 25
 408 200 l 25xc2
 370 200 l 25
 370 100 l 25xc4
 332 100 l 25
 332 0 l 25xc8
EndSplineSet
EndChar

StartChar: multiply
Encoding: 215 215 207
Width: 440
Flags: HMW
LayerCount: 2
Back
Fore
SplineSet
108 200 m 29
 108 300 l 25
 182 300 l 25
 182 400 l 25
 108 400 l 25
 108 500 l 25
 182 500 l 25
 182 400 l 25
 258 400 l 25
 258 500 l 25
 332 500 l 25
 332 400 l 25
 258 400 l 25
 258 300 l 25
 332 300 l 25
 332 200 l 25
 258 200 l 25
 258 300 l 25
 182 300 l 25
 182 200 l 25
 108 200 l 29
EndSplineSet
EndChar

StartChar: divide
Encoding: 247 247 208
Width: 440
Flags: HMW
LayerCount: 2
Back
Fore
SplineSet
182 100 m 29
 182 200 l 25
 258 200 l 25
 258 100 l 25
 182 100 l 29
70 300 m 25
 70 400 l 25
 370 400 l 25
 370 300 l 25
 70 300 l 25
182 500 m 25
 182 600 l 25
 258 600 l 25
 258 500 l 25
 182 500 l 25
EndSplineSet
EndChar

StartChar: brokenbar
Encoding: 166 166 209
Width: 440
Flags: HW
HStem: 0 21G<182 258> 680 20G<182 258>
VStem: 182 75<0 700>
LayerCount: 2
Back
Fore
SplineSet
182 700 m 29
 258 700 l 25
 258 0 l 25
 182 0 l 25
 182 700 l 29
EndSplineSet
EndChar

StartChar: degree
Encoding: 176 176 210
Width: 440
Flags: HMW
LayerCount: 2
Back
Fore
SplineSet
182 600 m 29
 182 500 l 25
 258 500 l 25
 258 600 l 25
 182 600 l 29
145 600 m 25
 145 700 l 25
 295 700 l 25
 295 600 l 25
 332 600 l 25
 332 500 l 25
 295 500 l 25
 295 400 l 25
 145 400 l 25
 145 500 l 25
 108 500 l 25
 108 600 l 25
 145 600 l 25
EndSplineSet
EndChar

StartChar: arrowright
Encoding: 8594 8594 211
Width: 440
Flags: HW
HStem: 100 100<201 239> 300 100<14 239 351 426> 500 100<201 239>
VStem: 201 75<100 200 500 600> 239 112<200 300 400 500>
CounterMasks: 1 e0
LayerCount: 2
Back
Fore
SplineSet
201 500 m 29xf0
 201 600 l 25
 276 600 l 25
 276 500 l 25xf0
 351 500 l 25
 351 400 l 25
 426 400 l 25
 426 300 l 25
 351 300 l 25
 351 200 l 25xe8
 276 200 l 25
 276 100 l 25
 201 100 l 25
 201 200 l 25xf0
 239 200 l 25
 239 300 l 25
 14 300 l 25
 14 400 l 25
 239 400 l 25
 239 500 l 25xe8
 201 500 l 29xf0
EndSplineSet
EndChar

StartChar: arrowleft
Encoding: 8592 8592 212
Width: 440
Flags: HW
HStem: 100 100<220 258> 300 100<32 108 220 408> 500 100<220 258>
VStem: 108 112<200 300 400 500> 182 75<100 200 500 600>
CounterMasks: 1 e0
LayerCount: 2
Back
Fore
SplineSet
182 500 m 29xe8
 182 600 l 25
 258 600 l 25
 258 500 l 25xe8
 220 500 l 25
 220 400 l 25
 408 400 l 25
 408 300 l 25
 220 300 l 25
 220 200 l 25xf0
 258 200 l 25
 258 100 l 25
 182 100 l 25
 182 200 l 25xe8
 108 200 l 25
 108 300 l 25
 32 300 l 25
 32 400 l 25
 108 400 l 25
 108 500 l 25xf0
 182 500 l 29xe8
EndSplineSet
EndChar

StartChar: arrowup
Encoding: 8593 8593 213
Width: 440
Flags: HW
HStem: 0 21G<182 258> 300 100<70 108 332 370> 680 20G<182 258>
VStem: 70 75<300 400> 182 75<0 400 600 700> 295 75<300 400>
CounterMasks: 1 1c
LayerCount: 2
Back
Fore
SplineSet
145 300 m 29
 70 300 l 25
 70 400 l 25
 108 400 l 25
 108 500 l 25
 145 500 l 25
 145 600 l 25
 182 600 l 25
 182 700 l 25
 258 700 l 25
 258 600 l 25
 295 600 l 25
 295 500 l 25
 332 500 l 25
 332 400 l 25
 370 400 l 25
 370 300 l 25
 295 300 l 25
 295 400 l 25
 258 400 l 25
 258 0 l 25
 182 0 l 25
 182 400 l 25
 145 400 l 25
 145 300 l 29
EndSplineSet
EndChar

StartChar: arrowdown
Encoding: 8595 8595 214
Width: 440
Flags: HW
HStem: 0 21G<182 258> 300 100<70 108 332 370> 680 20G<182 258>
VStem: 70 75<300 400> 182 75<0 100 300 700> 295 75<300 400>
CounterMasks: 1 1c
LayerCount: 2
Back
Fore
SplineSet
182 300 m 29
 182 700 l 1
 258 700 l 25
 258 300 l 25
 295 300 l 25
 295 400 l 25
 370 400 l 25
 370 300 l 25
 332 300 l 25
 332 200 l 25
 295 200 l 25
 295 100 l 25
 258 100 l 25
 258 0 l 25
 182 0 l 25
 182 100 l 25
 145 100 l 25
 145 200 l 25
 108 200 l 25
 108 300 l 25
 70 300 l 25
 70 400 l 25
 145 400 l 25
 145 300 l 1
 182 300 l 29
EndSplineSet
EndChar

StartChar: arrowboth
Encoding: 8596 8596 215
Width: 440
Flags: HW
HStem: 100 100<70 145 295 370> 200 300<-5 70 370 445> 300 100<-80 -5 70 370 445 520> 500 100<70 145 295 370>
VStem: -5 75<200 300 400 500> 70 75<100 200 500 600> 295 75<100 200 500 600> 370 75<200 300 400 500>
LayerCount: 2
Back
Fore
SplineSet
-80 300 m 29x28
 -80 400 l 25
 -5 400 l 25x28
 -5 500 l 25
 70 500 l 25x48
 70 600 l 25
 145 600 l 25
 145 500 l 25x14
 70 500 l 25x48
 70 400 l 25
 370 400 l 25x29
 370 500 l 25x42
 295 500 l 25
 295 600 l 25
 370 600 l 25x12
 370 500 l 25x42
 445 500 l 25x41
 445 400 l 25
 520 400 l 25
 520 300 l 25
 445 300 l 25x21
 445 200 l 25x41
 370 200 l 25
 370 100 l 25
 295 100 l 25
 295 200 l 25
 370 200 l 25x82
 370 300 l 25
 70 300 l 25
 70 200 l 25xa9
 145 200 l 25
 145 100 l 25
 70 100 l 25xa4
 70 200 l 25xa8
 -5 200 l 25x48
 -5 300 l 25
 -80 300 l 29x28
EndSplineSet
EndChar

StartChar: arrowupdn
Encoding: 8597 8597 216
Width: 440
Flags: HW
HStem: 0 21G<145 295> 200 100<70 108 332 370> 400 100<70 108 332 370> 680 20G<145 295>
VStem: 70 75<200 300 400 500> 108 225<100 200 500 600> 145 150<0 100 600 700> 295 75<200 300 400 500>
LayerCount: 2
Back
Fore
SplineSet
70 200 m 29xf8
 70 300 l 25
 145 300 l 25
 145 200 l 25
 182 200 l 25
 182 500 l 25
 145 500 l 25
 145 400 l 25
 70 400 l 25
 70 500 l 25xf8
 108 500 l 25
 108 600 l 25xf4
 145 600 l 25
 145 700 l 25
 295 700 l 25
 295 600 l 25xf2
 332 600 l 25
 332 500 l 25xf4
 370 500 l 25
 370 400 l 25
 295 400 l 25
 295 500 l 25
 258 500 l 25
 258 200 l 25
 295 200 l 25
 295 300 l 25
 370 300 l 25
 370 200 l 25xf1
 332 200 l 25
 332 100 l 25xf4
 295 100 l 25
 295 0 l 25
 145 0 l 25
 145 100 l 25xf2
 108 100 l 25
 108 200 l 25xf4
 70 200 l 29xf8
EndSplineSet
EndChar

StartChar: uni2600
Encoding: 9728 9728 217
Width: 440
Flags: HW
HStem: -100 100<182 258> 0 100<-5 70 370 445> 200 300<108 182 258 332> 300 100<-155 -42 32 108 332 408 482 595> 600 100<-42 32 408 482> 700 100<182 258>
VStem: -155 112<300 400> -42 75<600 700> -5 75<0 100> 108 225<200 300 400 500> 182 75<-100 0 100 200 500 600 700 800> 370 75<0 100> 408 75<600 700> 482 112<300 400>
LayerCount: 2
Back
Fore
SplineSet
408 600 m 25x0808
 408 700 l 25
 482 700 l 25
 482 600 l 25
 408 600 l 25x0808
182 700 m 25x0420
 182 800 l 25
 258 800 l 25
 258 700 l 25
 182 700 l 25x0420
-42 600 m 25x09
 -42 700 l 25
 32 700 l 25
 32 600 l 25
 -42 600 l 25x09
482 300 m 1x1004
 482 400 l 25
 595 400 l 1
 595 300 l 25
 482 300 l 1x1004
-155 300 m 1x12
 -155 400 l 25
 -42 400 l 1
 -42 300 l 25
 -155 300 l 1x12
370 0 m 25x4010
 370 100 l 25
 445 100 l 25
 445 0 l 25
 370 0 l 25x4010
182 -100 m 25x8020
 182 0 l 25
 258 0 l 25
 258 -100 l 25
 182 -100 l 25x8020
-5 0 m 25x4080
 -5 100 l 25
 70 100 l 25
 70 0 l 25
 -5 0 l 25x4080
32 300 m 25x1140
 32 400 l 1
 108 400 l 25x1140
 108 500 l 1x2140
 182 500 l 1
 182 600 l 1
 258 600 l 1
 258 500 l 25x2820
 332 500 l 25x2840
 332 400 l 25
 408 400 l 25
 408 300 l 25
 332 300 l 25x1048
 332 200 l 25x2048
 258 200 l 25
 258 100 l 25
 182 100 l 25
 182 200 l 25x6020
 108 200 l 25x6040
 108 300 l 1
 32 300 l 25x1140
EndSplineSet
EndChar

StartChar: uni2601
Encoding: 9729 9729 218
Width: 440
Flags: HW
HStem: 100 300<70 145 258 370> 200 100<-5 70 408 445> 480 20G<145 258>
VStem: 145 112<400 500>
LayerCount: 2
Back
Fore
SplineSet
-5 200 m 29x70
 -5 300 l 25
 70 300 l 25x70
 70 400 l 25
 145 400 l 25
 145 500 l 25
 258 500 l 25
 258 400 l 25
 370 400 l 25xb0
 370 300 l 25
 445 300 l 25
 445 200 l 25
 408 200 l 25x70
 408 100 l 25
 70 100 l 25xb0
 70 200 l 25
 -5 200 l 29x70
EndSplineSet
EndChar

StartChar: uni2602
Encoding: 9730 9730 219
Width: 440
Flags: HW
HStem: -100 100<108 182> 400 200<70 145 295 370> 400 100<-5 70 370 445> 680 20G<145 295>
VStem: 108 112<-100 0> 182 75<0 400>
LayerCount: 2
Back
Fore
SplineSet
-5 400 m 29xb4
 -5 500 l 25
 70 500 l 25xb4
 70 600 l 25
 145 600 l 25
 145 700 l 25
 295 700 l 25
 295 600 l 25
 370 600 l 25xd4
 370 500 l 25
 445 500 l 25
 445 400 l 25
 258 400 l 25
 258 0 l 25xb4
 220 0 l 25
 220 -100 l 25
 108 -100 l 25
 108 0 l 25xb8
 182 0 l 25
 182 400 l 25
 -5 400 l 29xb4
EndSplineSet
EndChar

StartChar: uni2603
Encoding: 9731 9731 220
Width: 440
Flags: HW
HStem: -100 100<32 108 370 445> -100 50<182 220 258 295> 0 100<145 332> 50 50<-5 32 408 445> 100 100<70 108 370 408> 150 50<-5 32> 200 100<182 220 258 295> 250 50<32 70 408 445> 350 50<-5 32 408 445> 400 100<70 108 182 220 258 295 370 408> 500 100<32 70 108 145 332 370 408 445> 600 200<182 295> 650 50<32 70 370 408> 750 50<-5 32 108 145 332 370 408 445>
VStem: -5 38<50 100 150 200 350 400 750 800> 32 38<250 300 500 600 650 700> 70 38<400 500> 108 75<300 400 500 600> 108 38<750 800> 145 75<400 500> 182 38<-100 -50> 258 75<400 500> 258 38<-100 -50> 295 75<300 400 500 600> 332 38<750 800> 370 38<400 500 650 700> 408 38<50 100 250 300 350 400 500 600 750 800>
LayerCount: 2
Back
Fore
SplineSet
182 500 m 29x225041
 220 500 l 29
 220 400 l 29x225010
 182 400 l 29
 182 300 l 29x225040
 220 300 l 29
 220 200 l 29x225008
 145 200 l 29
 145 100 l 29
 332 100 l 29
 332 200 l 29
 258 200 l 29
 258 300 l 29x22501280
 295 300 l 29
 295 400 l 29x225001
 258 400 l 29
 258 500 l 29x225004
 295 500 l 29
 295 600 l 29
 182 600 l 29
 182 500 l 29x225041
32 -100 m 29x800110a0
 32 0 l 29
 108 0 l 29
 108 100 l 29x880120
 70 100 l 29
 70 200 l 29x880080
 108 200 l 29x880020
 108 400 l 29
 145 400 l 29x884090
 145 500 l 29x002090
 108 500 l 29x004090
 108 600 l 29x002040
 145 600 l 29
 145 700 l 29x002810
 182 700 l 29x002808
 182 800 l 29
 295 800 l 29x001009
 295 700 l 29x000809
 332 700 l 29
 332 600 l 29x00280080
 370 600 l 29x002801
 370 500 l 29x004001
 332 500 l 29x002004
 332 400 l 29x004004
 370 400 l 29x004001
 370 200 l 29x08400040
 408 200 l 29x08400020
 408 100 l 29x10000020
 370 100 l 29
 370 0 l 29x88000040
 445 0 l 29
 445 -100 l 29x88000020
 332 -100 l 29
 332 0 l 29
 145 0 l 29
 145 -100 l 29x600010a0
 32 -100 l 29x800110a0
70 500 m 29x0041
 108 500 l 29
 108 400 l 29
 70 400 l 29x004080
 70 500 l 29x0041
32 600 m 29x0021
 70 600 l 29x0021
 70 500 l 29x0041
 32 500 l 29
 32 600 l 29x0021
-5 50 m 29x1002
 -5 100 l 5
 32 100 l 29
 32 50 l 5
 -5 50 l 29x1002
-5 150 m 29x0402
 -5 200 l 5
 32 200 l 29
 32 150 l 5
 -5 150 l 29x0402
32 250 m 29x0101
 32 300 l 5
 70 300 l 29
 70 250 l 5
 32 250 l 29x0101
-5 350 m 29x0082
 -5 400 l 5
 32 400 l 29
 32 350 l 5
 -5 350 l 29x0082
182 -100 m 29x400008
 182 -50 l 29
 220 -50 l 29
 220 -100 l 29
 182 -100 l 29x400008
258 -100 m 29x400002
 258 -50 l 29
 295 -50 l 29
 295 -100 l 29
 258 -100 l 29x400002
408 50 m 29x10000020
 408 100 l 29
 445 100 l 29
 445 50 l 29
 408 50 l 29x10000020
408 250 m 29x01000020
 408 300 l 29
 445 300 l 29
 445 250 l 29
 408 250 l 29x01000020
408 350 m 29x00800020
 408 400 l 29x00800040
 445 400 l 29
 445 350 l 29
 408 350 l 29x00800020
370 400 m 29x004001
 370 500 l 29x004001
 408 500 l 29x00400040
 408 400 l 29x00800040
 370 400 l 29x004001
408 500 m 29x00400040
 408 600 l 29
 445 600 l 29
 445 500 l 29x00200020
 408 500 l 29x00400040
370 650 m 29x00080040
 370 700 l 29
 408 700 l 29
 408 650 l 29
 370 650 l 29x00080040
408 750 m 29x00040020
 408 800 l 29
 445 800 l 29
 445 750 l 29
 408 750 l 29x00040020
332 750 m 29x00040080
 332 800 l 29
 370 800 l 29
 370 750 l 29
 332 750 l 29x00040080
108 750 m 29x000420
 108 800 l 5
 145 800 l 29
 145 750 l 5
 108 750 l 29x000420
-5 750 m 29x0006
 -5 800 l 5
 32 800 l 29
 32 750 l 5
 -5 750 l 29x0006
32 650 m 29x0009
 32 700 l 5
 70 700 l 29
 70 650 l 5
 32 650 l 29x0009
EndSplineSet
EndChar

StartChar: uni26C4
Encoding: 9924 9924 221
Width: 440
Flags: HW
HStem: -100 100<14 89 351 426> 100 100<51 89 351 389> 200 100<164 201 239 276> 400 100<51 89 164 201 239 276 351 389> 500 100<14 51 89 126 314 351 389 426> 600 200<164 276>
VStem: 14 38<500 600> 51 75<100 200> 51 38<400 500> 89 75<300 400 500 600> 126 75<400 500> 164 112<700 800> 239 75<400 500> 276 75<300 400 500 600> 314 75<100 200> 351 38<400 500> 389 38<500 600>
LayerCount: 2
Back
Fore
SplineSet
164 500 m 29xb444
 201 500 l 29
 201 400 l 29xb420
 164 400 l 29
 164 300 l 29xb440
 201 300 l 29
 201 200 l 29xb420
 126 200 l 29xb5
 126 100 l 29
 314 100 l 29xc102
 314 200 l 29xa102
 239 200 l 29
 239 300 l 29xa008
 276 300 l 29
 276 400 l 29xb004
 239 400 l 29
 239 500 l 29xb008
 276 500 l 29
 276 600 l 29
 164 600 l 29
 164 500 l 29xb444
14 -100 m 29xd222
 14 0 l 29
 89 0 l 29
 89 100 l 29xd240
 51 100 l 29
 51 200 l 29xd1
 89 200 l 29xd040
 89 400 l 29
 126 400 l 29xd0a0
 126 500 l 29x88a0
 89 500 l 29x90a0
 89 600 l 29x8840
 126 600 l 29
 126 700 l 29x8820
 164 700 l 29
 164 800 l 29
 276 800 l 29x8410
 276 700 l 29
 314 700 l 29
 314 600 l 29x8812
 351 600 l 29x8804
 351 500 l 29x9004
 314 500 l 29x8808
 314 400 l 29x9008
 351 400 l 29x9004
 351 200 l 29xd001
 389 200 l 5
 389 100 l 29xd002
 351 100 l 5
 351 0 l 29xd001
 426 0 l 29
 426 -100 l 29xd00080
 314 -100 l 29
 314 0 l 29
 126 0 l 29
 126 -100 l 29
 14 -100 l 29xd222
51 500 m 29
 89 500 l 29
 89 400 l 29
 51 400 l 29x9080
 51 500 l 29
14 600 m 29x8a
 51 600 l 29x8a
 51 500 l 29x92
 14 500 l 29
 14 600 l 29x8a
351 400 m 29x9004
 351 500 l 29x9004
 389 500 l 29
 389 400 l 29x9001
 351 400 l 29x9004
389 500 m 29x9001
 389 600 l 29
 426 600 l 29
 426 500 l 29x880080
 389 500 l 29x9001
EndSplineSet
EndChar

StartChar: uni2614
Encoding: 9748 9748 222
Width: 440
Flags: HW
HStem: -100 100<108 182> 0 100<32 70 370 408> 150 100<-5 32 408 445> 250 100<70 108 332 370> 400 200<70 145 295 370> 400 100<-5 70 370 445> 600 100<-5 32 408 445> 700 100<70 108 332 370>
VStem: -5 38<150 250 600 700> 32 38<0 100> 70 38<250 350 700 800> 108 112<-100 0> 182 75<0 400> 332 38<250 350 700 800> 370 38<0 100> 408 38<150 250 600 700>
LayerCount: 2
Back
Fore
SplineSet
108 -100 m 29x8010
 108 0 l 25x8010
 182 0 l 25
 182 400 l 25
 -5 400 l 25
 -5 500 l 25
 70 500 l 25x84a8
 70 600 l 25
 145 600 l 25
 145 700 l 25
 295 700 l 25
 295 600 l 25
 370 600 l 25x09aa
 370 500 l 25x04aa
 445 500 l 25
 445 400 l 25
 258 400 l 25
 258 0 l 25x4409
 220 0 l 25x4410
 220 -100 l 25
 108 -100 l 29x8010
32 0 m 1x4040
 32 100 l 1
 70 100 l 1
 70 0 l 1
 32 0 l 1x4040
370 0 m 1x4002
 370 100 l 1
 408 100 l 1
 408 0 l 1
 370 0 l 1x4002
-5 150 m 1x2080
 -5 250 l 1
 32 250 l 1
 32 150 l 1
 -5 150 l 1x2080
70 250 m 1x1020
 70 350 l 1
 108 350 l 1
 108 250 l 1
 70 250 l 1x1020
408 150 m 1x2001
 408 250 l 1
 445 250 l 1
 445 150 l 1
 408 150 l 1x2001
332 250 m 1x1004
 332 350 l 1
 370 350 l 1
 370 250 l 1
 332 250 l 1x1004
408 600 m 1x0201
 408 700 l 1
 445 700 l 1
 445 600 l 1
 408 600 l 1x0201
-5 600 m 1x0280
 -5 700 l 1
 32 700 l 1
 32 600 l 1
 -5 600 l 1x0280
332 700 m 1x0104
 332 800 l 1
 370 800 l 1
 370 700 l 1
 332 700 l 1x0104
70 700 m 1x0120
 70 800 l 1
 108 800 l 1
 108 700 l 1
 70 700 l 1x0120
EndSplineSet
EndChar

StartChar: uni2669
Encoding: 9833 9833 223
Width: 440
Flags: HW
HStem: 0 300<126 276> 100 100<89 126>
VStem: 276 75<300 800>
LayerCount: 2
Back
Fore
SplineSet
126 100 m 29x60
 89 100 l 25
 89 200 l 25
 126 200 l 25x60
 126 300 l 25
 276 300 l 25xa0
 276 800 l 25
 351 800 l 25
 351 100 l 25
 314 100 l 25x60
 314 0 l 25
 126 0 l 25xa0
 126 100 l 29x60
EndSplineSet
EndChar

StartChar: uni2757
Encoding: 10071 10071 225
Width: 440
Flags: HW
HStem: 0 100<182 258> 680 20G<182 258>
VStem: 182 75<0 100 200 700>
LayerCount: 2
Back
Fore
SplineSet
182 700 m 29
 258 700 l 25
 258 200 l 25
 182 200 l 25
 182 700 l 29
258 0 m 25
 182 0 l 1
 182 100 l 25
 258 100 l 1
 258 0 l 25
EndSplineSet
EndChar

StartChar: uni2753
Encoding: 10067 10067 226
Width: 440
Flags: HW
HStem: 0 100<201 276> 200 100<201 276> 300 100<276 314> 600 100<126 314>
VStem: 51 75<400 600> 201 75<0 100 200 300> 276 75<300 400> 314 75<400 600>
LayerCount: 2
Back
Fore
SplineSet
201 300 m 1xdc
 276 300 l 1
 276 200 l 1
 201 200 l 1
 201 300 l 1xdc
276 0 m 25
 201 0 l 1
 201 100 l 25
 276 100 l 1
 276 0 l 25
51 600 m 25
 89 600 l 25
 89 700 l 25
 351 700 l 25
 351 600 l 25xba
 389 600 l 25
 389 400 l 25xb9
 350 400 l 25
 351 300 l 25xba
 276 300 l 25xdc
 276 400 l 25xba
 314 400 l 25
 314 600 l 25
 126 600 l 25
 126 400 l 25
 51 400 l 25xb9
 51 600 l 25
EndSplineSet
EndChar

StartChar: uni2795
Encoding: 10133 10133 227
Width: 440
Flags: HW
HStem: 250 100<70 182 258 370>
VStem: 182 75<50 250 350 550>
LayerCount: 2
Back
Fore
SplineSet
182 550 m 29
 258 550 l 25
 258 350 l 25
 370 350 l 25
 370 250 l 25
 258 250 l 25
 258 50 l 25
 182 50 l 25
 182 250 l 25
 70 250 l 25
 70 350 l 25
 182 350 l 25
 182 550 l 29
EndSplineSet
EndChar

StartChar: uni2796
Encoding: 10134 10134 228
Width: 440
Flags: HW
HStem: 250 100<70 370>
LayerCount: 2
Back
Fore
SplineSet
70 250 m 29
 70 350 l 25
 370 350 l 25
 370 250 l 25
 70 250 l 29
EndSplineSet
EndChar

StartChar: uni231A
Encoding: 8986 8986 229
Width: 440
Flags: HW
HStem: -100 200<108 332> 0 100<70 108 332 370> 300 100<258 332> 480 20G<182 258> 600 200<108 332> 600 100<70 108 332 370>
VStem: -42 75<200 500> -5 75<100 200 500 600> 108 225<-100 0 700 800> 182 75<400 500> 370 75<100 200 500 600> 408 75<200 500>
LayerCount: 2
Back
Fore
SplineSet
182 500 m 29x3040
 258 500 l 25
 258 400 l 25x3040
 332 400 l 25
 332 300 l 25x3080
 182 300 l 25
 182 500 l 29x3040
70 600 m 25x7520
 70 500 l 25x7520
 32 500 l 25
 32 200 l 25x76
 70 200 l 25
 70 100 l 25
 370 100 l 25
 370 200 l 25x7520
 408 200 l 25
 408 500 l 25x7410
 370 500 l 25
 370 600 l 25
 70 600 l 25x7520
108 700 m 25x7680
 108 800 l 25
 332 800 l 25x3a80
 332 700 l 25
 408 700 l 25
 408 600 l 25x3690
 445 600 l 25
 445 500 l 25x3420
 482 500 l 25
 482 200 l 25x3410
 445 200 l 25
 445 100 l 25x7420
 408 100 l 25
 408 0 l 25
 332 0 l 25x7490
 332 -100 l 25
 108 -100 l 25xb090
 108 0 l 25
 32 0 l 25
 32 100 l 25x7290
 -5 100 l 25
 -5 200 l 25x71
 -42 200 l 25
 -42 500 l 25x72
 -5 500 l 25
 -5 600 l 25x75
 32 600 l 25
 32 700 l 25
 108 700 l 25x7680
EndSplineSet
EndChar

StartChar: uni2797
Encoding: 10135 10135 230
Width: 440
Flags: HW
HStem: 100 100<182 258> 300 100<70 370> 500 100<182 258>
VStem: 182 75<100 200 500 600>
CounterMasks: 1 e0
LayerCount: 2
Back
Fore
SplineSet
182 100 m 29
 182 200 l 25
 258 200 l 25
 258 100 l 25
 182 100 l 29
70 300 m 25
 70 400 l 25
 370 400 l 25
 370 300 l 25
 70 300 l 25
182 500 m 25
 182 600 l 25
 258 600 l 25
 258 500 l 25
 182 500 l 25
EndSplineSet
EndChar

StartChar: uni25B6
Encoding: 9654 9654 231
Width: 440
Flags: HMW
LayerCount: 2
Back
Fore
SplineSet
51 0 m 29
 51 700 l 25
 164 700 l 25
 164 600 l 25
 239 600 l 25
 239 500 l 25
 314 500 l 25
 314 400 l 25
 389 400 l 25
 389 300 l 25
 314 300 l 25
 314 200 l 25
 239 200 l 25
 239 100 l 25
 164 100 l 25
 164 0 l 25
 51 0 l 29
EndSplineSet
EndChar

StartChar: uni25C0
Encoding: 9664 9664 232
Width: 440
Flags: HMW
LayerCount: 2
Back
Fore
SplineSet
276 0 m 29
 276 100 l 25
 201 100 l 25
 201 200 l 25
 126 200 l 25
 126 300 l 25
 51 300 l 25
 51 400 l 25
 126 400 l 25
 126 500 l 25
 201 500 l 25
 201 600 l 25
 276 600 l 25
 276 700 l 25
 389 700 l 25
 389 0 l 25
 276 0 l 29
EndSplineSet
EndChar

StartChar: H18543
Encoding: 9642 9642 233
Width: 440
Flags: HMW
LayerCount: 2
Back
Fore
SplineSet
126 100 m 29
 126 400 l 25
 314 400 l 25
 314 100 l 25
 126 100 l 29
EndSplineSet
EndChar

StartChar: triagup
Encoding: 9650 9650 234
Width: 440
Flags: HMW
LayerCount: 2
Back
Fore
SplineSet
32 100 m 29
 32 200 l 29
 70 200 l 29
 70 300 l 29
 108 300 l 29
 108 400 l 29
 145 400 l 29
 145 500 l 29
 182 500 l 29
 182 600 l 29
 258 600 l 29
 258 500 l 29
 295 500 l 29
 295 400 l 29
 332 400 l 29
 332 300 l 29
 370 300 l 29
 370 200 l 29
 408 200 l 29
 408 100 l 29
 32 100 l 29
EndSplineSet
EndChar

StartChar: triagdn
Encoding: 9660 9660 235
Width: 440
Flags: HMW
LayerCount: 2
Back
Fore
SplineSet
32 500 m 29
 32 600 l 25
 408 600 l 25
 408 500 l 25
 370 500 l 25
 370 400 l 25
 332 400 l 25
 332 300 l 25
 295 300 l 25
 295 200 l 25
 258 200 l 25
 258 100 l 25
 182 100 l 25
 182 200 l 25
 145 200 l 25
 145 300 l 25
 108 300 l 25
 108 400 l 25
 70 400 l 25
 70 500 l 25
 32 500 l 29
EndSplineSet
EndChar

StartChar: H18551
Encoding: 9643 9643 236
Width: 440
Flags: HW
HStem: 100 100<164 276> 300 100<164 276>
VStem: 126 38<200 300> 276 38<200 300>
LayerCount: 2
Back
Fore
SplineSet
164 200 m 29
 276 200 l 25
 276 300 l 25
 164 300 l 25
 164 200 l 29
126 100 m 25
 126 400 l 25
 314 400 l 25
 314 100 l 25
 126 100 l 25
EndSplineSet
EndChar

StartChar: uni231B
Encoding: 8987 8987 237
Width: 440
Flags: HW
HStem: -100 300<14 51 164 276 389 426> -100 200<89 164 276 351> -100 100<-24 14 426 464> 200 100<89 126 314 351> 400 100<89 126 314 351> 600 200<89 351> 700 100<-24 14 426 464>
VStem: 14 75<100 200 500 600> 51 112<200 300> 276 112<200 300> 351 75<100 200 500 600>
LayerCount: 2
Back
Fore
SplineSet
276 100 m 29x4840
 351 100 l 25
 351 200 l 25x5820
 276 200 l 25x8840
 276 100 l 29x4840
164 300 m 25x18c0
 164 200 l 25
 276 200 l 25x88c0
 276 300 l 25
 164 300 l 25x18c0
89 100 m 25x59
 164 100 l 25x5880
 164 200 l 25x8880
 89 200 l 25
 89 100 l 25x59
201 400 m 25
 239 400 l 25
 239 500 l 25
 351 500 l 25
 351 600 l 25
 89 600 l 25
 89 500 l 25x0d20
 201 500 l 25
 201 400 l 25
-24 -100 m 25x2820
 -24 0 l 25
 14 0 l 25x2920
 14 200 l 25x8920
 51 200 l 25x8880
 51 300 l 25
 126 300 l 25
 126 400 l 25
 51 400 l 25
 51 500 l 25x1880
 14 500 l 25
 14 700 l 25
 -24 700 l 25
 -24 800 l 25
 464 800 l 25
 464 700 l 25
 426 700 l 25
 426 500 l 25x1b20
 389 500 l 25
 389 400 l 25
 314 400 l 25
 314 300 l 25
 389 300 l 25x1a40
 389 200 l 25x8840
 426 200 l 25x8820
 426 0 l 25
 464 0 l 25
 464 -100 l 25
 -24 -100 l 25x2820
EndSplineSet
EndChar

StartChar: uni23F3
Encoding: 9203 9203 238
Width: 440
Flags: HW
HStem: -100 200<89 351> -100 100<-24 14 426 464> 200 100<89 126 314 351> 400 100<89 126 314 351> 500 300<14 51 164 276 389 426> 600 200<89 164 276 351> 700 100<-24 14 426 464>
VStem: 14 75<100 200 500 600> 51 112<400 500> 276 112<400 500> 351 75<100 200 500 600>
LayerCount: 2
Back
Fore
SplineSet
89 100 m 29xa120
 351 100 l 25
 351 200 l 25
 239 200 l 25
 239 300 l 25
 201 300 l 25
 201 200 l 25
 89 200 l 25
 89 100 l 29xa120
276 500 m 25x2840
 351 500 l 25
 351 600 l 25x3420
 276 600 l 25x3440
 276 500 l 25x2840
164 400 m 25x30c0
 276 400 l 25x30c0
 276 500 l 25
 164 500 l 25x28c0
 164 400 l 25x30c0
89 500 m 25x35
 164 500 l 25x2880
 164 600 l 25x2480
 89 600 l 25
 89 500 l 25x35
-24 -100 m 25x7020
 -24 0 l 25
 14 0 l 25
 14 200 l 25x7120
 51 200 l 25
 51 300 l 25
 126 300 l 25
 126 400 l 25
 51 400 l 25x7080
 51 500 l 25x2880
 14 500 l 25x29
 14 700 l 25
 -24 700 l 25
 -24 800 l 25
 464 800 l 25
 464 700 l 25
 426 700 l 25x2320
 426 500 l 25x2920
 389 500 l 25x2840
 389 400 l 25
 314 400 l 25
 314 300 l 25
 389 300 l 25
 389 200 l 25x3040
 426 200 l 25
 426 0 l 25
 464 0 l 25
 464 -100 l 25
 -24 -100 l 25x7020
EndSplineSet
EndChar

StartChar: uni26D4
Encoding: 9940 9940 239
Width: 440
Flags: HW
HStem: -100 400<70 370> 400 400<70 370>
VStem: -80 112<300 400> 408 112<300 400>
LayerCount: 2
Back
Fore
SplineSet
32 300 m 29
 408 300 l 25
 408 400 l 25
 32 400 l 25
 32 300 l 29
70 -100 m 25
 70 0 l 25
 -5 0 l 25
 -5 100 l 25
 -42 100 l 25
 -42 200 l 25
 -80 200 l 25
 -80 500 l 25
 -42 500 l 25
 -42 600 l 25
 -5 600 l 25
 -5 700 l 25
 70 700 l 25
 70 800 l 25
 370 800 l 25
 370 700 l 25
 445 700 l 25
 445 600 l 25
 482 600 l 25
 482 500 l 25
 520 500 l 25
 520 200 l 25
 482 200 l 25
 482 100 l 25
 445 100 l 25
 445 0 l 25
 370 0 l 25
 370 -100 l 25
 70 -100 l 25
EndSplineSet
EndChar

StartChar: uni26C5
Encoding: 9925 9925 240
Width: 440
Flags: HW
HStem: 0 300<70 108 258 370> 100 100<-5 32 408 445> 500 100<70 145>
VStem: -5 75<300 500> 145 75<400 500>
LayerCount: 2
Back
Fore
SplineSet
108 300 m 29xb8
 108 400 l 25
 145 400 l 25
 145 500 l 25
 70 500 l 25
 70 300 l 25
 108 300 l 29xb8
-5 300 m 25
 -5 500 l 25
 32 500 l 25
 32 600 l 25
 182 600 l 25
 182 500 l 25
 220 500 l 25
 220 400 l 25
 258 400 l 25
 258 300 l 25
 370 300 l 25xb8
 370 200 l 25
 445 200 l 25
 445 100 l 25
 408 100 l 25x78
 408 0 l 25
 70 0 l 25xb8
 70 100 l 25
 -5 100 l 25
 -5 200 l 25
 32 200 l 25x78
 32 300 l 25
 -5 300 l 25
EndSplineSet
EndChar

StartChar: musicalnote
Encoding: 9834 9834 241
Width: 440
Flags: HW
HStem: 0 300<51 201> 100 100<14 51> 700 100<276 314>
VStem: 201 75<300 700> 314 75<600 700> 351 75<400 600>
LayerCount: 2
Back
Fore
SplineSet
51 0 m 29xb8
 51 100 l 25
 14 100 l 25
 14 200 l 25
 51 200 l 25x78
 51 300 l 25
 201 300 l 25
 201 800 l 25
 351 800 l 25
 351 700 l 25xb4
 389 700 l 25
 389 600 l 25xb8
 426 600 l 25
 426 400 l 25
 351 400 l 25
 351 600 l 25xb4
 314 600 l 25
 314 700 l 25
 276 700 l 25
 276 100 l 25
 239 100 l 25x78
 239 0 l 25
 51 0 l 29xb8
EndSplineSet
EndChar

StartChar: musicalnotedbl
Encoding: 9835 9835 242
Width: 440
Flags: HW
HStem: 0 300<-24 89 314 426> 100 100<-61 -24 276 314> 700 100<164 426>
VStem: 89 75<300 700> 426 75<300 700>
LayerCount: 2
Back
Fore
SplineSet
-61 100 m 29x78
 -61 200 l 5
 -24 200 l 29x78
 -24 300 l 29
 89 300 l 29xb8
 89 800 l 29
 501 800 l 29
 501 100 l 29
 464 100 l 29x78
 464 0 l 29
 314 0 l 29xb8
 314 100 l 29
 276 100 l 29
 276 200 l 29
 314 200 l 29x78
 314 300 l 29
 426 300 l 29xb8
 426 700 l 29
 164 700 l 29
 164 100 l 29
 126 100 l 29x78
 126 0 l 29
 -24 0 l 29xb8
 -24 100 l 5
 -61 100 l 29x78
EndSplineSet
EndChar

StartChar: uni266C
Encoding: 9836 9836 243
Width: 440
Flags: HW
HStem: 0 300<-24 89 314 426> 100 100<-61 -24 276 314> 500 100<164 426> 700 100<164 426>
VStem: 89 75<300 500 600 700> 426 75<300 500 600 700>
LayerCount: 2
Back
Fore
SplineSet
164 600 m 1x3c
 426 600 l 29
 426 700 l 1
 164 700 l 25
 164 600 l 1x3c
-61 100 m 25x7c
 -61 200 l 1
 -24 200 l 25x7c
 -24 300 l 25
 89 300 l 25xbc
 89 800 l 25
 501 800 l 25
 501 100 l 25
 464 100 l 25x7c
 464 0 l 25
 314 0 l 25xbc
 314 100 l 25
 276 100 l 25
 276 200 l 25
 314 200 l 25x7c
 314 300 l 25
 426 300 l 1xbc
 426 500 l 1
 164 500 l 1
 164 100 l 1
 126 100 l 25x7c
 126 0 l 25
 -24 0 l 25xbc
 -24 100 l 1
 -61 100 l 25x7c
EndSplineSet
EndChar

StartChar: Idieresis
Encoding: 207 207 244
Width: 440
Flags: HW
HStem: 0 100<70 182 258 370> 600 100<70 182 258 370>
VStem: 182 75<100 600>
LayerCount: 2
Back
Fore
SplineSet
70 700 m 29
 370 700 l 25
 370 600 l 25
 258 600 l 25
 258 100 l 25
 370 100 l 25
 370 0 l 25
 70 0 l 25
 70 100 l 25
 182 100 l 25
 182 600 l 25
 70 600 l 25
 70 700 l 29
EndSplineSet
EndChar

StartChar: idieresis
Encoding: 239 239 245
Width: 440
Flags: HW
HStem: 0 100<108 182 257 332> 400 100<145 182> 600 100<145 258>
VStem: 145 112<400 500 600 700> 182 75<100 400>
LayerCount: 2
Back
Fore
SplineSet
145 500 m 1xf0
 258 500 l 25xf0
 257 100 l 25
 332 100 l 25
 332 0 l 25
 108 0 l 25
 108 100 l 25
 182 100 l 25
 182 400 l 1xe8
 145 400 l 29
 145 500 l 1xf0
145 700 m 25
 258 700 l 25
 258 600 l 25
 145 600 l 25
 145 700 l 25
EndSplineSet
EndChar

StartChar: onequarter
Encoding: 188 188 246
Width: 440
Flags: HW
HStem: -200 21G<332 408> -100 100<258 332> 200 100<295 332> 500 100<32 70> 680 20G<70 145>
VStem: 32 112<500 600> 70 75<200 500 600 700> 182 75<0 100> 220 75<100 200> 258 75<200 300> 332 75<-200 -100 0 100>
LayerCount: 2
Back
Fore
SplineSet
258 200 m 29xf840
 258 300 l 29
 332 300 l 29
 332 200 l 29xf840
 295 200 l 29
 295 100 l 29xf880
 258 100 l 29
 258 0 l 29
 332 0 l 29
 332 100 l 29
 408 100 l 29
 408 -200 l 29
 332 -200 l 29
 332 -100 l 29
 182 -100 l 29
 182 100 l 29xf920
 220 100 l 29
 220 200 l 29xf880
 258 200 l 29xf840
70 600 m 25xfa
 70 700 l 25
 145 700 l 25
 145 200 l 25
 70 200 l 25
 70 500 l 25xfa
 32 500 l 25
 32 600 l 25xfc
 70 600 l 25xfa
EndSplineSet
EndChar

StartChar: onehalf
Encoding: 189 189 247
Width: 440
Flags: HW
HStem: -200 100<182 220 295 408> 0 100<295 332> 100 100<182 220 370 408> 200 100<258 332> 500 100<32 70> 680 20G<70 145>
VStem: 32 112<500 600> 70 75<200 500 600 700> 182 75<100 200> 220 75<-100 0> 295 75<0 100> 332 75<100 200>
LayerCount: 2
Back
Fore
SplineSet
182 100 m 29xac90
 182 200 l 25xac90
 220 200 l 25xac40
 220 300 l 25x9c40
 370 300 l 25x9c20
 370 200 l 25xac20
 408 200 l 25
 408 100 l 25xac10
 370 100 l 25xac20
 370 0 l 25xcc20
 295 0 l 25
 295 -100 l 25xcc40
 408 -100 l 25
 408 -200 l 25
 182 -200 l 25
 182 -100 l 25xcc90
 220 -100 l 25
 220 0 l 25
 295 0 l 25xcc40
 295 100 l 25xcc20
 332 100 l 25
 332 200 l 25
 258 200 l 25xdc90
 258 100 l 25
 182 100 l 29xac90
70 600 m 25x9d
 70 700 l 25
 145 700 l 25
 145 200 l 25
 70 200 l 25
 70 500 l 25x9d
 32 500 l 25
 32 600 l 25x9e
 70 600 l 25x9d
EndSplineSet
EndChar

StartChar: threequarters
Encoding: 190 190 248
Width: 440
Flags: HW
HStem: -200 21G<351 426> -100 100<276 351> 200 100<14 126 314 351> 400 100<51 126> 600 100<14 126>
VStem: 51 112<400 500> 126 75<300 400 500 600> 201 75<0 100> 239 75<100 200> 276 75<200 300> 351 75<-200 -100 0 100>
LayerCount: 2
Back
Fore
SplineSet
276 200 m 25xf840
 276 300 l 25
 351 300 l 25
 351 200 l 25xf840
 314 200 l 25
 314 100 l 25xf880
 276 100 l 25
 276 0 l 25
 351 0 l 25
 351 100 l 25
 426 100 l 25
 426 -200 l 25
 351 -200 l 25
 351 -100 l 25
 201 -100 l 25
 201 100 l 25xf920
 239 100 l 25
 239 200 l 25xf880
 276 200 l 25xf840
14 600 m 1
 14 700 l 1
 201 700 l 1xf9
 201 500 l 25xfa
 164 500 l 25
 164 400 l 25xfc
 201 400 l 25
 201 300 l 25xfa
 164 300 l 25
 164 200 l 1xfc
 14 200 l 1
 14 300 l 1
 126 300 l 1
 126 400 l 25xfa
 51 400 l 25
 51 500 l 25xfc
 126 500 l 25
 126 600 l 1xfa
 14 600 l 1
EndSplineSet
EndChar

StartChar: udieresis
Encoding: 252 252 249
Width: 440
Flags: HW
HStem: 0 100<126 276> 100 100<276 314> 480 20G<51 126 314 389>
VStem: 51 75<100 500> 276 112<100 200> 314 75<0 100 200 500>
LayerCount: 2
Back
Fore
SplineSet
51 500 m 29x78
 126 500 l 25
 126 100 l 25
 276 100 l 25xb8
 276 200 l 25x78
 314 200 l 25x74
 314 500 l 25
 389 500 l 25
 389 0 l 25
 314 0 l 25xb4
 314 100 l 25x74
 276 100 l 25
 276 0 l 25
 89 0 l 25xb8
 89 100 l 25
 51 100 l 25
 51 500 l 29x78
EndSplineSet
EndChar

StartChar: oslash
Encoding: 248 248 250
Width: 440
Flags: HW
HStem: 0 100<126 314> 400 100<126 314>
VStem: 51 75<100 400> 314 75<100 400>
LayerCount: 2
Back
Fore
SplineSet
126 400 m 29
 126 100 l 25
 314 100 l 25
 314 400 l 25
 126 400 l 29
89 500 m 25
 351 500 l 25
 351 400 l 25
 389 400 l 25
 389 100 l 25
 351 100 l 25
 351 0 l 25
 89 0 l 25
 89 100 l 25
 51 100 l 25
 51 400 l 25
 89 400 l 25
 89 500 l 25
EndSplineSet
EndChar

StartChar: copyright
Encoding: 169 169 251
Width: 440
Flags: HW
HStem: 0 100<108 332> 200 100<182 295> 300 100<108 145> 400 100<182 295> 600 100<108 332>
VStem: -5 75<200 500> 32 75<100 200 500 600> 108 75<300 400> 145 150<200 300 400 500> 332 75<100 200 500 600> 370 75<200 500>
LayerCount: 2
Back
Fore
SplineSet
145 400 m 29xa880
 145 500 l 1
 295 500 l 25
 295 400 l 25x9880
 182 400 l 25
 182 300 l 25xd9
 295 300 l 25
 295 200 l 25
 145 200 l 25xd880
 145 300 l 25xa880
 108 300 l 25
 108 400 l 1xa9
 145 400 l 29xa880
108 500 m 25xda40
 70 500 l 25
 70 200 l 25xdc
 108 200 l 25
 108 100 l 25
 332 100 l 25
 332 200 l 25xda40
 370 200 l 25
 370 500 l 25xd820
 332 500 l 25
 332 600 l 25
 108 600 l 25
 108 500 l 25xda40
70 600 m 25
 70 700 l 25
 370 700 l 25
 370 600 l 25xdc20
 408 600 l 25
 408 500 l 25xd840
 445 500 l 25
 445 200 l 25xd820
 408 200 l 25
 408 100 l 25xd840
 370 100 l 25
 370 0 l 25
 70 0 l 25
 70 100 l 25xdc20
 32 100 l 25
 32 200 l 25xda
 -5 200 l 25
 -5 500 l 25xdc
 32 500 l 25
 32 600 l 25xda
 70 600 l 25
EndSplineSet
EndChar

StartChar: registered
Encoding: 174 174 252
Width: 440
Flags: HW
HStem: 0 100<108 332> 200 100<258 332> 400 100<258 295> 600 100<108 332>
VStem: -5 75<200 500> 32 75<100 200 500 600> 145 112<300 400> 145 75<200 300> 258 75<200 300> 332 75<100 200 500 600> 370 75<200 500>
LayerCount: 2
Back
Fore
SplineSet
145 200 m 29xf1
 145 500 l 25xf1
 295 500 l 25
 295 400 l 25
 258 400 l 25
 258 300 l 25xf2
 332 300 l 25
 332 200 l 25
 258 200 l 25xf080
 258 300 l 25xf2
 220 300 l 25
 220 200 l 25
 145 200 l 29xf1
108 500 m 25xf440
 70 500 l 25
 70 200 l 25xf8
 108 200 l 25
 108 100 l 25
 332 100 l 25xf440
 332 200 l 25
 370 200 l 25
 370 500 l 25xf0a0
 332 500 l 25
 332 600 l 25
 108 600 l 25
 108 500 l 25xf440
70 600 m 25
 70 700 l 25
 370 700 l 25
 370 600 l 25xf820
 408 600 l 25
 408 500 l 25xf040
 445 500 l 25
 445 200 l 25xf020
 408 200 l 25
 408 100 l 25xf040
 370 100 l 25
 370 0 l 25
 70 0 l 25
 70 100 l 25xf820
 32 100 l 25
 32 200 l 25xf4
 -5 200 l 25
 -5 500 l 25xf8
 32 500 l 25
 32 600 l 25xf4
 70 600 l 25
EndSplineSet
EndChar

StartChar: uni00B2
Encoding: 178 178 253
Width: 440
Flags: HW
HStem: 300 100<108 145 220 332> 500 100<220 258> 600 100<108 145 295 332> 700 100<182 258>
VStem: 108 75<600 700> 145 75<400 500> 220 75<500 600> 258 75<600 700>
LayerCount: 2
Back
Fore
SplineSet
145 700 m 29xa4
 145 800 l 25x94
 295 800 l 25x92
 295 700 l 25xa2
 332 700 l 25
 332 600 l 25xa1
 295 600 l 25xa2
 295 500 l 25xc2
 220 500 l 25
 220 400 l 25xc4
 332 400 l 25
 332 300 l 25
 108 300 l 25
 108 400 l 25xc9
 145 400 l 25
 145 500 l 25
 220 500 l 25xc4
 220 600 l 25xc2
 258 600 l 25
 258 700 l 25
 182 700 l 25xd9
 182 600 l 25
 108 600 l 25
 108 700 l 25xa9
 145 700 l 29xa4
EndSplineSet
EndChar

StartChar: uni00B3
Encoding: 179 179 254
Width: 440
Flags: HW
HStem: 300 100<108 258> 400 100<295 332> 500 100<182 258> 700 100<108 258>
VStem: 182 112<500 600> 258 75<400 500 600 700>
LayerCount: 2
Back
Fore
SplineSet
108 700 m 29xb4
 108 800 l 29
 332 800 l 29
 332 600 l 29xb4
 295 600 l 29xb8
 295 500 l 29x58
 332 500 l 29
 332 400 l 29x54
 295 400 l 29x58
 295 300 l 29x98
 108 300 l 29
 108 400 l 29
 258 400 l 29
 258 500 l 29xb4
 182 500 l 29
 182 600 l 29xb8
 258 600 l 29
 258 700 l 29
 108 700 l 29xb4
EndSplineSet
EndChar

StartChar: uni00B9
Encoding: 185 185 255
Width: 440
Flags: HW
HStem: 600 100<164 201>
VStem: 164 112<600 700> 201 75<400 600 700 800>
LayerCount: 2
Back
Fore
SplineSet
201 700 m 29xa0
 201 800 l 25
 276 800 l 25
 276 400 l 25
 201 400 l 25
 201 600 l 25xa0
 164 600 l 25
 164 700 l 25xc0
 201 700 l 29xa0
EndSplineSet
EndChar

StartChar: Euro
Encoding: 8364 8364 256
Width: 440
Flags: HW
HStem: 0 100<182 332> 100 100<370 408> 200 100<32 70 182 295> 400 100<32 70 182 295> 500 100<370 408> 600 100<182 332>
VStem: 108 75<100 200 500 600> 145 225<0 100 600 700> 332 75<100 200 500 600>
LayerCount: 2
Back
Fore
SplineSet
182 500 m 29x1680
 295 500 l 25
 295 400 l 25
 145 400 l 25
 145 300 l 25x35
 295 300 l 25
 295 200 l 25
 182 200 l 25
 182 100 l 25
 332 100 l 25
 332 200 l 25xb680
 408 200 l 25
 408 100 l 25x4280
 370 100 l 25x41
 370 0 l 25
 145 0 l 25x81
 145 100 l 25x41
 108 100 l 25x42
 108 200 l 25
 32 200 l 25
 32 300 l 25
 70 300 l 25
 70 400 l 25
 32 400 l 25
 32 500 l 25x32
 108 500 l 25x0a
 108 600 l 25x06
 145 600 l 25
 145 700 l 25
 370 700 l 25x05
 370 600 l 25x09
 408 600 l 25
 408 500 l 25
 332 500 l 25x0880
 332 600 l 25
 182 600 l 25
 182 500 l 29x1680
EndSplineSet
EndChar

StartChar: uni20B4
Encoding: 8372 8372 257
Width: 440
Flags: HW
HStem: 0 100<126 314> 100 100<351 389> 300 100<126 314> 500 100<51 89> 600 100<126 314>
VStem: 51 75<100 300 500 600> 89 262<0 100 300 400 600 700> 314 75<100 200 400 600>
LayerCount: 2
Back
Fore
SplineSet
51 500 m 29x35
 51 600 l 25x35
 89 600 l 25x32
 89 700 l 25
 351 700 l 25
 351 600 l 25x2a
 389 600 l 25
 389 400 l 25x29
 351 400 l 25
 351 300 l 25x2a
 126 300 l 25
 126 100 l 25
 314 100 l 25xad
 314 200 l 25
 389 200 l 25
 389 100 l 25x65
 351 100 l 25x62
 351 0 l 25
 89 0 l 25xa2
 89 100 l 25x62
 51 100 l 25
 51 300 l 25x64
 89 300 l 25
 89 400 l 25x62
 314 400 l 25
 314 600 l 25
 126 600 l 25x6d
 126 500 l 25
 51 500 l 29x35
EndSplineSet
EndChar

StartChar: radical
Encoding: 8730 8730 258
Width: 440
Flags: HW
HStem: 0 100<108 145> 600 100<258 445>
VStem: -5 75<200 400> 32 75<100 200> 145 75<100 300> 182 75<300 600>
LayerCount: 2
Back
Fore
SplineSet
-5 200 m 29xe0
 -5 400 l 25
 70 400 l 25
 70 200 l 25xe0
 108 200 l 25
 108 100 l 25
 145 100 l 25
 145 300 l 25xd8
 182 300 l 25
 182 600 l 25xc4
 220 600 l 25
 220 700 l 25xc8
 445 700 l 25
 445 600 l 25
 258 600 l 25
 258 300 l 25xc4
 220 300 l 25
 220 100 l 25xc8
 182 100 l 25
 182 0 l 25
 70 0 l 25
 70 100 l 25xe4
 32 100 l 25
 32 200 l 25xd0
 -5 200 l 29xe0
EndSplineSet
EndChar

StartChar: infinity
Encoding: 8734 8734 259
Width: 440
Flags: HW
HStem: 100 100<14 126 314 426> 200 300<-61 -24 164 201 239 276 464 501> 500 100<14 126 314 426>
VStem: -61 75<200 500> -24 188<100 200 500 600> 126 75<200 300 400 500> 239 75<200 300 400 500> 276 188<100 200 500 600> 426 75<200 500>
LayerCount: 2
Back
Fore
SplineSet
276 300 m 29xa1
 314 300 l 25
 314 200 l 25
 426 200 l 25
 426 500 l 25
 314 500 l 25
 314 400 l 25xa280
 276 400 l 25
 276 300 l 29xa1
14 200 m 25xb4
 126 200 l 25
 126 300 l 25xb4
 164 300 l 25
 164 400 l 25xa8
 126 400 l 25
 126 500 l 25
 14 500 l 25
 14 200 l 25xb4
-61 200 m 25x50
 -61 500 l 25x50
 -24 500 l 25x48
 -24 600 l 25
 164 600 l 25x28
 164 500 l 25x48
 201 500 l 25
 201 400 l 25
 239 400 l 25
 239 500 l 25x46
 276 500 l 25x41
 276 600 l 25
 464 600 l 25x21
 464 500 l 25x41
 501 500 l 25
 501 200 l 25x4080
 464 200 l 25x41
 464 100 l 25
 276 100 l 25x81
 276 200 l 25x41
 239 200 l 25
 239 300 l 25
 201 300 l 25
 201 200 l 25x46
 164 200 l 25x48
 164 100 l 25
 -24 100 l 25x88
 -24 200 l 25x48
 -61 200 l 25x50
EndSplineSet
EndChar

StartChar: uni2B50
Encoding: 11088 11088 260
Width: 440
Flags: HW
HStem: 0 100<32 70 370 408> 400 200<70 145 295 370> 500 100<-5 70 370 445>
VStem: 32 75<0 100> 70 112<100 200> 145 150<300 400 600 700> 258 112<100 200> 332 75<0 100>
LayerCount: 2
Back
Fore
SplineSet
32 0 m 29xd0
 32 100 l 25xd0
 70 100 l 25
 70 200 l 25xc8
 108 200 l 25
 108 300 l 25
 145 300 l 25
 145 400 l 25xd4
 70 400 l 25xc8
 70 500 l 25
 -5 500 l 25
 -5 600 l 25xa8
 145 600 l 25
 145 700 l 25xc4
 182 700 l 25
 182 800 l 25
 258 800 l 25
 258 700 l 25xca
 295 700 l 25
 295 600 l 25xc4
 445 600 l 25
 445 500 l 25
 370 500 l 25xa2
 370 400 l 25xc2
 295 400 l 25
 295 300 l 25
 332 300 l 25
 332 200 l 25xc5
 370 200 l 25
 370 100 l 25xc2
 408 100 l 25
 408 0 l 25
 332 0 l 25
 332 100 l 25xc1
 258 100 l 25
 258 200 l 25
 182 200 l 25
 182 100 l 25xca
 108 100 l 25
 108 0 l 25
 32 0 l 29xd0
EndSplineSet
EndChar

StartChar: uni274C
Encoding: 10060 10060 261
Width: 440
Flags: HW
HStem: 100 100<32 108 332 408> 200 100<108 145 295 332> 400 100<108 145 295 332> 500 100<32 108 332 408>
VStem: 32 75<100 200 500 600> 108 75<200 300 400 500> 258 75<200 300 400 500> 332 75<100 200 500 600>
LayerCount: 2
Back
Fore
SplineSet
108 400 m 29x64
 108 500 l 25x68
 182 500 l 25x14
 182 400 l 25
 258 400 l 25x26
 258 500 l 25x16
 332 500 l 25x26
 332 600 l 25
 408 600 l 25
 408 500 l 25x11
 332 500 l 25
 332 400 l 25
 295 400 l 25
 295 300 l 25
 332 300 l 25x62
 332 200 l 25x82
 408 200 l 25
 408 100 l 25
 332 100 l 25x81
 332 200 l 25x82
 258 200 l 25
 258 300 l 25
 182 300 l 25
 182 200 l 25x46
 108 200 l 25
 108 100 l 25
 32 100 l 25
 32 200 l 25
 108 200 l 25x88
 108 300 l 25
 145 300 l 25
 145 400 l 25
 108 400 l 29x64
32 500 m 25x18
 32 600 l 25
 108 600 l 25x18
 108 500 l 25x28
 32 500 l 25x18
EndSplineSet
EndChar

StartChar: uni2713
Encoding: 10003 10003 262
Width: 440
Flags: HW
HStem: 0 100<126 164> 200 100<14 51> 600 100<389 426>
VStem: 14 75<200 300> 51 75<100 200> 164 75<100 200> 201 75<200 300> 239 75<300 400> 276 75<400 500> 314 75<500 600> 351 75<600 700>
LayerCount: 2
Back
Fore
SplineSet
14 200 m 29xf0
 14 300 l 1
 89 300 l 25
 89 200 l 25xf0
 126 200 l 25
 126 100 l 25
 164 100 l 25
 164 200 l 25xec
 201 200 l 25
 201 300 l 25xe2
 239 300 l 25
 239 400 l 25xe1
 276 400 l 25
 276 500 l 25xe080
 314 500 l 25
 314 600 l 25xe040
 351 600 l 25
 351 700 l 25
 426 700 l 25
 426 600 l 25xe020
 389 600 l 25
 389 500 l 25xe040
 351 500 l 25
 351 400 l 25xe080
 314 400 l 25
 314 300 l 25xe1
 276 300 l 25
 276 200 l 25xe2
 239 200 l 25
 239 100 l 25xe4
 201 100 l 25
 201 0 l 25
 89 0 l 25
 89 100 l 25xf2
 51 100 l 25
 51 200 l 1xe8
 14 200 l 29xf0
EndSplineSet
EndChar

StartChar: uni2699
Encoding: 9881 9881 263
Width: 440
Flags: HW
HStem: 0 100<32 70 370 408> 300 100<-42 70 370 482> 600 100<32 70 370 408>
VStem: 32 75<0 100 601 700> 70 112<200 300 400 500> 182 75<-100 100 600 800> 258 112<200 300 400 500> 332 75<0 100 600 700>
CounterMasks: 1 e0
LayerCount: 2
Back
Fore
SplineSet
145 300 m 29xea
 182 300 l 25
 182 200 l 25
 258 200 l 25
 258 300 l 25
 295 300 l 25
 295 400 l 25
 258 400 l 25
 258 500 l 25
 182 500 l 25
 182 400 l 25
 145 400 l 25
 145 300 l 29xea
-42 300 m 25
 -42 400 l 25
 70 400 l 25
 70 601 l 25xe8
 32 600 l 25
 32 700 l 25
 108 700 l 25
 108 600 l 25
 182 600 l 25
 182 800 l 25
 258 800 l 25
 258 600 l 25
 332 600 l 25
 332 700 l 25
 408 700 l 25
 408 600 l 25xf5
 370 600 l 25
 370 400 l 25
 482 400 l 25
 482 300 l 25
 370 300 l 25
 370 100 l 25xe2
 408 100 l 25
 408 0 l 25
 332 0 l 25
 332 100 l 25
 258 100 l 25
 258 -100 l 25
 182 -100 l 25
 182 100 l 25
 108 100 l 25
 108 0 l 25
 32 0 l 25
 32 100 l 25xf5
 70 100 l 25
 70 300 l 25
 -42 300 l 25
EndSplineSet
EndChar

StartChar: uni2139
Encoding: 8505 8505 264
Width: 440
Flags: HW
HStem: -100 100<32 408> 500 100<182 258> 700 100<32 408>
VStem: -80 75<100 600> -42 75<0 100 600 700> 182 75<100 400 500 600> 408 75<0 100 600 700> 445 75<100 600>
LayerCount: 2
Back
Fore
SplineSet
182 100 m 25xe4
 182 400 l 25
 258 400 l 25
 258 100 l 25
 182 100 l 25xe4
182 500 m 25
 182 600 l 25
 258 600 l 25
 258 500 l 25
 182 500 l 25
445 600 m 29xe5
 408 600 l 25
 408 700 l 25
 32 700 l 25
 32 600 l 25xee
 -5 600 l 25
 -5 100 l 25xf4
 32 100 l 25
 32 0 l 25
 408 0 l 25
 408 100 l 25xee
 445 100 l 25
 445 600 l 29xe5
-80 100 m 25xf4
 -80 600 l 25xf4
 -42 600 l 25
 -42 700 l 25xec
 -5 700 l 25
 -5 800 l 25
 445 800 l 25
 445 700 l 25xf5
 482 700 l 25
 482 600 l 25xe6
 520 600 l 25
 520 100 l 25xe5
 482 100 l 25
 482 0 l 25xe6
 445 0 l 25
 445 -100 l 25
 -5 -100 l 25
 -5 0 l 25xf5
 -42 0 l 25
 -42 100 l 25xec
 -80 100 l 25xf4
EndSplineSet
EndChar

StartChar: uni2605
Encoding: 9733 9733 265
Width: 440
Flags: HW
HStem: 0 100<32 70 370 408> 400 200<70 145 295 370> 500 100<-5 70 370 445>
VStem: 32 75<0 100> 70 112<100 200> 145 150<300 400 600 700> 258 112<100 200> 332 75<0 100>
LayerCount: 2
Back
Fore
SplineSet
32 0 m 29xd0
 32 100 l 25xd0
 70 100 l 25
 70 200 l 25xc8
 108 200 l 25
 108 300 l 25
 145 300 l 25
 145 400 l 25xd4
 70 400 l 25xc8
 70 500 l 25
 -5 500 l 25
 -5 600 l 25xa8
 145 600 l 25
 145 700 l 25xc4
 182 700 l 25
 182 800 l 25
 258 800 l 25
 258 700 l 25xca
 295 700 l 25
 295 600 l 25xc4
 445 600 l 25
 445 500 l 25
 370 500 l 25xa2
 370 400 l 25xc2
 295 400 l 25
 295 300 l 25
 332 300 l 25
 332 200 l 25xc5
 370 200 l 25
 370 100 l 25xc2
 408 100 l 25
 408 0 l 25
 332 0 l 25
 332 100 l 25xc1
 258 100 l 25
 258 200 l 25
 182 200 l 25
 182 100 l 25xca
 108 100 l 25
 108 0 l 25
 32 0 l 29xd0
EndSplineSet
EndChar

StartChar: uni23CF
Encoding: 9167 9167 266
Width: 440
Flags: HW
HStem: 0 100<32 408> 200 100<32 70 370 408> 680 20G<182 258>
VStem: 182 75<600 700>
LayerCount: 2
Back
Fore
SplineSet
32 0 m 25
 32 100 l 25
 408 100 l 25
 408 0 l 25
 32 0 l 25
32 200 m 29
 32 300 l 29
 70 300 l 29
 70 400 l 29
 108 400 l 29
 108 500 l 29
 145 500 l 29
 145 600 l 29
 182 600 l 29
 182 700 l 29
 258 700 l 29
 258 600 l 29
 295 600 l 29
 295 500 l 29
 332 500 l 29
 332 400 l 29
 370 400 l 29
 370 300 l 29
 408 300 l 29
 408 200 l 29
 32 200 l 29
EndSplineSet
EndChar

StartChar: uni23E9
Encoding: 9193 9193 267
Width: 440
Flags: HW
HStem: 0 21G<-99 -24 239 314> 200 300<51 126 389 464> 300 100<126 201 464 539> 680 20G<-99 -24 239 314>
VStem: -99 225<200 300 400 500> -99 150<100 200 500 600> -99 75<0 100 600 700> 239 225<200 300 400 500> 239 150<100 200 500 600> 239 75<0 100 600 700>
LayerCount: 2
Back
Fore
SplineSet
-99 700 m 29xd2
 -24 700 l 29
 -24 600 l 29xd2
 51 600 l 29
 51 500 l 29xd4
 126 500 l 29xd8
 126 400 l 29
 201 400 l 29
 201 300 l 29
 126 300 l 29xb8
 126 200 l 29xd8
 51 200 l 29
 51 100 l 29xd4
 -24 100 l 29
 -24 0 l 29
 -99 0 l 29
 -99 700 l 29xd2
239 700 m 25xd040
 314 700 l 25
 314 600 l 25xd040
 389 600 l 25
 389 500 l 25xd080
 464 500 l 25xd1
 464 400 l 25
 539 400 l 25
 539 300 l 25
 464 300 l 25xb1
 464 200 l 25xd1
 389 200 l 25
 389 100 l 25xd080
 314 100 l 25
 314 0 l 25
 239 0 l 25
 239 700 l 25xd040
EndSplineSet
EndChar

StartChar: uni23EA
Encoding: 9194 9194 268
Width: 440
Flags: HW
HStem: 0 21G<126 201 464 539> 200 300<-24 51 314 389> 300 100<-99 -24 239 314> 680 20G<126 201 464 539>
VStem: -24 225<200 300 400 500> 51 150<100 200 500 600> 126 75<0 100 600 700> 314 225<200 300 400 500> 389 150<100 200 500 600> 464 75<0 100 600 700>
LayerCount: 2
Back
Fore
SplineSet
539 700 m 25xd040
 539 0 l 25
 464 0 l 25
 464 100 l 25xd040
 389 100 l 25
 389 200 l 25xd080
 314 200 l 25xd1
 314 300 l 25
 239 300 l 25
 239 400 l 25
 314 400 l 25xb1
 314 500 l 25xd1
 389 500 l 25
 389 600 l 25xd080
 464 600 l 25
 464 700 l 25
 539 700 l 25xd040
201 700 m 29xd2
 201 0 l 29
 126 0 l 29
 126 100 l 29xd2
 51 100 l 29
 51 200 l 29xd4
 -24 200 l 29xd8
 -24 300 l 29
 -99 300 l 29
 -99 400 l 29
 -24 400 l 29xb8
 -24 500 l 29xd8
 51 500 l 29
 51 600 l 29xd4
 126 600 l 29
 126 700 l 29
 201 700 l 29xd2
EndSplineSet
EndChar

StartChar: uni23ED
Encoding: 9197 9197 269
Width: 440
Flags: HW
HStem: 0 21G<-174 -99 164 239 501 614> 200 300<-24 51 314 389> 300 100<51 126 389 464> 680 20G<-174 -99 164 239 501 614>
VStem: -174 225<200 300 400 500> -174 150<100 200 500 600> -174 75<0 100 600 700> 164 225<200 300 400 500> 164 150<100 200 500 600> 164 75<0 100 600 700> 501 112<0 700>
LayerCount: 2
Back
Fore
SplineSet
501 700 m 29x9020
 614 700 l 29
 614 0 l 29
 501 0 l 29
 501 700 l 29x9020
164 700 m 25xd060
 239 700 l 25
 239 600 l 25xd060
 314 600 l 25
 314 500 l 25xd0a0
 389 500 l 25xd120
 389 400 l 25
 464 400 l 25
 464 300 l 25
 389 300 l 25xb120
 389 200 l 25xd120
 314 200 l 25
 314 100 l 25xd0a0
 239 100 l 25
 239 0 l 25
 164 0 l 25
 164 700 l 25xd060
-174 700 m 25xd220
 -99 700 l 25
 -99 600 l 25xd220
 -24 600 l 25
 -24 500 l 25xd420
 51 500 l 25xd820
 51 400 l 25
 126 400 l 25
 126 300 l 25
 51 300 l 25xb820
 51 200 l 25xd820
 -24 200 l 25
 -24 100 l 25xd420
 -99 100 l 25
 -99 0 l 25
 -174 0 l 25
 -174 700 l 25xd220
EndSplineSet
EndChar

StartChar: uni23EE
Encoding: 9198 9198 270
Width: 440
Flags: HW
HStem: 0 21G<-174 -61 201 276 539 614> 200 300<51 126 389 464> 300 100<-24 51 314 389> 680 20G<-174 -61 201 276 539 614>
VStem: -174 112<0 700> 51 225<200 300 400 500> 126 150<100 200 500 600> 201 75<0 100 600 700> 389 225<200 300 400 500> 464 150<100 200 500 600> 539 75<0 100 600 700>
LayerCount: 2
Back
Fore
SplineSet
-174 700 m 29x98
 -61 700 l 29
 -61 0 l 29
 -174 0 l 29
 -174 700 l 29x98
614 700 m 25xd820
 614 0 l 25
 539 0 l 25
 539 100 l 25xd820
 464 100 l 25
 464 200 l 25xd840
 389 200 l 25xd880
 389 300 l 25
 314 300 l 25
 314 400 l 25
 389 400 l 25xb880
 389 500 l 25xd880
 464 500 l 25
 464 600 l 25xd840
 539 600 l 25
 539 700 l 25
 614 700 l 25xd820
276 700 m 25xd9
 276 0 l 25
 201 0 l 25
 201 100 l 25xd9
 126 100 l 25
 126 200 l 25xda
 51 200 l 25xdc
 51 300 l 25
 -24 300 l 25
 -24 400 l 25
 51 400 l 25xbc
 51 500 l 25xdc
 126 500 l 25
 126 600 l 25xda
 201 600 l 25
 201 700 l 25
 276 700 l 25xd9
EndSplineSet
EndChar

StartChar: uni23EF
Encoding: 9199 9199 271
Width: 440
Flags: HW
HStem: 0 21G<-136 -61 239 351 464 576> 300 100<89 164> 680 20G<-136 -61 239 351 464 576>
VStem: -136 225<200 300 400 500> -136 150<100 200 500 600> -136 75<0 100 600 700> 239 112<0 700> 464 112<0 700>
LayerCount: 2
Back
Fore
SplineSet
-136 700 m 25xe7
 -61 700 l 25
 -61 600 l 25xe7
 14 600 l 25
 14 500 l 25xeb
 89 500 l 25
 89 400 l 25
 164 400 l 25
 164 300 l 25
 89 300 l 25
 89 200 l 25xf3
 14 200 l 25
 14 100 l 25xeb
 -61 100 l 25
 -61 0 l 25
 -136 0 l 25
 -136 700 l 25xe7
239 700 m 29
 351 700 l 29
 351 0 l 29
 239 0 l 29
 239 700 l 29
464 700 m 29
 576 700 l 29
 576 0 l 29
 464 0 l 29
 464 700 l 29
EndSplineSet
EndChar

StartChar: uni23F8
Encoding: 9208 9208 273
Width: 440
Flags: HW
HStem: 0 21G<51 164 276 389> 680 20G<51 164 276 389>
VStem: 51 112<0 700> 276 112<0 700>
LayerCount: 2
Back
Fore
SplineSet
51 700 m 29
 164 700 l 29
 164 0 l 29
 51 0 l 29
 51 700 l 29
276 700 m 29
 389 700 l 29
 389 0 l 29
 276 0 l 29
 276 700 l 29
EndSplineSet
EndChar

StartChar: uni23F9
Encoding: 9209 9209 274
Width: 440
Flags: HW
HStem: 0 21G<14 426> 680 20G<14 426>
VStem: 14 412<0 700>
LayerCount: 2
Back
Fore
SplineSet
14 700 m 29
 426 700 l 25
 426 0 l 25
 14 0 l 25
 14 700 l 29
EndSplineSet
EndChar

StartChar: uni23FA
Encoding: 9210 9210 275
Width: 440
Flags: HW
HStem: 0 21G<108 332> 680 20G<108 332>
VStem: 108 225<0 100 600 700>
LayerCount: 2
Back
Fore
SplineSet
-5 500 m 29
 32 500 l 25
 32 600 l 25
 108 600 l 25
 108 700 l 25
 332 700 l 25
 332 600 l 25
 408 600 l 25
 408 500 l 25
 445 500 l 25
 445 200 l 25
 408 200 l 25
 408 100 l 25
 332 100 l 25
 332 0 l 25
 108 0 l 25
 108 100 l 25
 32 100 l 25
 32 200 l 25
 -5 200 l 25
 -5 500 l 29
EndSplineSet
EndChar

StartChar: uni23FD
Encoding: 9213 9213 276
Width: 440
Flags: HW
HStem: -100 100<70 370> 500 100<70 108 332 370>
VStem: -42 75<100 400> -5 75<0 100 400 500> 32 75<500 600> 182 75<300 800> 332 75<500 600> 370 75<0 100 400 500> 408 75<100 400>
LayerCount: 2
Back
Fore
SplineSet
182 300 m 29xc4
 182 800 l 1
 258 800 l 25
 258 300 l 1
 182 300 l 29xc4
32 500 m 25xcc
 32 600 l 25
 108 600 l 25
 108 500 l 25xcc
 70 500 l 25
 70 400 l 25xd4
 32 400 l 25
 32 100 l 25xe4
 70 100 l 25
 70 0 l 25
 370 0 l 25
 370 100 l 25xd5
 408 100 l 25
 408 400 l 25xc480
 370 400 l 25
 370 500 l 25xc5
 332 500 l 25
 332 600 l 25
 408 600 l 25
 408 500 l 25xc6
 445 500 l 25
 445 400 l 25xc5
 482 400 l 25
 482 100 l 25xc480
 445 100 l 25
 445 0 l 25xc5
 408 0 l 25
 408 -100 l 25
 32 -100 l 25
 32 0 l 25xcc80
 -5 0 l 25
 -5 100 l 25xd4
 -42 100 l 25
 -42 400 l 25xe4
 -5 400 l 25
 -5 500 l 25xd4
 32 500 l 25xcc
EndSplineSet
EndChar

StartChar: uni2B58
Encoding: 11096 11096 277
Width: 440
Flags: HW
HStem: 0 100<145 295> 100 100<70 108 332 370> 600 100<70 108 332 370> 700 100<145 295>
VStem: -42 75<300 500> -5 75<200 300 500 600> 32 112<100 200 600 700> 108 225<0 100 700 800> 182 75<200 600> 295 112<100 200 600 700> 370 75<200 300 500 600> 408 75<300 500>
LayerCount: 2
Back
Fore
SplineSet
182 200 m 29x6080
 182 600 l 25
 258 600 l 25
 258 200 l 25
 182 200 l 29x6080
70 200 m 25x64
 145 200 l 25x62
 145 100 l 25
 295 100 l 25x8240
 295 200 l 25x4240
 370 200 l 25
 370 300 l 25x4020
 408 300 l 25
 408 500 l 25x4010
 370 500 l 25
 370 600 l 25x6020
 295 600 l 25x6040
 295 700 l 25
 145 700 l 25x1240
 145 600 l 25x2240
 70 600 l 25
 70 500 l 25x24
 32 500 l 25
 32 300 l 25x28
 70 300 l 25
 70 200 l 25x64
32 600 m 25
 32 700 l 1x12
 108 700 l 25x21
 108 800 l 25
 332 800 l 25x11
 332 700 l 25x21
 408 700 l 25x1040
 408 600 l 25x2040
 445 600 l 25
 445 500 l 25x2020
 482 500 l 25
 482 300 l 25x2010
 445 300 l 25
 445 200 l 25x6020
 408 200 l 25
 408 100 l 25x6040
 332 100 l 25x61
 332 0 l 25
 108 0 l 25x81
 108 100 l 25x41
 32 100 l 25
 32 200 l 25x42
 -5 200 l 25
 -5 300 l 25x44
 -42 300 l 25
 -42 500 l 25x48
 -5 500 l 25
 -5 600 l 1x64
 32 600 l 25
EndSplineSet
EndChar

StartChar: trademark
Encoding: 8482 8482 278
Width: 440
Flags: HW
HStem: 400 300<14 89 201 276 426 501> 500 100<314 389> 600 100<-61 14 89 164 276 314 389 426>
VStem: 14 75<400 600> 201 112<600 700> 201 75<400 600> 314 75<500 600> 389 112<600 700> 426 75<400 600>
LayerCount: 2
Back
Fore
SplineSet
201 400 m 29x94
 201 700 l 25x98
 314 700 l 25x38
 314 600 l 25x58
 389 600 l 25x52
 389 700 l 25x31
 501 700 l 25x91
 501 400 l 25
 426 400 l 25x9080
 426 600 l 25x3080
 389 600 l 25
 389 500 l 25
 314 500 l 25x5280
 314 600 l 25x58
 276 600 l 25x34
 276 400 l 25
 201 400 l 29x94
-61 600 m 25x30
 -61 701 l 25
 164 700 l 25
 164 600 l 1
 89 600 l 25x30
 89 400 l 1
 14 400 l 25x90
 14 600 l 25
 -61 600 l 25x30
EndSplineSet
EndChar

StartChar: uni25FC
Encoding: 9724 9724 279
Width: 440
Flags: HW
HStem: 0 100<182 258> 680 20G<182 258>
VStem: 182 75<0 100 200 700>
LayerCount: 2
Back
Fore
SplineSet
182 700 m 29
 258 700 l 25
 258 200 l 25
 182 200 l 25
 182 700 l 29
258 0 m 25
 182 0 l 1
 182 100 l 25
 258 100 l 1
 258 0 l 25
EndSplineSet
EndChar

StartChar: filledbox
Encoding: 9632 9632 280
Width: 440
Flags: HW
HStem: 0 21G<-5 445>
VStem: -5 450<0 800>
LayerCount: 2
Back
Fore
SplineSet
-5 0 m 29
 -5 800 l 25
 445 800 l 25
 445 0 l 25
 -5 0 l 29
EndSplineSet
EndChar

StartChar: uni26C7
Encoding: 9927 9927 281
Width: 440
Flags: HW
HStem: -100 100<14 89 351 426> 400 100<51 89 351 389> 500 100<14 51 89 126 314 351 389 426>
VStem: 14 112<-100 0> 14 38<500 600> 51 38<400 500> 89 75<500 600> 126 188<100 200 400 500 600 700> 201 38<500 600> 276 75<500 600> 314 112<-100 0> 351 38<400 500> 389 38<500 600>
LayerCount: 2
Back
Fore
SplineSet
239 500 m 29xa0c0
 276 500 l 29
 276 600 l 29
 239 600 l 29
 239 500 l 29xa0c0
164 500 m 25xa280
 201 500 l 25
 201 600 l 25
 164 600 l 25
 164 500 l 25xa280
14 -100 m 25xd020
 14 0 l 25xd020
 89 0 l 25
 89 100 l 1xc2
 126 100 l 1
 126 200 l 1xc1
 89 200 l 1xc2
 89 400 l 25
 126 400 l 25xc5
 126 500 l 25xa5
 89 500 l 25xc5
 89 600 l 25xa2
 126 600 l 25
 126 700 l 25xa1
 164 700 l 25
 164 800 l 25
 276 800 l 25
 276 700 l 25xa240
 314 700 l 25
 314 600 l 25xa1
 351 600 l 25xa040
 351 500 l 25xc040
 314 500 l 25xa1
 314 400 l 25
 351 400 l 25
 351 200 l 1
 314 200 l 1
 314 100 l 1
 351 100 l 1
 351 0 l 25xc110
 426 0 l 25
 426 -100 l 25
 314 -100 l 25
 314 0 l 25
 126 0 l 25
 126 -100 l 25
 14 -100 l 25xd020
51 500 m 25xc8
 89 500 l 25
 89 400 l 25
 51 400 l 25xc4
 51 500 l 25xc8
14 600 m 25xa8
 51 600 l 25xa8
 51 500 l 25xc8
 14 500 l 25
 14 600 l 25xa8
351 400 m 25xc010
 351 500 l 25xc040
 389 500 l 25
 389 400 l 25
 351 400 l 25xc010
389 500 m 25xc010
 389 600 l 25
 426 600 l 25
 426 500 l 25xa008
 389 500 l 25xc010
EndSplineSet
EndChar

StartChar: uni2744
Encoding: 10052 10052 282
Width: 440
Flags: HMW
LayerCount: 2
Back
Fore
SplineSet
258 500 m 29
 295 500 l 25
 295 600 l 25
 258 600 l 25
 258 500 l 29
145 500 m 25
 182 500 l 25
 182 600 l 25
 145 600 l 25
 145 500 l 25
182 400 m 25
 182 300 l 25
 258 300 l 25
 258 400 l 25
 182 400 l 25
-118 -100 m 25
 -118 100 l 1
 -42 100 l 25
 -42 0 l 25
 -5 0 l 25
 -5 100 l 25
 32 100 l 25
 32 200 l 25
 108 200 l 25
 108 300 l 25
 -5 300 l 25
 -5 200 l 25
 -80 200 l 25
 -80 300 l 25
 -118 300 l 25
 -118 400 l 25
 -80 400 l 25
 -80 500 l 25
 -5 500 l 25
 -5 400 l 25
 108 400 l 25
 108 500 l 25
 32 500 l 25
 32 600 l 25
 -5 600 l 25
 -5 700 l 25
 -42 700 l 25
 -42 600 l 25
 -118 600 l 25
 -118 800 l 25
 -5 800 l 25
 -5 700 l 25
 70 700 l 25
 70 600 l 25
 145 600 l 25
 145 700 l 25
 182 700 l 25
 182 800 l 25
 258 800 l 25
 258 700 l 25
 295 700 l 25
 295 600 l 25
 370 600 l 25
 370 700 l 25
 445 700 l 25
 445 800 l 25
 558 800 l 25
 558 600 l 25
 482 600 l 25
 482 700 l 25
 445 700 l 25
 445 600 l 25
 408 600 l 25
 408 500 l 25
 332 500 l 25
 332 400 l 25
 445 400 l 25
 445 500 l 25
 520 500 l 25
 520 400 l 25
 558 400 l 25
 558 300 l 25
 520 300 l 25
 520 200 l 25
 445 200 l 25
 445 300 l 25
 332 300 l 25
 332 200 l 25
 408 200 l 25
 408 100 l 25
 445 100 l 25
 445 0 l 25
 482 0 l 25
 482 100 l 25
 558 100 l 25
 558 -100 l 25
 445 -100 l 25
 445 0 l 25
 370 0 l 25
 370 100 l 25
 295 100 l 25
 295 200 l 25
 258 200 l 25
 258 100 l 25
 295 100 l 25
 295 0 l 25
 258 0 l 25
 258 -100 l 25
 182 -100 l 25
 182 0 l 25
 145 0 l 25
 145 100 l 25
 182 100 l 25
 182 200 l 25
 145 200 l 25
 145 100 l 25
 70 100 l 25
 70 0 l 25
 -5 0 l 25
 -5 -100 l 1
 -118 -100 l 25
EndSplineSet
EndChar

StartChar: uni26A0
Encoding: 9888 9888 283
Width: 440
Flags: HW
HStem: -100 100<-42 482> 100 100<182 258> 300 200<32 70 182 258 370 408> 700 100<182 258>
VStem: -118 75<0 100> -80 75<100 200> -42 75<200 300> -5 75<300 400> 32 75<400 500> 70 75<500 600> 108 75<600 700> 182 75<100 200 300 500> 258 75<600 700> 295 75<500 600> 332 75<400 500> 370 75<300 400> 408 75<200 300> 445 75<100 200> 482 75<0 100>
LayerCount: 2
Back
Fore
SplineSet
182 100 m 29xf010
 182 200 l 25
 258 200 l 25
 258 100 l 25
 182 100 l 29xf010
182 300 m 25
 182 500 l 25
 258 500 l 25
 258 300 l 25
 182 300 l 25
182 600 m 25xf028
 145 600 l 25
 145 500 l 25xf040
 108 500 l 25
 108 400 l 25xf080
 70 400 l 25
 70 300 l 25xf1
 32 300 l 25
 32 200 l 25xf2
 -5 200 l 25
 -5 100 l 25xf4
 -42 100 l 25
 -42 0 l 25
 482 0 l 25
 482 100 l 25xf80020
 445 100 l 25
 445 200 l 25xf00040
 408 200 l 25
 408 300 l 25xf00080
 370 300 l 25
 370 400 l 25xf001
 332 400 l 25
 332 500 l 25xf002
 295 500 l 25
 295 600 l 25xf004
 258 600 l 25
 258 700 l 25
 182 700 l 25
 182 600 l 25xf028
-118 -100 m 25xf80020
 -118 100 l 1xf80020
 -80 100 l 25
 -80 200 l 25xf4
 -42 200 l 25
 -42 300 l 25xf2
 -5 300 l 25
 -5 400 l 25xf1
 32 400 l 25
 32 500 l 25xf080
 70 500 l 25
 70 600 l 25xf040
 108 600 l 25
 108 700 l 25xf020
 145 700 l 25
 145 800 l 25
 295 800 l 25
 295 700 l 25xf044
 332 700 l 25
 332 600 l 25xf008
 370 600 l 25
 370 500 l 25xf004
 408 500 l 25
 408 400 l 25xf002
 445 400 l 25
 445 300 l 25xf001
 482 300 l 25
 482 200 l 25xf00080
 520 200 l 25
 520 100 l 25xf00040
 558 100 l 25
 558 -100 l 1
 -118 -100 l 25xf80020
EndSplineSet
EndChar

StartChar: u1F642
Encoding: 128578 128578 284
Width: 440
Flags: HW
HStem: -100 100<32 408> 100 100<108 332> 200 100<32 70 370 408> 500 100<70 145 295 370> 700 100<32 408>
VStem: -80 75<100 600> -42 75<0 100 600 700> 32 75<200 300> 70 75<500 600> 295 75<500 600> 332 75<200 300> 408 75<0 100 600 700> 445 75<100 600>
LayerCount: 2
Back
Fore
SplineSet
295 500 m 25x9840
 295 600 l 25
 370 600 l 25
 370 500 l 25
 295 500 l 25x9840
70 500 m 25x9880
 70 600 l 25
 145 600 l 25
 145 500 l 25
 70 500 l 25x9880
32 200 m 25xb9
 32 300 l 1
 108 300 l 25xb9
 108 200 l 25
 332 200 l 25xd920
 332 300 l 25
 408 300 l 25
 408 200 l 25xb920
 370 200 l 25xb840
 370 100 l 25
 70 100 l 25xd8c0
 70 200 l 1xb8c0
 32 200 l 25xb9
32 0 m 25xda
 408 0 l 25
 408 100 l 25xda10
 445 100 l 25
 445 600 l 25xd808
 408 600 l 25
 408 700 l 25
 32 700 l 25
 32 600 l 25xda10
 -5 600 l 25
 -5 100 l 25xdc
 32 100 l 25
 32 0 l 25xda
-80 100 m 25xdc
 -80 600 l 25xdc
 -42 600 l 25
 -42 700 l 25xda
 -5 700 l 25
 -5 800 l 25
 445 800 l 25
 445 700 l 25xdc08
 482 700 l 25
 482 600 l 25xd810
 520 600 l 25
 520 100 l 25xd808
 482 100 l 25
 482 0 l 25xd810
 445 0 l 25
 445 -100 l 25
 -5 -100 l 25
 -5 0 l 25xdc08
 -42 0 l 25
 -42 100 l 25xda
 -80 100 l 25xdc
EndSplineSet
EndChar

StartChar: u1F643
Encoding: 128579 128579 285
Width: 440
Flags: HW
HStem: -100 100<32 408> 100 100<70 145 295 370> 400 100<32 70 370 408> 500 100<108 332> 700 100<32 408>
VStem: -80 75<100 600> -42 75<0 100 600 700> 32 75<400 500> 70 75<100 200> 295 75<100 200> 332 75<400 500> 408 75<0 100 600 700> 445 75<100 600>
LayerCount: 2
Back
Fore
SplineSet
32 400 m 29xe920
 32 500 l 25xe920
 70 500 l 25xe880
 70 600 l 25
 370 600 l 25xd8c0
 370 500 l 25xe8c0
 408 500 l 25
 408 400 l 25
 332 400 l 25xe820
 332 500 l 25
 108 500 l 25xd920
 108 400 l 25
 32 400 l 29xe920
295 100 m 25xc840
 295 200 l 25
 370 200 l 25
 370 100 l 25
 295 100 l 25xc840
70 100 m 25xc880
 70 200 l 25
 145 200 l 25
 145 100 l 25
 70 100 l 25xc880
32 0 m 25xda
 408 0 l 25
 408 100 l 25xda10
 445 100 l 25
 445 600 l 25xd808
 408 600 l 25
 408 700 l 25
 32 700 l 25
 32 600 l 25xda10
 -5 600 l 25
 -5 100 l 25xdc
 32 100 l 25
 32 0 l 25xda
-80 100 m 25xdc
 -80 600 l 25xdc
 -42 600 l 25
 -42 700 l 25xda
 -5 700 l 25
 -5 800 l 25
 445 800 l 25
 445 700 l 25xdc08
 482 700 l 25
 482 600 l 25xd810
 520 600 l 25
 520 100 l 25xd808
 482 100 l 25
 482 0 l 25xd810
 445 0 l 25
 445 -100 l 25
 -5 -100 l 25
 -5 0 l 25xdc08
 -42 0 l 25
 -42 100 l 25xda
 -80 100 l 25xdc
EndSplineSet
EndChar

StartChar: u1F604
Encoding: 128516 128516 286
Width: 440
Flags: HW
HStem: -100 100<32 408> 100 200<70 370> 200 100<32 70 370 408> 400 100<32 70 145 182 258 295 370 408> 500 100<70 145 295 370> 700 100<32 408>
VStem: -80 75<100 600> -42 75<0 100 600 700> 32 38<400 500> 70 75<500 600> 145 38<400 500> 258 38<400 500> 295 75<500 600> 370 38<400 500> 408 75<0 100 600 700> 445 75<100 600>
LayerCount: 2
Back
Fore
SplineSet
70 100 m 29xc444
 70 200 l 29xa444
 32 200 l 29
 32 300 l 29
 408 300 l 29
 408 200 l 29xa482
 370 200 l 29xa404
 370 100 l 29
 70 100 l 29xc444
258 400 m 25x9410
 258 500 l 25
 295 500 l 25x9410
 295 600 l 25
 370 600 l 25x8c08
 370 500 l 25x9408
 408 500 l 25
 408 400 l 25
 370 400 l 25x9404
 370 500 l 25x9408
 295 500 l 25
 295 400 l 25
 258 400 l 25x9410
32 400 m 25x9480
 32 500 l 25
 70 500 l 25x9480
 70 600 l 25
 145 600 l 25x8c40
 145 500 l 25x9440
 182 500 l 25
 182 400 l 25
 145 400 l 25x9420
 145 500 l 25x9440
 70 500 l 25
 70 400 l 25
 32 400 l 25x9480
32 0 m 25xcd
 408 0 l 25
 408 100 l 25xcd02
 445 100 l 29
 445 600 l 25xcc01
 408 600 l 25
 408 700 l 25
 32 700 l 25
 32 600 l 25xcd02
 -5 600 l 25
 -5 100 l 25xce
 32 100 l 25
 32 0 l 25xcd
-80 100 m 25xce
 -80 600 l 25xce
 -42 600 l 25
 -42 700 l 25xcd
 -5 700 l 25
 -5 800 l 25
 445 800 l 25
 445 700 l 25xce01
 482 700 l 25
 482 600 l 25xcc02
 520 600 l 25
 520 100 l 25xcc01
 482 100 l 25
 482 0 l 25xcc02
 445 0 l 25
 445 -100 l 25
 -5 -100 l 25
 -5 0 l 25xce01
 -42 0 l 25
 -42 100 l 25xcd
 -80 100 l 25xce
EndSplineSet
EndChar

StartChar: u1F606
Encoding: 128518 128518 287
Width: 440
Flags: HW
HStem: -100 100<32 408> 100 200<70 370> 200 100<32 70 370 408> 400 100<108 220 370 408> 500 100<32 70 220 332> 700 100<32 408>
VStem: -80 75<100 600> -42 75<0 100 600 700> 32 75<500 600> 332 75<400 500> 408 75<0 100 600 700> 445 75<100 600>
LayerCount: 2
Back
Fore
SplineSet
32 600 m 29x8d
 108 600 l 25x8c80
 108 500 l 25
 220 500 l 25x9480
 220 600 l 25
 370 600 l 25x8c80
 370 500 l 25
 408 500 l 25
 408 400 l 25
 332 400 l 25x94c0
 332 500 l 25x8cc0
 220 500 l 25
 220 400 l 25
 70 400 l 25x94c0
 70 500 l 25
 32 500 l 25x8cc0
 32 600 l 29x8d
70 100 m 25xc4a0
 70 200 l 25
 32 200 l 25
 32 300 l 25
 408 300 l 25
 408 200 l 25
 370 200 l 25xa4a0
 370 100 l 25
 70 100 l 25xc4a0
445 100 m 1049xc410
32 0 m 25xcd
 408 0 l 25
 408 100 l 25xcd20
 445 100 l 25
 445 600 l 25xcc10
 408 600 l 25
 408 700 l 25
 32 700 l 25
 32 600 l 25xcd20
 -5 600 l 25
 -5 100 l 25xce
 32 100 l 25
 32 0 l 25xcd
-80 100 m 25xce
 -80 600 l 25xce
 -42 600 l 25
 -42 700 l 25xcd
 -5 700 l 25
 -5 800 l 25
 445 800 l 25
 445 700 l 25xce10
 482 700 l 25
 482 600 l 25xcc20
 520 600 l 25
 520 100 l 25xcc10
 482 100 l 25
 482 0 l 25xcc20
 445 0 l 25
 445 -100 l 25
 -5 -100 l 25
 -5 0 l 25xce10
 -42 0 l 25
 -42 100 l 25xcd
 -80 100 l 25xce
EndSplineSet
EndChar

StartChar: u1F60E
Encoding: 128526 128526 288
Width: 440
Flags: HW
HStem: -100 100<32 408> 100 100<108 332> 200 100<32 70 370 408> 400 100<32 70 370 408> 500 100<182 258> 700 100<32 408>
VStem: -80 75<100 500> -42 75<0 100 600 700> 32 75<200 300> 332 75<200 300> 408 75<0 100 600 700> 445 75<100 500>
LayerCount: 2
Back
Fore
SplineSet
32 200 m 29xa4c0
 32 300 l 5
 108 300 l 29xa4c0
 108 200 l 29
 332 200 l 29xc4c0
 332 300 l 29
 408 300 l 29
 408 200 l 29
 370 200 l 29xa4c0
 370 100 l 29
 70 100 l 29xc4c0
 70 200 l 5
 32 200 l 29xa4c0
32 400 m 1x94a0
 32 500 l 25
 70 500 l 25x94a0
 70 600 l 25
 370 600 l 25x8ca0
 370 500 l 25
 408 500 l 25
 408 400 l 25
 258 400 l 25x94a0
 258 500 l 25
 182 500 l 1x8ca0
 182 400 l 25
 32 400 l 1x94a0
32 0 m 25xcd
 408 0 l 25
 408 100 l 25xcd20
 445 100 l 1
 445 500 l 1xcc10
 408 500 l 1
 408 700 l 1
 32 700 l 1x9520
 32 500 l 1x9480
 -5 500 l 1
 -5 100 l 1xce80
 32 100 l 25
 32 0 l 25xcd
-80 100 m 25xce
 -80 600 l 25xce
 -42 600 l 25
 -42 700 l 25xcd
 -5 700 l 25
 -5 800 l 25
 445 800 l 25
 445 700 l 25xce10
 482 700 l 25
 482 600 l 25xcc20
 520 600 l 25
 520 100 l 25xcc10
 482 100 l 25
 482 0 l 25xcc20
 445 0 l 25
 445 -100 l 25
 -5 -100 l 25
 -5 0 l 25xce10
 -42 0 l 25
 -42 100 l 25xcd
 -80 100 l 25xce
EndSplineSet
EndChar

StartChar: u1F621
Encoding: 128545 128545 289
Width: 440
Flags: HW
HStem: -100 100<32 408> 100 100<70 108 332 370> 200 100<145 295> 400 100<145 182 258 295> 500 100<32 108 332 408> 700 100<32 408>
VStem: -80 75<100 600> -42 75<0 100 600 700> 32 112<500 600> 70 75<100 200> 108 75<400 500> 258 75<400 500> 295 112<500 600> 295 75<101 200> 408 75<0 100 600 700> 445 75<100 600>
LayerCount: 2
Back
Fore
SplineSet
70 100 m 25xc444
 70 200 l 25xc444
 108 200 l 25xc420
 108 300 l 25
 332 300 l 25xa430
 332 200 l 25xc430
 370 200 l 25
 370 101 l 25
 295 100 l 25xc404
 295 200 l 25
 145 200 l 25xa444
 145 100 l 25
 70 100 l 25xc444
258 400 m 5x9410
 258 500 l 29x9410
 295 500 l 29x9408
 295 600 l 5
 408 600 l 1
 408 500 l 5x8c08
 332 500 l 5x8c10
 332 400 l 29
 258 400 l 5x9410
108 400 m 29x9420
 108 500 l 5x8c20
 32 500 l 5x8c80
 32 600 l 1x8d
 145 600 l 5x8c80
 145 500 l 29x9480
 182 500 l 29
 182 400 l 29
 108 400 l 29x9420
32 0 m 25xcd
 408 0 l 25
 408 100 l 25xcd02
 445 100 l 25
 445 600 l 25
 408 600 l 29xcc09
 408 700 l 25
 32 700 l 25
 32 600 l 29xcd02
 -5 600 l 25
 -5 100 l 25xce
 32 100 l 25
 32 0 l 25xcd
-80 100 m 25xce
 -80 600 l 25xce
 -42 600 l 25
 -42 700 l 25xcd
 -5 700 l 25
 -5 800 l 25
 445 800 l 25
 445 700 l 25xce01
 482 700 l 25
 482 600 l 25xcc02
 520 600 l 25
 520 100 l 25xcc01
 482 100 l 25
 482 0 l 25xcc02
 445 0 l 25
 445 -100 l 25
 -5 -100 l 25
 -5 0 l 25xce01
 -42 0 l 25
 -42 100 l 25xcd
 -80 100 l 25xce
EndSplineSet
EndChar

StartChar: u1F620
Encoding: 128544 128544 290
Width: 440
Flags: HW
HStem: -100 100<32 408> 100 100<70 108 332 370> 200 100<145 295> 400 100<145 182 258 295> 500 100<70 108 332 370> 700 100<32 408>
VStem: -80 75<100 600> -42 75<0 100 600 700> 70 75<100 200 500 600> 108 75<400 500> 258 75<400 500> 295 75<101 200 500 600> 408 75<0 100 600 700> 445 75<100 600>
LayerCount: 2
Back
Fore
SplineSet
258 400 m 1x9420
 258 500 l 25x9420
 295 500 l 25x9410
 295 600 l 25
 370 600 l 25
 370 500 l 25x8c10
 332 500 l 1x8c20
 332 400 l 25
 258 400 l 1x9420
108 400 m 25x9440
 108 500 l 25x8c40
 70 500 l 25
 70 600 l 25
 145 600 l 25x8c80
 145 500 l 25x9480
 182 500 l 25
 182 400 l 25
 108 400 l 25x9440
70 100 m 29xc490
 70 200 l 29xc490
 108 200 l 29xc440
 108 300 l 29
 332 300 l 29xa460
 332 200 l 29xc460
 370 200 l 29
 370 101 l 29
 295 100 l 29xc410
 295 200 l 29
 145 200 l 29xa490
 145 100 l 29
 70 100 l 29xc490
32 0 m 25xcd
 408 0 l 25
 408 100 l 25xcd08
 445 100 l 25
 445 600 l 25xcc04
 408 600 l 25
 408 700 l 25
 32 700 l 25
 32 600 l 25xcd08
 -5 600 l 25
 -5 100 l 25xce
 32 100 l 25
 32 0 l 25xcd
-80 100 m 25xce
 -80 600 l 25xce
 -42 600 l 25
 -42 700 l 25xcd
 -5 700 l 25
 -5 800 l 25
 445 800 l 25
 445 700 l 25xce04
 482 700 l 25
 482 600 l 25xcc08
 520 600 l 25
 520 100 l 25xcc04
 482 100 l 25
 482 0 l 25xcc08
 445 0 l 25
 445 -100 l 25
 -5 -100 l 25
 -5 0 l 25xce04
 -42 0 l 25
 -42 100 l 25xcd
 -80 100 l 25xce
EndSplineSet
EndChar

StartChar: u1F62D
Encoding: 128557 128557 291
Width: 440
Flags: HW
HStem: -100 100<32 408> 100 200<108 332> 300 100<32 70 370 408> 480 20G<70 108 332 370> 500 100<108 182 258 332> 700 100<32 408>
VStem: -80 75<100 600> -42 75<0 100 600 700> 32 75<300 400> 70 38<400 500> 108 75<500 600> 258 75<500 600> 332 75<300 400> 332 38<400 500> 408 75<0 100 600 700> 445 75<100 600>
LayerCount: 2
Back
Fore
SplineSet
108 100 m 29xc424
 108 300 l 25
 332 300 l 25xc488
 332 100 l 25
 108 100 l 29xc424
332 300 m 25
 332 500 l 25xd410
 370 500 l 25
 370 400 l 25xb404
 408 400 l 25
 408 300 l 25xb408
 332 300 l 25
32 300 m 25xa480
 32 400 l 25xa480
 70 400 l 25
 70 500 l 25
 108 500 l 25xb440
 108 300 l 25xd480
 32 300 l 25xa480
258 500 m 25x8c10
 258 600 l 25
 332 600 l 25x8c10
 332 500 l 25x9410
 258 500 l 25x8c10
108 500 m 25x9440
 108 600 l 25
 182 600 l 25
 182 500 l 25x8c20
 108 500 l 25x9440
32 0 m 25xcd
 408 0 l 25
 408 100 l 25xcd02
 445 100 l 25
 445 600 l 25xcc01
 408 600 l 25
 408 700 l 25
 32 700 l 25
 32 600 l 25xcd02
 -5 600 l 25
 -5 100 l 25xce
 32 100 l 25
 32 0 l 25xcd
-80 100 m 25xce
 -80 600 l 25xce
 -42 600 l 25
 -42 700 l 25xcd
 -5 700 l 25
 -5 800 l 25
 445 800 l 25
 445 700 l 25xce01
 482 700 l 25
 482 600 l 25xcc02
 520 600 l 25
 520 100 l 25xcc01
 482 100 l 25
 482 0 l 25xcc02
 445 0 l 25
 445 -100 l 25
 -5 -100 l 25
 -5 0 l 25xce01
 -42 0 l 25
 -42 100 l 25xcd
 -80 100 l 25xce
EndSplineSet
EndChar

StartChar: u1F50C
Encoding: 128268 128268 292
Width: 440
Flags: HW
VStem: 89 75<600 800> 164 112<150 300> 276 75<600 800>
LayerCount: 2
Back
Fore
SplineSet
51 400 m 29x40
 51 600 l 25
 89 600 l 25
 89 800 l 25
 164 800 l 25
 164 600 l 25
 276 600 l 25
 276 800 l 25
 351 800 l 25
 351 600 l 25xa0
 389 600 l 25
 389 400 l 25
 314 400 l 25
 314 300 l 25
 276 300 l 25
 276 150 l 25
 239 150 l 25
 239 -100 l 25
 201 -100 l 25
 201 150 l 25
 164 150 l 25
 164 300 l 25
 126 300 l 25
 126 400 l 25
 51 400 l 29x40
EndSplineSet
EndChar

StartChar: u1F4FA
Encoding: 128250 128250 293
Width: 440
Flags: HW
HStem: -100 200<32 408> 500 100<32 145 295 408> 700 100<70 145 295 370>
VStem: -42 75<100 500> 70 75<700 800> 295 75<700 800> 408 75<100 500>
LayerCount: 2
Back
Fore
SplineSet
32 100 m 29
 408 100 l 25
 408 500 l 25
 32 500 l 25
 32 100 l 29
-42 -100 m 25
 -42 600 l 25
 145 600 l 25
 145 700 l 25
 70 700 l 25
 70 800 l 25
 145 800 l 25
 145 700 l 25
 295 700 l 25
 295 800 l 25
 370 800 l 25
 370 700 l 25
 295 700 l 25
 295 600 l 25
 482 600 l 25
 482 -100 l 25
 -42 -100 l 25
EndSplineSet
EndChar

StartChar: u1F4FB
Encoding: 128251 128251 294
Width: 440
Flags: HW
HStem: -100 100<32 408> 150 100<258 295> 200 100<370 408> 300 100<32 332> 700 100<445 482>
VStem: -42 75<0 300> 70 75<50 250> 258 38<150 250> 408 75<0 200 300 500 700 800> 408 38<500 700>
LayerCount: 2
Back
Fore
SplineSet
258 150 m 29xcf
 258 250 l 25
 295 250 l 25
 295 150 l 25
 258 150 l 29xcf
70 50 m 25
 70 250 l 25
 145 250 l 25
 145 50 l 25
 70 50 l 25
32 0 m 25
 408 0 l 25
 408 200 l 25
 332 200 l 25xaf80
 332 300 l 25
 32 300 l 25x9f80
 32 0 l 25
-42 -100 m 25
 -42 300 l 25
 -5 300 l 25
 -5 400 l 25
 370 400 l 25x9f80
 370 300 l 25
 408 300 l 25
 408 800 l 25
 482 800 l 25
 482 700 l 25xaf80
 445 700 l 25
 445 500 l 25xaf40
 482 500 l 25
 482 -100 l 25
 -42 -100 l 25
EndSplineSet
EndChar

StartChar: u1F4FC
Encoding: 128252 128252 295
Width: 440
Flags: HW
HStem: 0 100<-5 445> 150 100<108 182 258 332> 250 100<32 70 370 408> 350 100<108 182 258 332> 500 100<-5 445>
VStem: -80 75<100 500> 32 75<250 350> 182 75<250 350> 332 75<250 350> 445 75<100 500>
LayerCount: 2
Back
Fore
SplineSet
108 250 m 29xdfc0
 182 250 l 25
 182 350 l 25
 108 350 l 25
 108 250 l 29xdfc0
258 250 m 25
 332 250 l 25
 332 350 l 25
 258 350 l 25
 258 250 l 25
70 150 m 25
 70 250 l 25
 32 250 l 25
 32 350 l 25
 70 350 l 25xafc0
 70 450 l 25
 370 450 l 25x9fc0
 370 350 l 25
 408 350 l 25
 408 250 l 25
 370 250 l 25xafc0
 370 150 l 25
 70 150 l 25
-5 100 m 25
 445 100 l 25
 445 500 l 25
 -5 500 l 25
 -5 100 l 25
-80 0 m 25
 -80 600 l 25
 520 600 l 25
 520 0 l 25
 -80 0 l 25
EndSplineSet
EndChar

StartChar: u1F508
Encoding: 128264 128264 296
Width: 440
Flags: HW
HStem: -100 100<332 370> 0 100<258 295> 100 100<182 220> 200 100<70 108> 400 100<70 108> 500 100<182 220> 600 100<258 295> 700 100<332 370>
VStem: -5 188<200 300 400 500> -5 75<300 400> 145 112<100 200 500 600> 220 112<0 100 600 700> 295 150<-100 0 700 800> 370 75<0 700>
LayerCount: 2
Back
Fore
SplineSet
182 200 m 29x2480
 258 200 l 29
 258 100 l 29x5020
 332 100 l 29
 332 0 l 29
 370 0 l 29
 370 700 l 29
 332 700 l 29xa114
 332 600 l 29x0214
 258 600 l 29x0220
 258 500 l 29x0420
 182 500 l 29
 182 200 l 29x2480
70 300 m 29x1840
 108 300 l 29
 108 400 l 29
 70 400 l 29
 70 300 l 29x1840
-5 200 m 29x1080
 -5 500 l 29x1480
 145 500 l 29x1420
 145 600 l 29x0220
 220 600 l 29
 220 700 l 29x0510
 295 700 l 29x0208
 295 800 l 29
 445 800 l 29
 445 -100 l 29
 295 -100 l 29x8108
 295 0 l 29x4008
 220 0 l 29x4010
 220 100 l 29x2010
 145 100 l 29x2020
 145 200 l 29x1020
 -5 200 l 29x1080
EndSplineSet
EndChar

StartChar: u1F507
Encoding: 128263 128263 297
Width: 440
Flags: HW
HStem: -100 100<332 370> 0 100<220 295> 200 100<70 108 145 182 295 332> 400 100<70 108 145 182 295 332> 600 100<220 295> 700 100<332 370>
VStem: -5 112<200 300 400 500> -5 75<300 400> 145 75<200 300 400 500> 220 112<0 100 600 700> 258 75<200 300 400 500> 295 150<-100 0 700 800> 370 75<0 700>
LayerCount: 2
Back
Fore
SplineSet
220 600 m 29x3848
 220 700 l 25x3848
 295 700 l 25x3810
 295 800 l 25
 445 800 l 25
 445 -100 l 25
 295 -100 l 25xb410
 295 0 l 25x7010
 220 0 l 25
 220 100 l 25
 332 100 l 25x7040
 332 0 l 25
 370 0 l 25
 370 700 l 25
 332 700 l 25xb448
 332 600 l 25
 220 600 l 29x3848
145 200 m 25x30a0
 145 300 l 25
 182 300 l 25
 182 400 l 25
 145 400 l 25
 145 500 l 25
 220 500 l 25
 220 400 l 25
 258 400 l 25
 258 500 l 25
 332 500 l 25
 332 400 l 25x30a0
 295 400 l 25
 295 300 l 25x3010
 332 300 l 25
 332 200 l 25
 258 200 l 25
 258 300 l 25
 220 300 l 25
 220 200 l 25
 145 200 l 25x30a0
-5 200 m 25x32
 -5 500 l 25
 108 500 l 25
 108 400 l 25x32
 70 400 l 25
 70 300 l 25x31
 108 300 l 25
 108 200 l 25
 -5 200 l 25x32
EndSplineSet
EndChar

StartChar: u1F509
Encoding: 128265 128265 298
Width: 440
Flags: HW
HStem: -100 100<258 295> 0 100<182 220> 100 100<108 145> 150 100<408 445> 200 100<-5 32> 400 100<-5 32> 450 100<408 445> 500 100<108 145> 600 100<182 220> 700 100<258 295>
VStem: -80 188<200 300 400 500> -80 75<300 400> 70 112<100 200 500 600> 145 112<0 100 600 700> 220 150<-100 0 700 800> 295 75<0 700> 408 75<150 250 450 550> 445 75<250 450>
LayerCount: 2
Back
Fore
SplineSet
408 550 m 29x120080
 482 550 l 29
 482 450 l 29x120080
 520 450 l 29
 520 250 l 29x120040
 482 250 l 29
 482 150 l 29
 408 150 l 29
 408 250 l 29x120080
 445 250 l 29
 445 450 l 29x120040
 408 450 l 29
 408 550 l 29x120080
108 200 m 25x2120
 182 200 l 25
 182 100 l 25x4808
 258 100 l 25
 258 0 l 25
 295 0 l 25
 295 700 l 25
 258 700 l 25xa045
 258 600 l 25x0085
 182 600 l 25x0088
 182 500 l 25x0108
 108 500 l 25
 108 200 l 25x2120
-5 300 m 25x0c10
 32 300 l 25
 32 400 l 25
 -5 400 l 25
 -5 300 l 25x0c10
-80 200 m 25x0820
 -80 500 l 25x0920
 70 500 l 25x0908
 70 600 l 25x0088
 145 600 l 25
 145 700 l 25x0144
 220 700 l 25x0082
 220 800 l 25
 370 800 l 25
 370 -100 l 25
 220 -100 l 25x8042
 220 0 l 25x4002
 145 0 l 25x4004
 145 100 l 25x2004
 70 100 l 25x2008
 70 200 l 25x0808
 -80 200 l 25x0820
EndSplineSet
EndChar

StartChar: u1F50A
Encoding: 128266 128266 299
Width: 440
Flags: HW
HStem: -100 100<182 220> 0 100<108 145> 50 100<445 482> 100 100<32 70> 150 100<332 370> 200 100<-80 -42> 400 100<-80 -42> 450 100<332 370> 500 100<32 70> 550 100<445 482> 600 100<108 145> 700 100<182 220>
VStem: -155 188<200 300 400 500> -155 75<300 400> -5 112<100 200 500 600> 70 112<0 100 600 700> 145 150<-100 0 700 800> 220 75<0 700> 332 75<150 250 450 550> 370 75<250 450> 445 75<50 150 550 650> 482 75<150 250 450 550> 520 75<250 450>
LayerCount: 2
Back
Fore
SplineSet
445 550 m 29x004008
 445 650 l 25
 520 650 l 25
 520 550 l 25x004008
 558 550 l 25x004004
 558 450 l 25x010004
 595 450 l 25
 595 250 l 25x090002
 558 250 l 25
 558 150 l 25x090004
 520 150 l 25x090008
 520 50 l 25
 445 50 l 25
 445 150 l 25x200008
 482 150 l 25x200004
 482 250 l 25x080004
 520 250 l 25
 520 450 l 25x090002
 482 450 l 25x090004
 482 550 l 25x004004
 445 550 l 29x004008
332 550 m 25x090020
 408 550 l 25x004020
 408 450 l 25x010020
 445 450 l 25
 445 250 l 25x090010
 408 250 l 25
 408 150 l 25
 332 150 l 25
 332 250 l 25x090020
 370 250 l 25
 370 450 l 25x090010
 332 450 l 25
 332 550 l 25x090020
32 200 m 25x1088
 108 200 l 25
 108 100 l 25x4402
 182 100 l 25
 182 0 l 25
 220 0 l 25
 220 700 l 25
 182 700 l 25x901140
 182 600 l 25x002140
 108 600 l 25x0022
 108 500 l 25x0082
 32 500 l 25
 32 200 l 25x1088
-80 300 m 25x0604
 -42 300 l 25
 -42 400 l 25
 -80 400 l 25
 -80 300 l 25x0604
-155 200 m 25x0408
 -155 500 l 25x0488
 -5 500 l 25x0482
 -5 600 l 25x0022
 70 600 l 25
 70 700 l 25x0091
 145 700 l 25x002080
 145 800 l 25
 295 800 l 25
 295 -100 l 25
 145 -100 l 25x801080
 145 0 l 25x400080
 70 0 l 25x4001
 70 100 l 25x1001
 -5 100 l 25x1002
 -5 200 l 25x0402
 -155 200 l 25x0408
EndSplineSet
EndChar

StartChar: u1F50B
Encoding: 128267 128267 300
Width: 440
Flags: HW
HStem: -100 100<108 332> 100 300<108 182 258 332>
VStem: 32 150<300 400 500 600> 32 75<0 100 400 500> 258 150<300 400 500 600> 332 75<0 100 400 500>
LayerCount: 2
Back
Fore
SplineSet
182 300 m 25xe0
 258 300 l 25
 258 400 l 25xe8
 332 400 l 25
 332 500 l 25xc4
 258 500 l 25
 258 600 l 25
 182 600 l 25
 182 500 l 25xe8
 108 500 l 25
 108 400 l 25xd0
 182 400 l 25
 182 300 l 25xe0
108 0 m 1xd4
 332 0 l 25
 332 100 l 1
 108 100 l 29
 108 0 l 1xd4
32 -100 m 25
 32 700 l 25
 145 700 l 25
 145 800 l 25
 295 800 l 25
 295 700 l 25
 408 700 l 25
 408 -100 l 25
 32 -100 l 25
EndSplineSet
EndChar

StartChar: u1F50D
Encoding: 128269 128269 301
Width: 440
Flags: HW
HStem: 200 100<126 276> 700 100<126 276>
VStem: 14 75<400 600> 51 75<300 400 600 700> 276 75<300 400 600 700> 314 75<400 600> 351 75<-100 0>
LayerCount: 2
Back
Fore
SplineSet
126 300 m 29xd0
 276 300 l 25
 276 400 l 25xd8
 314 400 l 25
 314 600 l 25xc4
 276 600 l 25
 276 700 l 25
 126 700 l 25
 126 600 l 25xd8
 89 600 l 25
 89 400 l 25xe0
 126 400 l 25
 126 300 l 29xd0
14 400 m 25xe0
 14 600 l 25xe0
 51 600 l 25
 51 700 l 25xd0
 89 700 l 25
 89 800 l 25
 314 800 l 25
 314 700 l 25xe4
 351 700 l 25
 351 600 l 25xc8
 389 600 l 25
 389 400 l 25xc4
 351 400 l 25xc8
 351 200 l 25xc2
 389 200 l 25
 389 100 l 25xc4
 426 100 l 25
 426 -100 l 25
 351 -100 l 25
 351 0 l 25xc2
 314 0 l 25
 314 100 l 25xc4
 276 100 l 25
 276 200 l 25
 89 200 l 25
 89 300 l 25xe8
 51 300 l 25
 51 400 l 25xd0
 14 400 l 25xe0
EndSplineSet
EndChar

StartChar: u1F50E
Encoding: 128270 128270 302
Width: 440
Flags: HW
HStem: 200 100<182 295> 700 100<145 295>
VStem: 32 75<-100 0 400 600> 70 112<100 200> 70 75<300 400 600 700> 108 225<200 300 700 800> 295 75<300 400 600 700> 332 75<400 600>
LayerCount: 2
Back
Fore
SplineSet
145 300 m 29xc8
 295 300 l 25
 295 400 l 25xca
 332 400 l 25
 332 600 l 25xc1
 295 600 l 25
 295 700 l 25
 145 700 l 25
 145 600 l 25xca
 108 600 l 25
 108 400 l 25xe0
 145 400 l 25
 145 300 l 29xc8
32 400 m 25xe0
 32 600 l 25xe0
 70 600 l 25
 70 700 l 25xc8
 108 700 l 25
 108 800 l 25
 332 800 l 25
 332 700 l 25xc4
 370 700 l 25
 370 600 l 25xc2
 408 600 l 25
 408 400 l 25xc1
 370 400 l 25
 370 300 l 25xc2
 332 300 l 25
 332 200 l 25xc4
 182 200 l 25
 182 100 l 25xd0
 145 100 l 25
 145 0 l 25xc8
 108 0 l 25
 108 -100 l 25
 32 -100 l 25
 32 100 l 25xe0
 70 100 l 25
 70 200 l 25xd0
 108 200 l 25
 108 300 l 25xc4
 70 300 l 25
 70 400 l 25xc8
 32 400 l 25xe0
EndSplineSet
EndChar

StartChar: u1F512
Encoding: 128274 128274 303
Width: 440
Flags: HW
HStem: 0 100<182 258> 400 100<145 295> 700 100<145 295>
VStem: 32 150<100 300> 32 75<500 600> 70 75<600 700> 258 150<100 300> 295 75<600 700> 332 75<500 600>
LayerCount: 2
Back
Fore
SplineSet
332 500 m 25xe880
 332 600 l 25xe880
 295 600 l 25
 295 700 l 25
 145 700 l 25
 145 600 l 25xe5
 108 600 l 25
 108 500 l 25
 332 500 l 25xe880
182 100 m 29xf0
 258 100 l 29
 258 300 l 29xf2
 295 300 l 29
 295 400 l 29
 145 400 l 29
 145 300 l 29xe5
 182 300 l 29
 182 100 l 29xf0
32 0 m 25xe880
 32 600 l 25xe880
 70 600 l 25
 70 700 l 25xe4
 108 700 l 25
 108 800 l 25
 332 800 l 25
 332 700 l 25xe880
 370 700 l 25
 370 600 l 25xe1
 408 600 l 25
 408 0 l 25
 32 0 l 25xe880
EndSplineSet
EndChar

StartChar: u1F513
Encoding: 128275 128275 304
Width: 440
Flags: HW
HStem: 0 100<182 258> 400 100<145 295> 600 100<332 370> 700 100<145 295>
VStem: 32 150<100 300> 32 75<500 600> 70 75<600 700> 258 150<100 300> 295 112<300 400> 295 75<600 700>
LayerCount: 2
Back
Fore
SplineSet
182 100 m 29xc8
 258 100 l 29
 258 300 l 29xc9
 295 300 l 29
 295 400 l 29
 145 400 l 29
 145 300 l 29xc280
 182 300 l 29
 182 100 l 29xc8
295 600 m 25xe440
 295 700 l 25
 145 700 l 25xd240
 145 600 l 25xe240
 108 600 l 25
 108 500 l 25
 408 500 l 25
 408 0 l 25
 32 0 l 25
 32 600 l 25xe480
 70 600 l 25xe2
 70 700 l 25xd2
 108 700 l 25
 108 800 l 25
 332 800 l 25xd4
 332 700 l 25
 370 700 l 25
 370 600 l 25
 295 600 l 25xe440
EndSplineSet
EndChar

StartChar: u1F514
Encoding: 128276 128276 305
Width: 440
Flags: HW
HStem: -100 100<201 239>
VStem: 126 75<0 100> 164 112<-100 0 700 800> 239 75<0 100>
LayerCount: 2
Back
Fore
SplineSet
201 0 m 29xd0
 239 0 l 25
 239 100 l 25
 201 100 l 25
 201 0 l 29xd0
-24 100 m 25
 -24 300 l 25
 14 300 l 25
 14 500 l 25
 51 500 l 25
 51 600 l 25
 89 600 l 25
 89 700 l 25
 164 700 l 25
 164 800 l 25
 276 800 l 25
 276 700 l 25xa0
 351 700 l 25
 351 600 l 25
 389 600 l 25
 389 500 l 25
 426 500 l 25
 426 300 l 25
 464 300 l 25
 464 100 l 25
 314 100 l 25
 314 0 l 25x90
 276 0 l 25
 276 -100 l 25
 164 -100 l 25
 164 0 l 25xa0
 126 0 l 25
 126 100 l 25
 -24 100 l 25
EndSplineSet
EndChar

StartChar: u1F515
Encoding: 128277 128277 306
Width: 440
Flags: HW
HStem: 0 100<126 164 276 314> 100 100<51 89 201 239 351 389> 200 100<126 164 276 314> 600 200<164 276> 600 100<126 164 276 314>
VStem: -24 75<200 300> 14 75<300 500> 51 75<500 600> 126 75<0 100 200 300> 164 112<100 200 700 800> 239 75<0 100 200 300> 314 75<500 600> 351 75<300 500> 389 75<200 300>
LayerCount: 2
Back
Fore
SplineSet
126 0 m 29x80a0
 126 100 l 25x80a0
 164 100 l 25
 164 200 l 25xa040
 126 200 l 25
 126 300 l 25
 201 300 l 25xa080
 201 200 l 25
 239 200 l 25x40a0
 239 300 l 25
 314 300 l 25
 314 200 l 25x20a0
 276 200 l 25
 276 100 l 25xa040
 314 100 l 25
 314 0 l 25
 239 0 l 25xa020
 239 100 l 25
 201 100 l 25x40a0
 201 0 l 25
 126 0 l 29x80a0
164 700 m 25x2a40
 164 800 l 25
 276 800 l 25x1240
 276 700 l 25
 351 700 l 25
 351 600 l 25x0a48
 389 600 l 25
 389 500 l 25x0810
 426 500 l 25
 426 300 l 25x2808
 464 300 l 25x2804
 464 100 l 25x4004
 351 100 l 25
 351 200 l 25x4008
 389 200 l 25x4004
 389 300 l 25x2004
 351 300 l 25
 351 500 l 25x2008
 314 500 l 25
 314 600 l 25
 126 600 l 25
 126 500 l 25x2910
 89 500 l 25
 89 300 l 25x2a
 51 300 l 25x2c
 51 200 l 25x44
 89 200 l 25
 89 100 l 25x42
 -24 100 l 25x44
 -24 300 l 25x24
 14 300 l 25
 14 500 l 25x22
 51 500 l 25
 51 600 l 25x29
 89 600 l 25
 89 700 l 25
 164 700 l 25x2a40
EndSplineSet
EndChar

StartChar: u1F517
Encoding: 128279 128279 307
Width: 440
Flags: HW
HStem: -100 100<182 445> 200 100<-5 108> 400 100<332 445> 700 100<-5 258>
VStem: -80 75<300 700> 108 75<0 200> 258 75<500 700> 445 75<0 400>
LayerCount: 2
Back
Fore
SplineSet
332 400 m 29
 332 300 l 25
 295 300 l 25
 295 200 l 25
 182 200 l 25
 182 0 l 25
 445 0 l 25
 445 400 l 25
 332 400 l 29
-5 700 m 25
 -5 300 l 25
 108 300 l 25
 108 400 l 25
 145 400 l 25
 145 500 l 25
 258 500 l 25
 258 700 l 25
 -5 700 l 25
-42 700 m 25
 -42 800 l 25
 295 800 l 25
 295 700 l 25
 332 700 l 25
 332 500 l 25
 482 500 l 25
 482 400 l 25
 520 400 l 25
 520 0 l 25
 482 0 l 25
 482 -100 l 25
 145 -100 l 25
 145 0 l 25
 108 0 l 25
 108 200 l 25
 -42 200 l 25
 -42 300 l 25
 -80 300 l 25
 -80 700 l 25
 -42 700 l 25
EndSplineSet
EndChar

StartChar: u1F51E
Encoding: 128286 128286 308
Width: 440
Flags: HW
HStem: 0 100<182 220> 100 100<108 145 258 295> 200 100<182 220 332 370 408 445> 300 100<108 145 258 295> 400 100<182 220>
VStem: -5 75<0 400> 32 38<400 500> 108 75<100 200 300 400> 145 112<0 100 200 300 400 500> 220 75<100 200 300 400> 332 112<200 300> 370 38<100 200 300 400>
LayerCount: 2
Back
Fore
SplineSet
370 100 m 29x4010
 370 200 l 25x2010
 332 200 l 25
 332 300 l 25x2020
 370 300 l 25
 370 400 l 25
 408 400 l 25
 408 300 l 25x2810
 445 300 l 25
 445 200 l 25x2820
 408 200 l 25x2810
 408 100 l 25
 370 100 l 29x4010
182 300 m 25x2940
 220 300 l 25
 220 400 l 25
 182 400 l 25
 182 300 l 25x2940
182 100 m 25xa140
 220 100 l 25
 220 200 l 25
 182 200 l 25
 182 100 l 25xa140
145 0 m 25x8080
 145 100 l 25x4080
 108 100 l 25
 108 200 l 25x41
 145 200 l 25
 145 300 l 25x5080
 108 300 l 25
 108 400 l 25x51
 145 400 l 25x5080
 145 500 l 25
 258 500 l 25x0880
 258 400 l 25x1080
 295 400 l 25
 295 300 l 25x1040
 258 300 l 25
 258 200 l 25x5080
 295 200 l 25
 295 100 l 25x5040
 258 100 l 25x5080
 258 0 l 25
 145 0 l 25x8080
-5 0 m 25x8c
 -5 400 l 25x8c
 32 400 l 25
 32 500 l 25
 70 500 l 25x8a
 70 0 l 25
 -5 0 l 25x8c
EndSplineSet
EndChar

StartChar: u1F520
Encoding: 128288 128288 309
Width: 440
Flags: HW
HStem: -100 100<89 201 314 351> 200 100<89 201 314 351> 400 100<389 426> 600 100<389 426>
VStem: 14 75<0 200 400 500> 51 112<700 800> 126 75<400 500> 239 150<-100 0 200 300 500 600> 239 112<700 800> 239 75<0 200> 351 75<0 200>
LayerCount: 2
Back
Fore
SplineSet
314 0 m 29xf060
 351 0 l 25
 351 200 l 25
 314 200 l 25
 314 0 l 29xf060
239 -100 m 25xf1
 239 300 l 25
 389 300 l 25
 389 200 l 25xf1
 426 200 l 25
 426 0 l 25xf020
 389 0 l 25
 389 -100 l 25
 239 -100 l 25xf1
201 300 m 25xf2
 201 200 l 25
 89 200 l 25
 89 0 l 25
 201 0 l 25
 201 -100 l 25xfa
 51 -100 l 25
 51 0 l 25xf4
 14 0 l 25
 14 200 l 25xf8
 51 200 l 25
 51 300 l 25xf4
 201 300 l 25xf2
239 400 m 25xf060
 239 800 l 25
 351 800 l 25
 351 700 l 25xf080
 426 700 l 25
 426 600 l 25xf020
 389 600 l 25
 389 500 l 25xf1
 426 500 l 25
 426 400 l 25
 239 400 l 25xf060
14 400 m 25xfa
 14 700 l 25xfa
 51 700 l 25
 51 800 l 25
 164 800 l 25
 164 700 l 25xf4
 201 700 l 25
 201 400 l 25
 126 400 l 25
 126 500 l 25
 89 500 l 25
 89 400 l 25
 14 400 l 25xfa
EndSplineSet
EndChar

StartChar: u1F521
Encoding: 128289 128289 310
Width: 440
Flags: HW
HStem: -100 100<70 182 295 332 408 445> 0 100<-5 32 220 258> 100 100<70 182 295 332> 400 100<70 108 182 220 332 370> 500 100<-5 32 408 445> 600 100<70 108 332 370>
VStem: -5 75<0 100 500 600> 32 150<-100 0 100 200 600 700> 108 75<500 600> 220 75<0 100> 258 75<500 600 700 800> 332 75<0 100 200 300> 370 75<500 600>
LayerCount: 2
Back
Fore
SplineSet
295 0 m 29xa050
 332 0 l 25
 332 100 l 25
 295 100 l 25
 295 0 l 29xa050
220 0 m 25x4040
 220 100 l 25x4040
 258 100 l 25x4020
 258 200 l 25x2020
 332 200 l 25
 332 300 l 25
 408 300 l 25
 408 0 l 25xa010
 445 0 l 25
 445 -100 l 25
 258 -100 l 25xa028
 258 0 l 25x4028
 220 0 l 25x4040
70 100 m 25x22
 70 0 l 25xa2
 182 0 l 25
 182 -100 l 25
 32 -100 l 25xa1
 32 0 l 25x41
 -5 0 l 25
 -5 100 l 25x42
 32 100 l 25x41
 32 200 l 25
 182 200 l 25
 182 100 l 25x21
 70 100 l 25x22
332 500 m 25x1428
 370 500 l 25
 370 600 l 25
 332 600 l 25
 332 500 l 25x1428
258 400 m 25
 258 800 l 25
 332 800 l 25
 332 700 l 25x1420
 408 700 l 25x1410
 408 600 l 25x0810
 445 600 l 25
 445 500 l 25x0808
 408 500 l 25x0810
 408 400 l 25x1010
 258 400 l 25
70 500 m 25x1680
 108 500 l 25
 108 600 l 25
 70 600 l 25
 70 500 l 25x1680
-5 500 m 25x0a
 -5 600 l 25x0a
 32 600 l 25x09
 32 700 l 25
 182 700 l 25x05
 182 500 l 25x1480
 220 500 l 25
 220 400 l 25
 32 400 l 25x1540
 32 500 l 25x0940
 -5 500 l 25x0a
EndSplineSet
EndChar

StartChar: u1F522
Encoding: 128290 128290 311
Width: 440
Flags: HW
HStem: -100 100<-5 70> 0 100<295 370> 200 100<-5 108 295 332> 400 100<258 295 370 445> 600 100<32 70 408 445> 700 100<258 370>
VStem: 32 112<600 700> 70 75<400 600 700 800> 108 75<100 200> 220 75<100 200> 258 75<200 300> 295 75<500 600> 370 75<-100 0 100 200 600 700>
LayerCount: 2
Back
Fore
SplineSet
332 300 m 29x7020
 332 200 l 25x7020
 295 200 l 25
 295 100 l 25
 370 100 l 25x7048
 370 200 l 25
 445 200 l 25
 445 -100 l 25
 370 -100 l 25xb048
 370 0 l 25
 220 0 l 25
 220 200 l 25x7048
 258 200 l 25
 258 300 l 25
 332 300 l 29x7020
-5 200 m 25
 -5 300 l 25
 182 300 l 25
 182 0 l 25x7080
 145 0 l 25x71
 145 -100 l 25
 -5 -100 l 25
 -5 0 l 25
 70 0 l 25xb1
 70 100 l 25x71
 108 100 l 25
 108 200 l 25x7080
 -5 200 l 25
258 400 m 25x3828
 258 500 l 25x3828
 295 500 l 25
 295 600 l 25
 370 600 l 25x3810
 370 700 l 25
 258 700 l 25
 258 800 l 25
 408 800 l 25x3428
 408 700 l 25
 445 700 l 25
 445 600 l 25x3828
 370 600 l 25
 370 500 l 25x3810
 445 500 l 25
 445 400 l 25
 258 400 l 25x3828
70 400 m 25x35
 70 600 l 25x39
 32 600 l 25
 32 700 l 25x3a
 70 700 l 25x39
 70 800 l 25
 145 800 l 25
 145 400 l 25
 70 400 l 25x35
EndSplineSet
EndChar

StartChar: u1F523
Encoding: 128291 128291 312
Width: 440
Flags: HW
HStem: 400 100<-5 70> 500 100<182 220 408 445> 600 200<-5 70 258 295 332 370> 700 100<295 332>
VStem: -5 75<400 500 600 800> 182 75<500 600> 220 75<600 700> 332 75<600 700> 370 75<500 600>
LayerCount: 2
Back
Fore
SplineSet
182 500 m 29x4c
 182 600 l 25x4c
 220 600 l 25
 220 700 l 25x5a
 258 700 l 25x5c
 258 800 l 25
 370 800 l 25x2c80
 370 700 l 25x1c80
 408 700 l 25
 408 600 l 25x59
 445 600 l 25
 445 500 l 25
 370 500 l 25x5880
 370 600 l 25x2880
 332 600 l 25x29
 332 700 l 25
 295 700 l 25x1b
 295 600 l 25x2b
 258 600 l 25x2c
 258 500 l 25
 182 500 l 29x4c
-5 400 m 25x88
 -5 500 l 25
 70 500 l 25
 70 400 l 25
 -5 400 l 25x88
-5 600 m 25x28
 -5 800 l 25
 70 800 l 25
 70 600 l 25
 -5 600 l 25x28
EndSplineSet
EndChar

